{"glyphs":{"0":{"ha":926,"x_min":57,"x_max":869,"o":"m 464 972 q 267 937 345 972 q 142 836 189 901 q 76 680 95 771 q 57 478 57 589 q 76 276 57 367 q 142 119 95 184 q 267 19 189 54 q 464 -17 345 -17 q 661 19 583 -17 q 785 119 739 54 q 850 276 831 184 q 869 478 869 367 q 850 680 869 589 q 785 836 831 771 q 661 937 739 901 q 464 972 583 972 m 464 785 q 525 771 500 785 q 566 729 550 758 q 588 655 581 701 q 595 547 595 610 l 595 410 q 588 301 595 347 q 566 227 581 256 q 525 184 550 198 q 464 171 500 171 q 402 184 427 171 q 360 227 376 198 q 337 301 345 256 q 330 410 330 347 l 330 547 q 337 655 330 610 q 360 729 345 701 q 402 771 376 758 q 464 785 427 785 z "},"1":{"ha":926,"x_min":146,"x_max":867,"o":"m 648 957 l 555 957 q 464 905 515 930 q 358 859 413 880 q 249 824 304 838 q 146 807 195 810 l 146 646 l 372 646 l 372 214 l 146 214 l 146 0 l 867 0 l 867 214 l 648 214 l 648 957 z "},"2":{"ha":926,"x_min":68,"x_max":860,"o":"m 481 972 q 301 949 378 972 q 173 884 224 926 q 96 782 121 842 q 71 648 71 722 q 71 634 71 641 q 72 618 71 627 l 319 618 l 319 646 q 328 698 319 674 q 354 739 337 722 q 397 767 372 757 q 454 777 422 777 q 509 768 486 777 q 546 745 532 760 q 567 713 560 731 q 574 675 574 694 q 546 608 574 641 q 469 533 518 574 q 351 439 419 492 q 201 314 283 387 q 148 260 172 288 q 105 203 123 233 q 78 139 87 173 q 68 66 68 106 l 68 0 l 860 0 l 860 235 l 441 235 q 540 303 491 270 q 635 369 589 336 q 719 435 680 401 q 787 508 758 469 q 832 590 816 546 q 848 685 848 633 q 823 803 848 750 q 749 893 797 856 q 633 952 701 931 q 481 972 566 972 z "},"3":{"ha":926,"x_min":58,"x_max":868,"o":"m 471 972 q 308 952 379 972 q 188 896 237 931 q 114 812 140 860 q 89 711 89 765 l 89 676 l 321 676 q 329 716 321 697 q 353 750 337 736 q 392 773 369 765 q 447 782 416 782 q 499 773 477 782 q 538 748 522 764 q 562 713 553 733 q 570 672 570 693 q 562 628 570 646 q 541 597 554 609 q 510 578 528 585 q 472 572 492 572 l 393 572 l 393 401 l 494 401 q 532 395 515 401 q 563 377 550 389 q 584 346 576 365 q 591 301 591 327 q 584 250 591 273 q 559 210 576 227 q 515 183 543 193 q 447 174 487 174 q 378 183 406 174 q 333 207 350 192 q 310 243 317 222 q 302 288 302 264 l 58 288 l 58 258 q 83 152 58 201 q 157 64 107 102 q 283 5 207 26 q 465 -17 360 -17 q 643 5 568 -17 q 767 64 718 26 q 841 152 817 102 q 868 260 865 203 q 825 409 868 348 q 701 496 781 471 l 701 501 q 758 534 732 513 q 802 583 783 555 q 830 644 820 610 q 840 713 840 677 q 816 813 840 766 q 744 896 791 861 q 628 952 696 931 q 471 972 559 972 z "},"4":{"ha":926,"x_min":32,"x_max":895,"o":"m 298 972 q 243 810 275 890 q 175 655 211 729 q 103 517 140 581 q 32 403 66 452 l 32 196 l 497 196 l 497 0 l 761 0 l 761 196 l 895 196 l 895 400 l 761 400 l 761 880 l 643 880 q 618 812 635 850 q 581 735 602 774 q 537 660 559 696 q 497 599 515 624 l 497 400 l 222 400 q 292 478 255 433 q 367 574 330 524 q 438 680 404 625 q 500 786 473 734 q 547 887 528 839 q 571 972 566 935 l 298 972 z "},"5":{"ha":926,"x_min":54,"x_max":868,"o":"m 798 956 l 136 956 l 96 421 l 315 390 q 329 409 321 397 q 353 432 338 420 q 391 451 368 443 q 449 460 414 460 q 511 449 484 460 q 557 419 538 438 q 585 374 576 400 q 595 317 595 347 q 585 260 595 286 q 557 216 576 235 q 511 186 539 197 q 447 175 484 175 q 382 185 410 175 q 336 214 355 196 q 308 257 317 233 q 298 309 298 281 l 54 309 q 81 175 54 235 q 161 73 108 115 q 293 6 214 30 q 476 -17 372 -17 q 639 9 566 -17 q 762 79 711 35 q 841 184 813 124 q 868 313 868 244 q 845 449 868 389 q 778 551 821 509 q 674 615 735 593 q 536 637 612 637 q 450 628 488 637 q 385 606 412 618 q 332 575 354 593 l 343 720 l 798 720 l 798 956 z "},"6":{"ha":926,"x_min":57,"x_max":876,"o":"m 471 972 q 289 944 367 972 q 160 852 212 915 q 83 692 109 790 q 57 454 57 593 q 83 244 57 333 q 160 97 109 155 q 289 11 212 39 q 471 -17 367 -17 q 638 5 564 -17 q 766 70 713 27 q 848 175 819 113 q 876 317 876 237 q 850 443 876 388 q 778 535 823 498 q 670 591 732 572 q 538 610 608 610 q 489 606 515 610 q 436 593 463 602 q 383 570 409 584 q 336 538 357 557 l 336 618 q 346 686 336 655 q 372 739 355 717 q 416 773 390 761 q 475 785 441 785 q 533 775 508 785 q 574 748 557 765 q 598 708 590 730 q 606 660 606 685 l 606 650 l 852 650 q 825 789 852 729 q 746 890 797 850 q 626 952 696 931 q 471 972 555 972 m 472 443 q 573 407 538 443 q 608 304 608 370 q 572 204 608 238 q 471 171 536 171 q 371 206 405 171 q 336 307 336 241 q 371 408 336 373 q 472 443 406 443 z "},"7":{"ha":926,"x_min":62,"x_max":868,"o":"m 868 956 l 62 956 l 62 717 l 521 717 q 400 556 456 641 q 305 381 345 472 q 242 195 265 291 q 220 0 220 99 l 528 0 l 528 82 q 556 287 528 188 q 632 480 585 387 q 740 660 679 573 q 868 829 802 747 l 868 956 z "},"8":{"ha":926,"x_min":57,"x_max":869,"o":"m 461 972 q 317 954 384 972 q 199 900 250 935 q 120 811 149 864 q 92 690 92 758 q 100 621 92 650 q 125 567 109 591 q 162 525 140 544 q 208 489 183 507 l 208 484 q 146 443 174 464 q 98 396 118 422 q 68 338 79 370 q 57 262 57 305 q 85 142 57 194 q 166 55 114 90 q 294 1 219 19 q 461 -17 368 -17 q 629 1 553 -17 q 758 55 705 19 q 840 142 811 90 q 869 262 869 194 q 859 338 869 305 q 828 396 848 370 q 780 443 808 422 q 717 484 751 464 l 717 489 q 763 525 742 507 q 800 567 785 544 q 825 621 816 591 q 833 690 833 650 q 804 811 833 758 q 725 900 775 864 q 606 954 674 935 q 461 972 538 972 m 461 399 q 511 391 487 399 q 553 370 534 384 q 582 334 571 355 q 593 285 593 313 q 583 235 593 256 q 555 199 573 214 q 514 178 538 185 q 461 171 490 171 q 409 178 433 171 q 369 199 386 185 q 343 235 353 214 q 334 285 334 256 q 344 334 334 313 q 371 370 354 355 q 412 391 389 384 q 461 399 435 399 m 461 785 q 514 779 490 785 q 555 760 538 772 q 583 727 573 747 q 593 679 593 707 q 582 631 593 651 q 553 599 571 612 q 511 581 534 587 q 461 575 487 575 q 412 581 435 575 q 371 599 389 587 q 344 631 354 612 q 334 679 334 651 q 343 727 334 707 q 369 760 353 747 q 409 779 386 772 q 461 785 433 785 z "},"9":{"ha":926,"x_min":50,"x_max":869,"o":"m 456 972 q 288 950 363 972 q 160 886 213 928 q 79 781 107 843 q 50 639 50 719 q 77 513 50 568 q 149 421 103 458 q 256 365 195 384 q 389 346 318 346 q 437 350 411 346 q 491 363 464 354 q 543 385 517 372 q 590 418 568 399 l 590 338 q 581 269 590 300 q 554 217 572 239 q 511 183 536 195 q 452 171 485 171 q 394 181 418 171 q 353 208 369 191 q 329 248 336 225 q 321 296 321 270 l 321 306 l 74 306 q 102 166 74 227 q 180 65 130 106 q 300 4 230 24 q 456 -17 371 -17 q 637 12 559 -17 q 766 103 715 41 q 844 264 818 165 q 869 501 869 362 q 844 711 869 623 q 766 858 818 800 q 637 944 715 916 q 456 972 559 972 m 454 785 q 555 748 520 785 q 590 646 590 711 q 554 546 590 580 q 453 513 519 513 q 353 548 387 513 q 318 648 318 583 q 353 749 318 714 q 454 785 389 785 z "},"\r":{"ha":463,"x_min":0,"x_max":0,"o":""}," ":{"ha":463,"x_min":0,"x_max":0,"o":""},"Ă":{"ha":1080,"x_min":14,"x_max":1068,"o":"m 720 956 l 363 956 l 14 0 l 328 0 l 368 135 l 703 135 l 743 0 l 1068 0 l 720 956 m 539 689 l 639 349 l 432 349 l 533 689 l 539 689 m 665 1230 q 652 1206 663 1219 q 626 1184 642 1194 q 588 1166 610 1173 q 540 1160 566 1160 q 493 1166 514 1160 q 455 1184 471 1173 q 430 1206 439 1194 q 418 1230 420 1219 l 284 1230 q 301 1159 284 1195 q 352 1095 319 1124 q 432 1048 385 1066 q 540 1029 479 1029 q 647 1048 599 1029 q 728 1095 694 1066 q 779 1159 761 1124 q 797 1230 797 1195 l 665 1230 z "},"Â":{"ha":1080,"x_min":14,"x_max":1068,"o":"m 720 956 l 363 956 l 14 0 l 328 0 l 368 135 l 703 135 l 743 0 l 1068 0 l 720 956 m 539 689 l 639 349 l 432 349 l 533 689 l 539 689 m 629 1230 l 452 1230 l 258 1028 l 436 1028 l 539 1135 l 642 1028 l 823 1028 l 629 1230 z "},"Ä":{"ha":1080,"x_min":14,"x_max":1068,"o":"m 720 956 l 363 956 l 14 0 l 328 0 l 368 135 l 703 135 l 743 0 l 1068 0 l 720 956 m 539 689 l 639 349 l 432 349 l 533 689 l 539 689 m 799 1230 l 588 1230 l 588 1036 l 799 1036 l 799 1230 m 493 1230 l 282 1230 l 282 1036 l 493 1036 l 493 1230 z "},"À":{"ha":1080,"x_min":14,"x_max":1068,"o":"m 1068 0 l 720 956 l 363 956 l 14 0 l 328 0 l 368 135 l 703 135 l 743 0 l 1068 0 m 533 689 l 539 689 l 639 349 l 432 349 l 533 689 m 674 1044 l 546 1230 l 278 1230 l 275 1224 l 498 1044 l 674 1044 z "},"Ā":{"ha":1080,"x_min":14,"x_max":1068,"o":"m 720 956 l 363 956 l 14 0 l 328 0 l 368 135 l 703 135 l 743 0 l 1068 0 l 720 956 m 539 689 l 639 349 l 432 349 l 533 689 l 539 689 m 760 1202 l 321 1202 l 321 1063 l 760 1063 l 760 1202 z "},"Ą":{"ha":1080,"x_min":14,"x_max":1068,"o":"m 720 956 l 363 956 l 14 0 l 328 0 l 368 135 l 703 135 l 743 0 l 753 0 q 715 -59 732 -26 q 698 -135 698 -91 q 713 -208 698 -178 q 752 -257 728 -238 q 808 -284 777 -275 q 873 -293 840 -293 q 1006 -272 943 -293 l 1006 -167 l 948 -167 q 908 -161 924 -167 q 883 -145 892 -155 q 869 -122 873 -135 q 865 -96 865 -109 q 872 -43 865 -69 q 887 0 880 -17 l 1068 0 l 720 956 m 539 689 l 639 349 l 432 349 l 533 689 l 539 689 z "},"Å":{"ha":1080,"x_min":14,"x_max":1068,"o":"m 720 956 l 363 956 l 14 0 l 328 0 l 368 135 l 703 135 l 743 0 l 1068 0 l 720 956 m 539 689 l 639 349 l 432 349 l 533 689 l 539 689 m 541 1325 q 482 1313 509 1325 q 434 1281 454 1301 q 401 1233 413 1260 q 389 1174 389 1205 q 401 1115 389 1143 q 434 1067 414 1088 q 483 1036 455 1047 q 541 1024 510 1024 q 599 1036 572 1024 q 647 1068 627 1048 q 680 1116 668 1088 q 692 1174 692 1143 q 680 1233 692 1206 q 647 1281 667 1261 q 598 1313 626 1301 q 541 1325 571 1325 m 541 1230 q 580 1214 564 1230 q 596 1175 596 1199 q 581 1134 596 1150 q 541 1118 566 1118 q 501 1134 517 1118 q 485 1173 485 1149 q 500 1214 485 1198 q 541 1230 515 1230 z "},"Ǻ":{"ha":1080,"x_min":14,"x_max":1068,"o":"m 720 956 l 682 956 q 692 1011 692 981 q 680 1072 692 1046 q 647 1115 668 1097 q 599 1140 627 1132 q 541 1149 572 1149 q 483 1140 510 1149 q 434 1114 455 1131 q 402 1071 414 1097 q 390 1011 390 1045 q 400 956 390 980 l 363 956 l 14 0 l 328 0 l 368 135 l 703 135 l 743 0 l 1068 0 l 720 956 m 539 689 l 639 349 l 432 349 l 533 689 l 539 689 m 805 1329 l 553 1329 l 446 1183 l 623 1183 l 808 1323 l 805 1329 m 541 1067 q 581 1052 565 1067 q 597 1013 597 1036 q 582 971 597 987 q 541 956 566 956 q 502 971 517 956 q 486 1010 486 986 q 501 1051 486 1035 q 541 1067 516 1067 z "},"Ã":{"ha":1080,"x_min":14,"x_max":1068,"o":"m 720 956 l 363 956 l 14 0 l 328 0 l 368 135 l 703 135 l 743 0 l 1068 0 l 720 956 m 539 689 l 639 349 l 432 349 l 533 689 l 539 689 m 736 1230 q 711 1190 729 1206 q 667 1174 693 1174 q 610 1183 639 1174 q 552 1202 582 1192 q 491 1221 522 1212 q 427 1230 460 1230 q 347 1213 382 1230 q 286 1167 311 1196 q 246 1104 260 1139 q 232 1031 232 1068 l 345 1031 q 370 1070 352 1055 q 414 1086 388 1086 q 471 1078 442 1086 q 529 1059 499 1069 q 590 1040 559 1048 q 654 1031 621 1031 q 734 1048 698 1031 q 795 1093 770 1065 q 835 1156 821 1120 q 849 1230 849 1192 l 736 1230 z "},"B":{"ha":1080,"x_min":103,"x_max":1025,"o":"m 103 956 l 103 0 l 747 0 q 856 18 805 0 q 944 70 906 37 q 1003 150 981 103 q 1025 254 1025 197 q 1010 353 1025 311 q 971 422 996 394 q 913 468 946 451 q 843 493 880 485 l 843 498 q 904 524 876 508 q 955 567 933 541 q 990 631 977 593 q 1003 721 1003 669 q 982 815 1003 772 q 925 890 961 859 q 841 938 889 921 q 739 956 793 956 l 103 956 m 643 386 q 671 380 658 386 q 694 364 684 374 q 709 340 703 354 q 714 311 714 327 l 714 297 q 709 267 714 281 q 694 244 703 254 q 671 228 684 234 q 643 222 658 222 l 410 222 l 410 386 l 643 386 m 621 746 q 648 740 635 746 q 671 724 661 734 q 686 701 680 714 q 692 672 692 687 l 692 659 q 686 629 692 643 q 671 605 681 615 q 649 589 662 595 q 621 583 635 583 l 410 583 l 410 746 l 621 746 z "},"C":{"ha":1080,"x_min":62,"x_max":1018,"o":"m 558 972 q 188 848 313 972 q 62 478 62 723 q 188 108 62 233 q 558 -17 313 -17 q 753 9 667 -17 q 897 86 838 35 q 987 213 956 138 q 1018 387 1018 289 l 734 387 q 690 259 734 305 q 554 212 645 212 q 474 229 507 212 q 418 274 440 245 q 387 344 397 303 q 376 433 376 385 l 376 522 q 386 612 376 571 q 418 682 396 652 q 474 727 439 711 q 557 743 508 743 q 629 730 598 743 q 682 694 661 718 q 714 637 703 670 q 725 562 725 604 l 1018 562 q 985 739 1018 663 q 892 868 952 816 q 747 946 832 920 q 558 972 663 972 z "},"Ć":{"ha":1080,"x_min":62,"x_max":1018,"o":"m 558 972 q 188 848 313 972 q 62 478 62 723 q 188 108 62 233 q 558 -17 313 -17 q 753 9 667 -17 q 897 86 838 35 q 987 213 956 138 q 1018 387 1018 289 l 734 387 q 690 259 734 305 q 554 212 645 212 q 474 229 507 212 q 418 274 440 245 q 387 344 397 303 q 376 433 376 385 l 376 522 q 386 612 376 571 q 418 682 396 652 q 474 727 439 711 q 557 743 508 743 q 629 730 598 743 q 682 694 661 718 q 714 637 703 670 q 725 562 725 604 l 1018 562 q 985 739 1018 663 q 892 868 952 816 q 747 946 832 920 q 558 972 663 972 m 820 1224 l 817 1230 l 549 1230 l 421 1044 l 598 1044 l 820 1224 z "},"Č":{"ha":1080,"x_min":62,"x_max":1018,"o":"m 558 972 q 188 848 313 972 q 62 478 62 723 q 188 108 62 233 q 558 -17 313 -17 q 753 9 667 -17 q 897 86 838 35 q 987 213 956 138 q 1018 387 1018 289 l 734 387 q 690 259 734 305 q 554 212 645 212 q 474 229 507 212 q 418 274 440 245 q 387 344 397 303 q 376 433 376 385 l 376 522 q 386 612 376 571 q 418 682 396 652 q 474 727 439 711 q 557 743 508 743 q 629 730 598 743 q 682 694 661 718 q 714 637 703 670 q 725 562 725 604 l 1018 562 q 985 739 1018 663 q 892 868 952 816 q 747 946 832 920 q 558 972 663 972 m 823 1230 l 642 1230 l 539 1122 l 436 1230 l 258 1230 l 452 1028 l 629 1028 l 823 1230 z "},"Ç":{"ha":1080,"x_min":62,"x_max":1018,"o":"m 558 972 q 188 848 313 972 q 62 478 62 723 q 173 124 62 248 q 499 -15 283 -1 l 484 -119 l 536 -119 q 578 -131 567 -119 q 589 -164 589 -143 q 574 -197 589 -188 q 534 -207 559 -207 q 477 -205 506 -207 q 425 -201 449 -203 q 371 -196 397 -199 l 371 -271 q 406 -280 386 -276 q 450 -287 427 -284 q 497 -292 473 -290 q 546 -293 522 -293 q 599 -288 570 -293 q 652 -268 627 -282 q 693 -229 677 -254 q 710 -164 710 -203 q 700 -109 710 -132 q 671 -73 689 -87 q 630 -51 653 -58 q 581 -40 606 -43 l 585 -16 q 768 14 688 -14 q 904 93 849 42 q 989 218 960 144 q 1018 387 1018 292 l 734 387 q 690 259 734 305 q 554 212 645 212 q 474 229 507 212 q 418 274 440 245 q 387 344 397 303 q 376 433 376 385 l 376 522 q 386 612 376 571 q 418 682 396 652 q 474 727 439 711 q 557 743 508 743 q 629 730 598 743 q 682 694 661 718 q 714 637 703 670 q 725 562 725 604 l 1018 562 q 985 739 1018 663 q 892 868 952 816 q 747 946 832 920 q 558 972 663 972 z "},"Ĉ":{"ha":1080,"x_min":62,"x_max":1018,"o":"m 558 972 q 188 848 313 972 q 62 478 62 723 q 188 108 62 233 q 558 -17 313 -17 q 753 9 667 -17 q 897 86 838 35 q 987 213 956 138 q 1018 387 1018 289 l 734 387 q 690 259 734 305 q 554 212 645 212 q 474 229 507 212 q 418 274 440 245 q 387 344 397 303 q 376 433 376 385 l 376 522 q 386 612 376 571 q 418 682 396 652 q 474 727 439 711 q 557 743 508 743 q 629 730 598 743 q 682 694 661 718 q 714 637 703 670 q 725 562 725 604 l 1018 562 q 985 739 1018 663 q 892 868 952 816 q 747 946 832 920 q 558 972 663 972 m 629 1230 l 452 1230 l 258 1028 l 436 1028 l 539 1135 l 642 1028 l 823 1028 l 629 1230 z "},"Ċ":{"ha":1080,"x_min":62,"x_max":1018,"o":"m 558 972 q 188 848 313 972 q 62 478 62 723 q 188 108 62 233 q 558 -17 313 -17 q 753 9 667 -17 q 897 86 838 35 q 987 213 956 138 q 1018 387 1018 289 l 734 387 q 690 259 734 305 q 554 212 645 212 q 474 229 507 212 q 418 274 440 245 q 387 344 397 303 q 376 433 376 385 l 376 522 q 386 612 376 571 q 418 682 396 652 q 474 727 439 711 q 557 743 508 743 q 629 730 598 743 q 682 694 661 718 q 714 637 703 670 q 725 562 725 604 l 1018 562 q 985 739 1018 663 q 892 868 952 816 q 747 946 832 920 q 558 972 663 972 m 646 1230 l 435 1230 l 435 1036 l 646 1036 l 646 1230 z "},"D":{"ha":1080,"x_min":103,"x_max":1018,"o":"m 103 956 l 103 0 l 517 0 q 732 29 639 0 q 889 117 826 58 q 985 266 953 176 q 1018 478 1018 355 q 985 690 1018 600 q 889 839 953 780 q 732 927 826 898 q 517 956 639 956 l 103 956 m 511 726 q 598 712 562 726 q 658 672 635 699 q 693 607 682 645 q 704 519 704 568 l 704 436 q 693 349 704 387 q 658 284 682 311 q 598 243 635 257 q 511 229 562 229 l 410 229 l 410 726 l 511 726 z "},"Ď":{"ha":1080,"x_min":103,"x_max":1018,"o":"m 103 956 l 103 0 l 517 0 q 732 29 639 0 q 889 117 826 58 q 985 266 953 176 q 1018 478 1018 355 q 985 690 1018 600 q 889 839 953 780 q 732 927 826 898 q 517 956 639 956 l 103 956 m 511 726 q 598 712 562 726 q 658 672 635 699 q 693 607 682 645 q 704 519 704 568 l 704 436 q 693 349 704 387 q 658 284 682 311 q 598 243 635 257 q 511 229 562 229 l 410 229 l 410 726 l 511 726 m 772 1230 l 591 1230 l 488 1122 l 385 1230 l 208 1230 l 401 1028 l 578 1028 l 772 1230 z "},"Đ":{"ha":1080,"x_min":1,"x_max":1018,"o":"m 1 422 l 103 422 l 103 0 l 517 0 q 732 29 639 0 q 889 117 826 58 q 985 266 953 176 q 1018 478 1018 355 q 985 690 1018 600 q 889 839 953 780 q 732 927 826 898 q 517 956 639 956 l 103 956 l 103 558 l 1 558 l 1 422 m 545 422 l 545 558 l 410 558 l 410 726 l 511 726 q 598 712 562 726 q 658 672 635 699 q 693 607 682 645 q 704 519 704 568 l 704 436 q 693 349 704 387 q 658 284 682 311 q 598 243 635 257 q 511 229 562 229 l 410 229 l 410 422 l 545 422 z "},"E":{"ha":1003,"x_min":103,"x_max":939,"o":"m 939 0 l 939 229 l 410 229 l 410 375 l 854 375 l 854 595 l 410 595 l 410 726 l 929 726 l 929 956 l 103 956 l 103 0 l 939 0 z "},"É":{"ha":1003,"x_min":103,"x_max":939,"o":"m 802 1223 l 799 1229 l 530 1229 l 403 1044 l 579 1044 l 802 1223 m 939 0 l 939 229 l 410 229 l 410 375 l 854 375 l 854 595 l 410 595 l 410 726 l 929 726 l 929 956 l 103 956 l 103 0 l 939 0 z "},"Ĕ":{"ha":1003,"x_min":103,"x_max":939,"o":"m 660 1229 q 648 1206 658 1218 q 621 1183 637 1194 q 583 1166 605 1173 q 534 1160 561 1160 q 487 1166 509 1160 q 450 1183 466 1173 q 424 1206 434 1194 q 412 1229 414 1218 l 279 1229 q 297 1159 279 1194 q 347 1094 314 1123 q 427 1047 380 1065 q 534 1029 475 1029 q 642 1047 594 1029 q 722 1094 689 1065 q 773 1159 755 1123 q 791 1229 791 1194 l 660 1229 m 939 0 l 939 229 l 410 229 l 410 375 l 854 375 l 854 595 l 410 595 l 410 726 l 929 726 l 929 956 l 103 956 l 103 0 l 939 0 z "},"Ě":{"ha":1003,"x_min":103,"x_max":939,"o":"m 818 1229 l 637 1229 l 534 1122 l 432 1229 l 254 1229 l 447 1028 l 625 1028 l 818 1229 m 939 0 l 939 229 l 410 229 l 410 375 l 854 375 l 854 595 l 410 595 l 410 726 l 929 726 l 929 956 l 103 956 l 103 0 l 939 0 z "},"Ê":{"ha":1003,"x_min":103,"x_max":939,"o":"m 625 1229 l 447 1229 l 254 1028 l 432 1028 l 534 1135 l 637 1028 l 818 1028 l 625 1229 m 939 0 l 939 229 l 410 229 l 410 375 l 854 375 l 854 595 l 410 595 l 410 726 l 929 726 l 929 956 l 103 956 l 103 0 l 939 0 z "},"Ë":{"ha":1003,"x_min":103,"x_max":939,"o":"m 794 1229 l 583 1229 l 583 1036 l 794 1036 l 794 1229 m 489 1229 l 278 1229 l 278 1036 l 489 1036 l 489 1229 m 939 0 l 939 229 l 410 229 l 410 375 l 854 375 l 854 595 l 410 595 l 410 726 l 929 726 l 929 956 l 103 956 l 103 0 l 939 0 z "},"Ė":{"ha":1003,"x_min":103,"x_max":939,"o":"m 642 1229 l 431 1229 l 431 1036 l 642 1036 l 642 1229 m 939 0 l 939 229 l 410 229 l 410 375 l 854 375 l 854 595 l 410 595 l 410 726 l 929 726 l 929 956 l 103 956 l 103 0 l 939 0 z "},"È":{"ha":1003,"x_min":103,"x_max":939,"o":"m 669 1044 l 542 1229 l 273 1229 l 271 1223 l 493 1044 l 669 1044 m 939 0 l 939 229 l 410 229 l 410 375 l 854 375 l 854 595 l 410 595 l 410 726 l 929 726 l 929 956 l 103 956 l 103 0 l 939 0 z "},"Ē":{"ha":1003,"x_min":103,"x_max":939,"o":"m 755 1202 l 317 1202 l 317 1063 l 755 1063 l 755 1202 m 939 0 l 939 229 l 410 229 l 410 375 l 854 375 l 854 595 l 410 595 l 410 726 l 929 726 l 929 956 l 103 956 l 103 0 l 939 0 z "},"Ŋ":{"ha":1131,"x_min":103,"x_max":1054,"o":"m 1054 956 l 772 956 l 772 485 l 371 956 l 103 956 l 103 0 l 385 0 l 385 464 l 774 14 l 774 -12 q 756 -78 774 -55 q 696 -102 738 -102 l 628 -102 l 628 -267 q 667 -277 644 -273 q 713 -285 689 -281 q 760 -290 737 -288 q 800 -292 783 -292 q 915 -277 867 -292 q 994 -233 963 -263 q 1039 -155 1025 -202 q 1054 -40 1054 -107 l 1054 956 z "},"Ę":{"ha":1003,"x_min":103,"x_max":990,"o":"m 929 956 l 103 956 l 103 0 l 737 0 q 700 -59 717 -26 q 682 -135 682 -92 q 697 -208 682 -178 q 736 -257 712 -238 q 792 -284 761 -275 q 857 -293 824 -293 q 990 -272 927 -293 l 990 -167 l 932 -167 q 892 -161 908 -167 q 867 -145 876 -155 q 853 -122 857 -135 q 848 -96 848 -109 q 856 -43 848 -68 q 871 0 863 -17 l 939 0 l 939 229 l 410 229 l 410 375 l 854 375 l 854 595 l 410 595 l 410 726 l 929 726 l 929 956 z "},"Ð":{"ha":1080,"x_min":1,"x_max":1018,"o":"m 1 422 l 103 422 l 103 0 l 517 0 q 732 29 639 0 q 889 117 826 58 q 985 266 953 176 q 1018 478 1018 355 q 985 690 1018 600 q 889 839 953 780 q 732 927 826 898 q 517 956 639 956 l 103 956 l 103 558 l 1 558 l 1 422 m 545 422 l 545 558 l 410 558 l 410 726 l 511 726 q 598 712 562 726 q 658 672 635 699 q 693 607 682 645 q 704 519 704 568 l 704 436 q 693 349 704 387 q 658 284 682 311 q 598 243 635 257 q 511 229 562 229 l 410 229 l 410 422 l 545 422 z "},"F":{"ha":926,"x_min":103,"x_max":875,"o":"m 410 0 l 410 343 l 810 343 l 810 562 l 410 562 l 410 726 l 875 726 l 875 956 l 103 956 l 103 0 l 410 0 z "},"G":{"ha":1157,"x_min":62,"x_max":1069,"o":"m 583 972 q 362 941 459 972 q 199 847 266 909 q 97 693 132 785 q 62 478 62 600 q 181 108 62 233 q 539 -17 300 -17 q 732 11 649 -17 q 880 94 815 39 l 911 0 l 1069 0 l 1069 533 l 559 533 l 559 339 l 777 339 q 762 287 777 311 q 723 247 747 264 q 665 221 698 231 q 596 212 633 212 q 432 271 487 212 q 376 433 376 329 l 376 522 q 432 685 376 627 q 596 743 487 743 q 665 734 633 743 q 723 707 698 724 q 762 665 747 690 q 777 610 777 640 l 1069 610 q 1031 768 1069 700 q 927 881 993 836 q 772 949 861 926 q 583 972 684 972 z "},"Ğ":{"ha":1157,"x_min":62,"x_max":1069,"o":"m 583 972 q 362 941 459 972 q 199 847 266 909 q 97 693 132 785 q 62 478 62 600 q 181 108 62 233 q 539 -17 300 -17 q 732 11 649 -17 q 880 94 815 39 l 911 0 l 1069 0 l 1069 533 l 559 533 l 559 339 l 777 339 q 762 287 777 311 q 723 247 747 264 q 665 221 698 231 q 596 212 633 212 q 432 271 487 212 q 376 433 376 329 l 376 522 q 432 685 376 627 q 596 743 487 743 q 665 734 633 743 q 723 707 698 724 q 762 665 747 690 q 777 610 777 640 l 1069 610 q 1031 768 1069 700 q 927 881 993 836 q 772 949 861 926 q 583 972 684 972 m 703 1230 q 690 1206 701 1219 q 664 1184 680 1194 q 626 1166 648 1173 q 578 1160 604 1160 q 531 1166 552 1160 q 493 1184 509 1173 q 468 1206 477 1194 q 456 1230 458 1219 l 322 1230 q 339 1159 322 1195 q 390 1095 357 1124 q 470 1048 423 1066 q 578 1029 517 1029 q 685 1048 637 1029 q 766 1095 732 1066 q 817 1159 799 1124 q 835 1230 835 1195 l 703 1230 z "},"Ĝ":{"ha":1157,"x_min":62,"x_max":1069,"o":"m 583 972 q 362 941 459 972 q 199 847 266 909 q 97 693 132 785 q 62 478 62 600 q 181 108 62 233 q 539 -17 300 -17 q 732 11 649 -17 q 880 94 815 39 l 911 0 l 1069 0 l 1069 533 l 559 533 l 559 339 l 777 339 q 762 287 777 311 q 723 247 747 264 q 665 221 698 231 q 596 212 633 212 q 432 271 487 212 q 376 433 376 329 l 376 522 q 432 685 376 627 q 596 743 487 743 q 665 734 633 743 q 723 707 698 724 q 762 665 747 690 q 777 610 777 640 l 1069 610 q 1031 768 1069 700 q 927 881 993 836 q 772 949 861 926 q 583 972 684 972 m 667 1230 l 490 1230 l 296 1028 l 474 1028 l 577 1135 l 680 1028 l 861 1028 l 667 1230 z "},"Ģ":{"ha":1157,"x_min":62,"x_max":1069,"o":"m 583 972 q 362 941 459 972 q 199 847 266 909 q 97 693 132 785 q 62 478 62 600 q 181 108 62 233 q 539 -17 300 -17 q 732 11 649 -17 q 880 94 815 39 l 911 0 l 1069 0 l 1069 533 l 559 533 l 559 339 l 777 339 q 762 287 777 311 q 723 247 747 264 q 665 221 698 231 q 596 212 633 212 q 432 271 487 212 q 376 433 376 329 l 376 522 q 432 685 376 627 q 596 743 487 743 q 665 734 633 743 q 723 707 698 724 q 762 665 747 690 q 777 610 777 640 l 1069 610 q 1031 768 1069 700 q 927 881 993 836 q 772 949 861 926 q 583 972 684 972 m 669 -82 l 488 -82 l 488 -243 l 557 -243 l 500 -370 l 593 -370 l 669 -233 l 669 -82 z "},"Ġ":{"ha":1157,"x_min":62,"x_max":1069,"o":"m 583 972 q 362 941 459 972 q 199 847 266 909 q 97 693 132 785 q 62 478 62 600 q 181 108 62 233 q 539 -17 300 -17 q 732 11 649 -17 q 880 94 815 39 l 911 0 l 1069 0 l 1069 533 l 559 533 l 559 339 l 777 339 q 762 287 777 311 q 723 247 747 264 q 665 221 698 231 q 596 212 633 212 q 432 271 487 212 q 376 433 376 329 l 376 522 q 432 685 376 627 q 596 743 487 743 q 665 734 633 743 q 723 707 698 724 q 762 665 747 690 q 777 610 777 640 l 1069 610 q 1031 768 1069 700 q 927 881 993 836 q 772 949 861 926 q 583 972 684 972 m 684 1230 l 473 1230 l 473 1036 l 684 1036 l 684 1230 z "},"H":{"ha":1157,"x_min":103,"x_max":1054,"o":"m 1054 956 l 747 956 l 747 607 l 410 607 l 410 956 l 103 956 l 103 0 l 410 0 l 410 363 l 747 363 l 747 0 l 1054 0 l 1054 956 z "},"Ħ":{"ha":1157,"x_min":1,"x_max":1154,"o":"m 1154 698 l 1154 833 l 1054 833 l 1054 956 l 747 956 l 747 833 l 410 833 l 410 956 l 103 956 l 103 833 l 1 833 l 1 698 l 103 698 l 103 0 l 410 0 l 410 349 l 747 349 l 747 0 l 1054 0 l 1054 698 l 1154 698 m 410 593 l 410 698 l 747 698 l 747 593 l 410 593 z "},"Ĥ":{"ha":1157,"x_min":103,"x_max":1054,"o":"m 1054 956 l 747 956 l 747 607 l 410 607 l 410 956 l 103 956 l 103 0 l 410 0 l 410 363 l 747 363 l 747 0 l 1054 0 l 1054 956 m 667 1230 l 490 1230 l 296 1028 l 474 1028 l 577 1135 l 680 1028 l 861 1028 l 667 1230 z "},"I":{"ha":541,"x_min":117,"x_max":424,"o":"m 424 956 l 117 956 l 117 0 l 424 0 l 424 956 z "},"Ĳ":{"ha":1428,"x_min":117,"x_max":1325,"o":"m 1325 956 l 1018 956 l 1018 334 q 993 239 1018 267 q 920 212 968 212 q 846 239 871 212 q 821 334 821 267 l 821 345 l 533 345 l 533 332 q 560 174 533 240 q 638 66 587 109 q 763 3 690 23 q 929 -17 836 -17 q 1096 3 1022 -17 q 1220 66 1169 23 q 1298 174 1271 109 q 1325 332 1325 240 l 1325 956 m 424 956 l 117 956 l 117 0 l 424 0 l 424 956 z "},"Í":{"ha":541,"x_min":117,"x_max":536,"o":"m 424 0 l 424 956 l 117 956 l 117 0 l 424 0 m 536 1224 l 533 1230 l 265 1230 l 137 1044 l 314 1044 l 536 1224 z "},"Ĭ":{"ha":541,"x_min":14,"x_max":527,"o":"m 424 956 l 117 956 l 117 0 l 424 0 l 424 956 m 395 1230 q 382 1206 393 1219 q 356 1184 372 1194 q 318 1166 340 1173 q 270 1160 296 1160 q 223 1166 244 1160 q 185 1184 201 1173 q 160 1206 170 1194 q 148 1230 150 1219 l 14 1230 q 32 1159 14 1195 q 82 1095 49 1124 q 162 1048 115 1066 q 270 1029 210 1029 q 377 1048 329 1029 q 458 1095 425 1066 q 509 1159 491 1124 q 527 1230 527 1195 l 395 1230 z "},"Î":{"ha":541,"x_min":-12,"x_max":553,"o":"m 424 956 l 117 956 l 117 0 l 424 0 l 424 956 m 359 1230 l 182 1230 l -12 1028 l 166 1028 l 269 1135 l 372 1028 l 553 1028 l 359 1230 z "},"Ï":{"ha":541,"x_min":12,"x_max":529,"o":"m 424 956 l 117 956 l 117 0 l 424 0 l 424 956 m 529 1230 l 318 1230 l 318 1036 l 529 1036 l 529 1230 m 223 1230 l 12 1230 l 12 1036 l 223 1036 l 223 1230 z "},"İ":{"ha":541,"x_min":117,"x_max":424,"o":"m 424 956 l 117 956 l 117 0 l 424 0 l 424 956 m 376 1230 l 165 1230 l 165 1036 l 376 1036 l 376 1230 z "},"Ì":{"ha":541,"x_min":5,"x_max":424,"o":"m 424 0 l 424 956 l 117 956 l 117 0 l 424 0 m 404 1044 l 276 1230 l 8 1230 l 5 1224 l 228 1044 l 404 1044 z "},"Ī":{"ha":541,"x_min":51,"x_max":490,"o":"m 424 956 l 117 956 l 117 0 l 424 0 l 424 956 m 490 1202 l 51 1202 l 51 1063 l 490 1063 l 490 1202 z "},"Į":{"ha":541,"x_min":117,"x_max":534,"o":"m 424 956 l 117 956 l 117 0 l 281 0 q 243 -59 260 -26 q 226 -135 226 -91 q 241 -208 226 -178 q 280 -257 256 -238 q 336 -284 304 -275 q 401 -293 368 -293 q 534 -272 471 -293 l 534 -167 l 476 -167 q 436 -161 452 -167 q 411 -145 420 -155 q 397 -122 401 -135 q 393 -96 393 -109 q 400 -43 393 -69 q 415 0 408 -17 l 424 0 l 424 956 z "},"Ĩ":{"ha":541,"x_min":-38,"x_max":579,"o":"m 424 956 l 117 956 l 117 0 l 424 0 l 424 956 m 467 1230 q 441 1190 459 1206 q 397 1174 423 1174 q 340 1183 369 1174 q 282 1202 312 1192 q 221 1221 252 1212 q 157 1230 190 1230 q 77 1213 113 1230 q 16 1167 41 1196 q -24 1104 -10 1139 q -38 1031 -38 1068 l 75 1031 q 100 1070 82 1055 q 144 1086 118 1086 q 201 1078 172 1086 q 259 1059 229 1069 q 320 1040 289 1048 q 385 1031 351 1031 q 464 1048 428 1031 q 526 1093 500 1065 q 565 1156 551 1120 q 579 1230 579 1192 l 467 1230 z "},"J":{"ha":926,"x_min":32,"x_max":823,"o":"m 823 956 l 517 956 l 517 334 q 492 239 517 267 q 418 212 467 212 q 344 239 369 212 q 319 334 319 267 l 319 345 l 32 345 l 32 332 q 59 174 32 240 q 137 66 86 109 q 261 3 188 23 q 428 -17 335 -17 q 594 3 520 -17 q 718 66 667 23 q 796 174 769 109 q 823 332 823 240 l 823 956 z "},"Ĵ":{"ha":926,"x_min":32,"x_max":937,"o":"m 823 956 l 517 956 l 517 334 q 492 239 517 267 q 418 212 467 212 q 344 239 369 212 q 319 334 319 267 l 319 345 l 32 345 l 32 332 q 59 174 32 240 q 137 66 86 109 q 261 3 188 23 q 428 -17 335 -17 q 594 3 520 -17 q 718 66 667 23 q 796 174 769 109 q 823 332 823 240 l 823 956 m 744 1230 l 566 1230 l 373 1028 l 551 1028 l 654 1135 l 757 1028 l 937 1028 l 744 1230 z "},"K":{"ha":1157,"x_min":103,"x_max":1137,"o":"m 410 956 l 103 956 l 103 0 l 410 0 l 410 214 l 576 350 l 775 0 l 1137 0 l 787 562 l 1131 956 l 750 956 l 410 547 l 410 956 z "},"Ķ":{"ha":1157,"x_min":103,"x_max":1137,"o":"m 668 -82 l 489 -82 l 489 -243 l 557 -243 l 500 -371 l 593 -371 l 668 -233 l 668 -82 m 410 956 l 103 956 l 103 0 l 410 0 l 410 214 l 576 350 l 775 0 l 1137 0 l 787 562 l 1131 956 l 750 956 l 410 547 l 410 956 z "},"L":{"ha":926,"x_min":103,"x_max":900,"o":"m 900 0 l 900 244 l 410 244 l 410 956 l 103 956 l 103 0 l 900 0 z "},"Ĺ":{"ha":926,"x_min":103,"x_max":900,"o":"m 521 1223 l 518 1229 l 250 1229 l 122 1044 l 298 1044 l 521 1223 m 900 0 l 900 244 l 410 244 l 410 956 l 103 956 l 103 0 l 900 0 z "},"Ľ":{"ha":926,"x_min":103,"x_max":900,"o":"m 868 956 l 689 956 l 689 794 l 757 794 l 700 667 l 793 667 l 868 804 l 868 956 m 900 0 l 900 244 l 410 244 l 410 956 l 103 956 l 103 0 l 900 0 z "},"Ļ":{"ha":926,"x_min":103,"x_max":900,"o":"m 553 -82 l 374 -82 l 374 -243 l 441 -243 l 385 -371 l 478 -371 l 553 -233 l 553 -82 m 900 0 l 900 244 l 410 244 l 410 956 l 103 956 l 103 0 l 900 0 z "},"Ŀ":{"ha":926,"x_min":103,"x_max":900,"o":"m 806 730 l 539 730 l 539 476 l 806 476 l 806 730 m 900 0 l 900 244 l 410 244 l 410 956 l 103 956 l 103 0 l 900 0 z "},"Ł":{"ha":926,"x_min":0,"x_max":900,"o":"m 410 956 l 103 956 l 103 456 l 0 392 l 0 256 l 103 318 l 103 0 l 900 0 l 900 244 l 410 244 l 410 505 l 616 633 l 616 772 l 410 643 l 410 956 z "},"M":{"ha":1311,"x_min":83,"x_max":1227,"o":"m 1227 956 l 810 956 l 667 404 l 661 404 l 517 956 l 83 956 l 83 0 l 366 0 l 366 345 q 361 453 366 399 q 353 549 357 507 q 340 646 347 600 l 346 646 l 524 0 l 764 0 l 940 647 l 946 647 q 935 550 939 601 q 927 453 930 507 q 924 345 924 399 l 924 0 l 1227 0 l 1227 956 z "},"N":{"ha":1157,"x_min":103,"x_max":1054,"o":"m 1054 956 l 772 956 l 772 485 l 371 956 l 103 956 l 103 0 l 385 0 l 385 464 l 786 0 l 1054 0 l 1054 956 z "},"Ń":{"ha":1157,"x_min":103,"x_max":1054,"o":"m 1054 0 l 1054 956 l 772 956 l 772 485 l 371 956 l 103 956 l 103 0 l 385 0 l 385 464 l 786 0 l 1054 0 m 844 1224 l 841 1230 l 573 1230 l 445 1044 l 622 1044 l 844 1224 z "},"Ň":{"ha":1157,"x_min":103,"x_max":1054,"o":"m 1054 956 l 772 956 l 772 485 l 371 956 l 103 956 l 103 0 l 385 0 l 385 464 l 786 0 l 1054 0 l 1054 956 m 861 1230 l 680 1230 l 577 1122 l 474 1230 l 296 1230 l 490 1028 l 667 1028 l 861 1230 z "},"Ņ":{"ha":1157,"x_min":103,"x_max":1054,"o":"m 1054 956 l 772 956 l 772 485 l 371 956 l 103 956 l 103 0 l 385 0 l 385 464 l 786 0 l 1054 0 l 1054 956 m 669 -82 l 488 -82 l 488 -243 l 557 -243 l 500 -370 l 593 -370 l 669 -233 l 669 -82 z "},"Ñ":{"ha":1157,"x_min":103,"x_max":1054,"o":"m 1054 956 l 772 956 l 772 485 l 371 956 l 103 956 l 103 0 l 385 0 l 385 464 l 786 0 l 1054 0 l 1054 956 m 774 1230 q 749 1190 767 1206 q 705 1174 731 1174 q 648 1183 677 1174 q 590 1202 620 1192 q 529 1221 560 1212 q 465 1230 498 1230 q 385 1213 420 1230 q 323 1167 349 1196 q 284 1104 298 1139 q 270 1031 270 1068 l 382 1031 q 408 1070 390 1055 q 452 1086 426 1086 q 509 1078 480 1086 q 567 1059 537 1069 q 628 1040 597 1048 q 692 1031 659 1031 q 772 1048 736 1031 q 833 1093 808 1065 q 873 1156 859 1120 q 887 1230 887 1192 l 774 1230 z "},"O":{"ha":1157,"x_min":62,"x_max":1095,"o":"m 578 972 q 360 941 456 972 q 198 847 264 909 q 97 693 132 785 q 62 478 62 600 q 97 263 62 355 q 198 108 132 170 q 360 15 264 46 q 578 -17 456 -17 q 796 15 700 -17 q 959 108 892 46 q 1060 263 1025 170 q 1095 478 1095 355 q 1060 693 1095 600 q 959 847 1025 785 q 796 941 892 909 q 578 972 700 972 m 578 743 q 667 727 629 743 q 730 682 705 711 q 768 612 755 652 q 781 522 781 571 l 781 433 q 768 344 781 385 q 730 274 755 303 q 667 229 705 245 q 578 212 629 212 q 489 229 527 212 q 427 274 452 245 q 389 344 401 303 q 376 433 376 385 l 376 522 q 389 612 376 571 q 427 682 401 652 q 489 727 452 711 q 578 743 527 743 z "},"Œ":{"ha":1389,"x_min":49,"x_max":1352,"o":"m 688 0 l 688 86 q 575 9 640 36 q 429 -17 510 -17 q 267 16 338 -17 q 148 113 196 50 q 74 269 99 177 q 49 478 49 361 q 74 687 49 595 q 148 842 99 779 q 267 939 196 906 q 429 972 338 972 q 575 946 510 972 q 688 868 640 919 l 688 956 l 1341 956 l 1341 726 l 957 726 l 957 595 l 1267 595 l 1267 375 l 957 375 l 957 229 l 1352 229 l 1352 0 l 688 0 m 689 522 q 678 612 689 571 q 646 682 667 652 q 591 727 624 711 q 514 743 558 743 q 437 727 470 743 q 382 682 404 711 q 350 612 361 652 q 339 522 339 571 l 339 433 q 350 344 339 385 q 382 274 361 303 q 437 229 404 245 q 514 212 470 212 q 591 229 558 212 q 646 274 624 245 q 678 344 667 303 q 689 433 689 385 l 689 522 z "},"Ó":{"ha":1157,"x_min":62,"x_max":1095,"o":"m 578 972 q 360 941 456 972 q 198 847 264 909 q 97 693 132 785 q 62 478 62 600 q 97 263 62 355 q 198 108 132 170 q 360 15 264 46 q 578 -17 456 -17 q 796 15 700 -17 q 959 108 892 46 q 1060 263 1025 170 q 1095 478 1095 355 q 1060 693 1095 600 q 959 847 1025 785 q 796 941 892 909 q 578 972 700 972 m 578 743 q 667 727 629 743 q 730 682 705 711 q 768 612 755 652 q 781 522 781 571 l 781 433 q 768 344 781 385 q 730 274 755 303 q 667 229 705 245 q 578 212 629 212 q 489 229 527 212 q 427 274 452 245 q 389 344 401 303 q 376 433 376 385 l 376 522 q 389 612 376 571 q 427 682 401 652 q 489 727 452 711 q 578 743 527 743 m 844 1224 l 841 1230 l 573 1230 l 445 1044 l 622 1044 l 844 1224 z "},"Ŏ":{"ha":1157,"x_min":62,"x_max":1095,"o":"m 578 972 q 360 941 456 972 q 198 847 264 909 q 97 693 132 785 q 62 478 62 600 q 97 263 62 355 q 198 108 132 170 q 360 15 264 46 q 578 -17 456 -17 q 796 15 700 -17 q 959 108 892 46 q 1060 263 1025 170 q 1095 478 1095 355 q 1060 693 1095 600 q 959 847 1025 785 q 796 941 892 909 q 578 972 700 972 m 578 743 q 667 727 629 743 q 730 682 705 711 q 768 612 755 652 q 781 522 781 571 l 781 433 q 768 344 781 385 q 730 274 755 303 q 667 229 705 245 q 578 212 629 212 q 489 229 527 212 q 427 274 452 245 q 389 344 401 303 q 376 433 376 385 l 376 522 q 389 612 376 571 q 427 682 401 652 q 489 727 452 711 q 578 743 527 743 m 703 1230 q 690 1206 701 1219 q 664 1184 680 1194 q 626 1166 648 1173 q 578 1160 604 1160 q 531 1166 552 1160 q 493 1184 509 1173 q 468 1206 477 1194 q 456 1230 458 1219 l 322 1230 q 339 1159 322 1195 q 390 1095 357 1124 q 470 1048 423 1066 q 578 1029 517 1029 q 685 1048 637 1029 q 766 1095 732 1066 q 817 1159 799 1124 q 835 1230 835 1195 l 703 1230 z "},"Ô":{"ha":1157,"x_min":62,"x_max":1095,"o":"m 578 972 q 360 941 456 972 q 198 847 264 909 q 97 693 132 785 q 62 478 62 600 q 97 263 62 355 q 198 108 132 170 q 360 15 264 46 q 578 -17 456 -17 q 796 15 700 -17 q 959 108 892 46 q 1060 263 1025 170 q 1095 478 1095 355 q 1060 693 1095 600 q 959 847 1025 785 q 796 941 892 909 q 578 972 700 972 m 578 743 q 667 727 629 743 q 730 682 705 711 q 768 612 755 652 q 781 522 781 571 l 781 433 q 768 344 781 385 q 730 274 755 303 q 667 229 705 245 q 578 212 629 212 q 489 229 527 212 q 427 274 452 245 q 389 344 401 303 q 376 433 376 385 l 376 522 q 389 612 376 571 q 427 682 401 652 q 489 727 452 711 q 578 743 527 743 m 667 1230 l 490 1230 l 296 1028 l 474 1028 l 577 1135 l 680 1028 l 861 1028 l 667 1230 z "},"Ö":{"ha":1157,"x_min":62,"x_max":1095,"o":"m 578 972 q 360 941 456 972 q 198 847 264 909 q 97 693 132 785 q 62 478 62 600 q 97 263 62 355 q 198 108 132 170 q 360 15 264 46 q 578 -17 456 -17 q 796 15 700 -17 q 959 108 892 46 q 1060 263 1025 170 q 1095 478 1095 355 q 1060 693 1095 600 q 959 847 1025 785 q 796 941 892 909 q 578 972 700 972 m 578 743 q 667 727 629 743 q 730 682 705 711 q 768 612 755 652 q 781 522 781 571 l 781 433 q 768 344 781 385 q 730 274 755 303 q 667 229 705 245 q 578 212 629 212 q 489 229 527 212 q 427 274 452 245 q 389 344 401 303 q 376 433 376 385 l 376 522 q 389 612 376 571 q 427 682 401 652 q 489 727 452 711 q 578 743 527 743 m 837 1230 l 626 1230 l 626 1036 l 837 1036 l 837 1230 m 531 1230 l 320 1230 l 320 1036 l 531 1036 l 531 1230 z "},"Ò":{"ha":1157,"x_min":62,"x_max":1095,"o":"m 578 972 q 360 941 456 972 q 198 847 264 909 q 97 693 132 785 q 62 478 62 600 q 97 263 62 355 q 198 108 132 170 q 360 15 264 46 q 578 -17 456 -17 q 796 15 700 -17 q 959 108 892 46 q 1060 263 1025 170 q 1095 478 1095 355 q 1060 693 1095 600 q 959 847 1025 785 q 796 941 892 909 q 578 972 700 972 m 578 743 q 667 727 629 743 q 730 682 705 711 q 768 612 755 652 q 781 522 781 571 l 781 433 q 768 344 781 385 q 730 274 755 303 q 667 229 705 245 q 578 212 629 212 q 489 229 527 212 q 427 274 452 245 q 389 344 401 303 q 376 433 376 385 l 376 522 q 389 612 376 571 q 427 682 401 652 q 489 727 452 711 q 578 743 527 743 m 712 1044 l 584 1230 l 316 1230 l 313 1224 l 536 1044 l 712 1044 z "},"Ő":{"ha":1157,"x_min":62,"x_max":1095,"o":"m 578 972 q 360 941 456 972 q 198 847 264 909 q 97 693 132 785 q 62 478 62 600 q 97 263 62 355 q 198 108 132 170 q 360 15 264 46 q 578 -17 456 -17 q 796 15 700 -17 q 959 108 892 46 q 1060 263 1025 170 q 1095 478 1095 355 q 1060 693 1095 600 q 959 847 1025 785 q 796 941 892 909 q 578 972 700 972 m 578 743 q 667 727 629 743 q 730 682 705 711 q 768 612 755 652 q 781 522 781 571 l 781 433 q 768 344 781 385 q 730 274 755 303 q 667 229 705 245 q 578 212 629 212 q 489 229 527 212 q 427 274 452 245 q 389 344 401 303 q 376 433 376 385 l 376 522 q 389 612 376 571 q 427 682 401 652 q 489 727 452 711 q 578 743 527 743 m 694 1231 l 447 1231 l 341 1044 l 504 1044 l 697 1225 l 694 1231 m 987 1231 l 740 1231 l 635 1044 l 797 1044 l 990 1225 l 987 1231 z "},"Ō":{"ha":1157,"x_min":62,"x_max":1095,"o":"m 578 972 q 360 941 456 972 q 198 847 264 909 q 97 693 132 785 q 62 478 62 600 q 97 263 62 355 q 198 108 132 170 q 360 15 264 46 q 578 -17 456 -17 q 796 15 700 -17 q 959 108 892 46 q 1060 263 1025 170 q 1095 478 1095 355 q 1060 693 1095 600 q 959 847 1025 785 q 796 941 892 909 q 578 972 700 972 m 578 743 q 667 727 629 743 q 730 682 705 711 q 768 612 755 652 q 781 522 781 571 l 781 433 q 768 344 781 385 q 730 274 755 303 q 667 229 705 245 q 578 212 629 212 q 489 229 527 212 q 427 274 452 245 q 389 344 401 303 q 376 433 376 385 l 376 522 q 389 612 376 571 q 427 682 401 652 q 489 727 452 711 q 578 743 527 743 m 798 1202 l 359 1202 l 359 1063 l 798 1063 l 798 1202 z "},"Ø":{"ha":1157,"x_min":62,"x_max":1095,"o":"m 1082 1007 l 932 1007 l 859 916 q 730 958 800 944 q 578 972 661 972 q 360 941 456 972 q 198 847 264 909 q 97 693 132 785 q 62 478 62 600 q 98 260 62 353 q 200 106 133 168 l 75 -50 l 225 -50 l 297 39 q 425 -3 355 10 q 578 -17 495 -17 q 796 15 700 -17 q 959 108 892 46 q 1060 263 1025 170 q 1095 478 1095 355 q 1059 695 1095 602 q 954 850 1023 788 l 1082 1007 m 765 616 q 781 522 781 574 l 781 433 q 768 344 781 385 q 730 274 755 303 q 667 229 705 245 q 578 212 629 212 q 514 220 542 212 q 463 243 486 229 l 765 616 m 578 743 q 641 735 612 743 q 693 713 670 727 l 390 339 q 379 384 382 360 q 376 433 376 408 l 376 522 q 389 612 376 571 q 427 682 401 652 q 489 727 452 711 q 578 743 527 743 z "},"Ǿ":{"ha":1157,"x_min":62,"x_max":1095,"o":"m 1082 1007 l 932 1007 l 859 916 q 730 958 800 944 q 578 972 661 972 q 360 941 456 972 q 198 847 264 909 q 97 693 132 785 q 62 478 62 600 q 98 260 62 353 q 200 106 133 168 l 75 -50 l 225 -50 l 297 39 q 425 -3 355 10 q 578 -17 495 -17 q 796 15 700 -17 q 959 108 892 46 q 1060 263 1025 170 q 1095 478 1095 355 q 1059 695 1095 602 q 954 850 1023 788 l 1082 1007 m 765 616 q 781 522 781 574 l 781 433 q 768 344 781 385 q 730 274 755 303 q 667 229 705 245 q 578 212 629 212 q 514 220 542 212 q 463 243 486 229 l 765 616 m 578 743 q 641 735 612 743 q 693 713 670 727 l 390 339 q 379 384 382 360 q 376 433 376 408 l 376 522 q 389 612 376 571 q 427 682 401 652 q 489 727 452 711 q 578 743 527 743 m 844 1224 l 841 1230 l 573 1230 l 445 1044 l 622 1044 l 844 1224 z "},"Õ":{"ha":1157,"x_min":62,"x_max":1095,"o":"m 578 972 q 360 941 456 972 q 198 847 264 909 q 97 693 132 785 q 62 478 62 600 q 97 263 62 355 q 198 108 132 170 q 360 15 264 46 q 578 -17 456 -17 q 796 15 700 -17 q 959 108 892 46 q 1060 263 1025 170 q 1095 478 1095 355 q 1060 693 1095 600 q 959 847 1025 785 q 796 941 892 909 q 578 972 700 972 m 578 743 q 667 727 629 743 q 730 682 705 711 q 768 612 755 652 q 781 522 781 571 l 781 433 q 768 344 781 385 q 730 274 755 303 q 667 229 705 245 q 578 212 629 212 q 489 229 527 212 q 427 274 452 245 q 389 344 401 303 q 376 433 376 385 l 376 522 q 389 612 376 571 q 427 682 401 652 q 489 727 452 711 q 578 743 527 743 m 774 1230 q 749 1190 767 1206 q 705 1174 731 1174 q 648 1183 677 1174 q 590 1202 620 1192 q 529 1221 560 1212 q 465 1230 498 1230 q 385 1213 420 1230 q 323 1167 349 1196 q 284 1104 298 1139 q 270 1031 270 1068 l 382 1031 q 408 1070 390 1055 q 452 1086 426 1086 q 509 1078 480 1086 q 567 1059 537 1069 q 628 1040 597 1048 q 692 1031 659 1031 q 772 1048 736 1031 q 833 1093 808 1065 q 873 1156 859 1120 q 887 1230 887 1192 l 774 1230 z "},"P":{"ha":1003,"x_min":103,"x_max":945,"o":"m 103 956 l 103 0 l 410 0 l 410 309 l 639 309 q 763 332 707 309 q 860 398 819 356 q 922 498 900 441 q 945 624 945 556 l 945 642 q 922 767 945 709 q 860 866 900 824 q 763 932 819 908 q 639 956 707 956 l 103 956 m 536 729 q 610 704 587 729 q 633 636 633 679 l 633 625 q 609 557 633 583 q 536 532 585 532 l 410 532 l 410 729 l 536 729 z "},"Q":{"ha":1157,"x_min":62,"x_max":1095,"o":"m 62 478 q 97 693 62 600 q 198 847 132 785 q 360 941 264 909 q 578 972 456 972 q 796 941 700 972 q 959 847 892 909 q 1060 693 1025 785 q 1095 478 1095 600 q 1034 205 1095 315 q 859 39 972 96 l 1076 -182 l 711 -182 l 564 -17 q 351 17 444 -15 q 194 112 258 50 q 96 265 130 174 q 62 478 62 357 m 781 522 q 768 612 781 571 q 730 682 755 652 q 667 727 705 711 q 578 743 629 743 q 489 727 527 743 q 427 682 452 711 q 389 612 401 652 q 376 522 376 571 l 376 433 q 389 344 376 385 q 427 274 401 303 q 489 229 452 245 q 578 212 527 212 q 667 229 629 212 q 730 274 705 245 q 768 344 755 303 q 781 433 781 385 l 781 522 z "},"R":{"ha":1080,"x_min":103,"x_max":1038,"o":"m 1010 663 q 989 774 1010 721 q 928 867 969 827 q 827 931 888 907 q 688 956 767 956 l 103 956 l 103 0 l 410 0 l 410 349 l 524 349 l 693 0 l 1038 0 l 825 400 q 906 445 871 417 q 964 507 941 472 q 998 581 987 541 q 1010 663 1010 621 m 697 650 q 690 614 697 631 q 672 586 684 598 q 644 568 660 574 q 611 561 629 561 l 410 561 l 410 737 l 611 737 q 644 731 629 737 q 672 713 660 724 q 690 685 684 701 q 697 650 697 669 z "},"Ŕ":{"ha":1080,"x_min":103,"x_max":1038,"o":"m 790 1223 l 787 1229 l 519 1229 l 392 1044 l 568 1044 l 790 1223 m 1010 663 q 989 774 1010 721 q 928 867 969 827 q 827 931 888 907 q 688 956 767 956 l 103 956 l 103 0 l 410 0 l 410 349 l 524 349 l 693 0 l 1038 0 l 825 400 q 906 445 871 417 q 964 507 941 472 q 998 581 987 541 q 1010 663 1010 621 m 697 650 q 690 614 697 631 q 672 586 684 598 q 644 568 660 574 q 611 561 629 561 l 410 561 l 410 737 l 611 737 q 644 731 629 737 q 672 713 660 724 q 690 685 684 701 q 697 650 697 669 z "},"Ř":{"ha":1080,"x_min":103,"x_max":1038,"o":"m 822 1229 l 642 1229 l 539 1122 l 436 1229 l 258 1229 l 452 1028 l 629 1028 l 822 1229 m 1010 663 q 989 774 1010 721 q 928 867 969 827 q 827 931 888 907 q 688 956 767 956 l 103 956 l 103 0 l 410 0 l 410 349 l 524 349 l 693 0 l 1038 0 l 825 400 q 906 445 871 417 q 964 507 941 472 q 998 581 987 541 q 1010 663 1010 621 m 697 650 q 690 614 697 631 q 672 586 684 598 q 644 568 660 574 q 611 561 629 561 l 410 561 l 410 737 l 611 737 q 644 731 629 737 q 672 713 660 724 q 690 685 684 701 q 697 650 697 669 z "},"Ŗ":{"ha":1080,"x_min":103,"x_max":1038,"o":"m 631 -82 l 450 -82 l 450 -243 l 519 -243 l 463 -371 l 555 -371 l 631 -233 l 631 -82 m 1010 663 q 989 774 1010 721 q 928 867 969 827 q 827 931 888 907 q 688 956 767 956 l 103 956 l 103 0 l 410 0 l 410 349 l 524 349 l 693 0 l 1038 0 l 825 400 q 906 445 871 417 q 964 507 941 472 q 998 581 987 541 q 1010 663 1010 621 m 697 650 q 690 614 697 631 q 672 586 684 598 q 644 568 660 574 q 611 561 629 561 l 410 561 l 410 737 l 611 737 q 644 731 629 737 q 672 713 660 724 q 690 685 684 701 q 697 650 697 669 z "},"S":{"ha":1003,"x_min":60,"x_max":953,"o":"m 504 972 q 341 956 419 972 q 205 903 264 939 q 111 808 146 867 q 75 667 75 750 q 99 548 75 597 q 163 467 123 500 q 254 413 203 433 q 357 378 304 392 q 460 355 410 365 q 551 335 511 346 q 615 308 591 323 q 639 267 639 292 q 626 231 639 244 q 592 212 612 218 q 549 204 572 206 q 504 203 525 203 q 440 207 469 203 q 392 225 412 212 q 361 261 372 238 q 350 323 350 285 l 60 323 q 96 156 60 222 q 195 51 132 90 q 345 -2 258 13 q 532 -17 431 -17 q 699 2 622 -17 q 832 61 776 20 q 921 164 889 101 q 953 317 953 228 q 927 429 951 383 q 862 506 902 475 q 771 556 822 537 q 668 588 721 575 q 566 610 616 601 q 476 630 515 619 q 413 658 437 642 q 389 701 389 674 q 420 745 389 726 q 515 764 452 764 q 572 755 549 764 q 610 734 595 747 q 632 703 625 720 q 639 667 639 686 l 639 661 l 926 661 l 926 677 q 891 810 925 754 q 800 902 857 865 q 666 955 743 938 q 504 972 590 972 z "},"Ś":{"ha":1003,"x_min":60,"x_max":953,"o":"m 504 972 q 341 956 419 972 q 205 903 264 939 q 111 808 146 867 q 75 667 75 750 q 99 548 75 597 q 163 467 123 500 q 254 413 203 433 q 357 378 304 392 q 460 355 410 365 q 551 335 511 346 q 615 308 591 323 q 639 267 639 292 q 626 231 639 244 q 592 212 612 218 q 549 204 572 206 q 504 203 525 203 q 440 207 469 203 q 392 225 412 212 q 361 261 372 238 q 350 323 350 285 l 60 323 q 96 156 60 222 q 195 51 132 90 q 345 -2 258 13 q 532 -17 431 -17 q 699 2 622 -17 q 832 61 776 20 q 921 164 889 101 q 953 317 953 228 q 927 429 951 383 q 862 506 902 475 q 771 556 822 537 q 668 588 721 575 q 566 610 616 601 q 476 630 515 619 q 413 658 437 642 q 389 701 389 674 q 420 745 389 726 q 515 764 452 764 q 572 755 549 764 q 610 734 595 747 q 632 703 625 720 q 639 667 639 686 l 639 661 l 926 661 l 926 677 q 891 810 925 754 q 800 902 857 865 q 666 955 743 938 q 504 972 590 972 m 767 1224 l 764 1230 l 496 1230 l 368 1044 l 545 1044 l 767 1224 z "},"Š":{"ha":1003,"x_min":60,"x_max":953,"o":"m 504 972 q 341 956 419 972 q 205 903 264 939 q 111 808 146 867 q 75 667 75 750 q 99 548 75 597 q 163 467 123 500 q 254 413 203 433 q 357 378 304 392 q 460 355 410 365 q 551 335 511 346 q 615 308 591 323 q 639 267 639 292 q 626 231 639 244 q 592 212 612 218 q 549 204 572 206 q 504 203 525 203 q 440 207 469 203 q 392 225 412 212 q 361 261 372 238 q 350 323 350 285 l 60 323 q 96 156 60 222 q 195 51 132 90 q 345 -2 258 13 q 532 -17 431 -17 q 699 2 622 -17 q 832 61 776 20 q 921 164 889 101 q 953 317 953 228 q 927 429 951 383 q 862 506 902 475 q 771 556 822 537 q 668 588 721 575 q 566 610 616 601 q 476 630 515 619 q 413 658 437 642 q 389 701 389 674 q 420 745 389 726 q 515 764 452 764 q 572 755 549 764 q 610 734 595 747 q 632 703 625 720 q 639 667 639 686 l 639 661 l 926 661 l 926 677 q 891 810 925 754 q 800 902 857 865 q 666 955 743 938 q 504 972 590 972 m 784 1230 l 604 1230 l 500 1122 l 397 1230 l 220 1230 l 413 1028 l 591 1028 l 784 1230 z "},"Ş":{"ha":1003,"x_min":60,"x_max":953,"o":"m 504 972 q 341 956 419 972 q 205 903 264 939 q 111 808 146 867 q 75 667 75 750 q 99 548 75 597 q 163 467 123 500 q 254 413 203 433 q 357 378 304 392 q 460 355 410 365 q 551 335 511 346 q 615 308 591 323 q 639 267 639 292 q 626 231 639 244 q 592 212 612 218 q 549 204 572 206 q 504 203 525 203 q 440 207 469 203 q 392 225 412 212 q 361 261 372 238 q 350 323 350 285 l 60 323 q 90 168 60 231 q 173 66 119 105 q 300 8 227 27 q 460 -15 374 -10 l 445 -119 l 498 -119 q 539 -131 528 -119 q 551 -164 551 -143 q 535 -197 551 -188 q 495 -207 520 -207 q 439 -205 467 -207 q 387 -201 410 -203 q 332 -196 359 -199 l 332 -271 q 368 -280 347 -276 q 411 -287 388 -284 q 459 -292 434 -290 q 507 -293 484 -293 q 560 -288 532 -293 q 613 -268 589 -282 q 655 -229 638 -254 q 671 -164 671 -203 q 661 -109 671 -132 q 632 -73 650 -87 q 591 -51 614 -58 q 543 -40 568 -43 l 546 -16 q 708 4 633 -15 q 837 64 783 24 q 922 167 891 104 q 953 317 953 229 q 927 429 951 383 q 862 506 902 475 q 771 556 822 537 q 668 588 721 575 q 566 610 616 601 q 476 630 515 619 q 413 658 437 642 q 389 701 389 674 q 420 745 389 726 q 515 764 452 764 q 572 755 549 764 q 610 734 595 747 q 632 703 625 720 q 639 667 639 686 l 639 661 l 926 661 l 926 677 q 891 810 925 754 q 800 902 857 865 q 666 955 743 938 q 504 972 590 972 z "},"Ŝ":{"ha":1003,"x_min":60,"x_max":953,"o":"m 504 972 q 341 956 419 972 q 205 903 264 939 q 111 808 146 867 q 75 667 75 750 q 99 548 75 597 q 163 467 123 500 q 254 413 203 433 q 357 378 304 392 q 460 355 410 365 q 551 335 511 346 q 615 308 591 323 q 639 267 639 292 q 626 231 639 244 q 592 212 612 218 q 549 204 572 206 q 504 203 525 203 q 440 207 469 203 q 392 225 412 212 q 361 261 372 238 q 350 323 350 285 l 60 323 q 96 156 60 222 q 195 51 132 90 q 345 -2 258 13 q 532 -17 431 -17 q 699 2 622 -17 q 832 61 776 20 q 921 164 889 101 q 953 317 953 228 q 927 429 951 383 q 862 506 902 475 q 771 556 822 537 q 668 588 721 575 q 566 610 616 601 q 476 630 515 619 q 413 658 437 642 q 389 701 389 674 q 420 745 389 726 q 515 764 452 764 q 572 755 549 764 q 610 734 595 747 q 632 703 625 720 q 639 667 639 686 l 639 661 l 926 661 l 926 677 q 891 810 925 754 q 800 902 857 865 q 666 955 743 938 q 504 972 590 972 m 591 1230 l 413 1230 l 220 1028 l 397 1028 l 500 1135 l 604 1028 l 784 1028 l 591 1230 z "},"T":{"ha":1003,"x_min":32,"x_max":965,"o":"m 965 956 l 32 956 l 32 711 l 346 711 l 346 0 l 653 0 l 653 711 l 965 711 l 965 956 z "},"Ŧ":{"ha":1003,"x_min":32,"x_max":965,"o":"m 878 512 l 653 512 l 653 711 l 965 711 l 965 956 l 32 956 l 32 711 l 346 711 l 346 512 l 119 512 l 119 373 l 346 373 l 346 0 l 653 0 l 653 373 l 878 373 l 878 512 z "},"Ť":{"ha":1003,"x_min":32,"x_max":965,"o":"m 965 956 l 32 956 l 32 711 l 346 711 l 346 0 l 653 0 l 653 711 l 965 711 l 965 956 m 784 1230 l 604 1230 l 500 1122 l 397 1230 l 220 1230 l 413 1028 l 591 1028 l 784 1230 z "},"Ţ":{"ha":1003,"x_min":32,"x_max":965,"o":"m 965 956 l 32 956 l 32 711 l 346 711 l 346 0 l 653 0 l 653 711 l 965 711 l 965 956 m 592 -82 l 412 -82 l 412 -243 l 481 -243 l 424 -370 l 517 -370 l 592 -233 l 592 -82 z "},"Þ":{"ha":1003,"x_min":103,"x_max":945,"o":"m 410 956 l 103 956 l 103 0 l 410 0 l 410 170 l 639 170 q 763 193 707 170 q 860 259 819 217 q 922 359 900 302 q 945 485 945 417 l 945 503 q 922 628 945 570 q 860 727 900 686 q 763 793 819 769 q 639 817 707 817 l 410 817 l 410 956 m 536 590 q 610 565 587 590 q 633 497 633 540 l 633 486 q 609 418 633 444 q 536 393 585 393 l 410 393 l 410 590 l 536 590 z "},"U":{"ha":1157,"x_min":103,"x_max":1054,"o":"m 1054 956 l 747 956 l 747 389 q 737 318 747 350 q 705 262 726 286 q 652 225 684 239 q 578 212 620 212 q 504 225 536 212 q 452 262 473 239 q 420 318 431 286 q 410 389 410 350 l 410 956 l 103 956 l 103 385 q 135 211 103 286 q 229 85 168 136 q 378 9 290 35 q 579 -17 467 -17 q 780 9 692 -17 q 929 85 868 35 q 1022 211 990 136 q 1054 385 1054 286 l 1054 956 z "},"Ú":{"ha":1157,"x_min":103,"x_max":1054,"o":"m 1054 956 l 747 956 l 747 389 q 737 318 747 350 q 705 262 726 286 q 652 225 684 239 q 578 212 620 212 q 504 225 536 212 q 452 262 473 239 q 420 318 431 286 q 410 389 410 350 l 410 956 l 103 956 l 103 385 q 135 211 103 286 q 229 85 168 136 q 378 9 290 35 q 579 -17 467 -17 q 780 9 692 -17 q 929 85 868 35 q 1022 211 990 136 q 1054 385 1054 286 l 1054 956 m 844 1224 l 841 1230 l 573 1230 l 445 1044 l 622 1044 l 844 1224 z "},"Ŭ":{"ha":1157,"x_min":103,"x_max":1054,"o":"m 1054 956 l 747 956 l 747 389 q 737 318 747 350 q 705 262 726 286 q 652 225 684 239 q 578 212 620 212 q 504 225 536 212 q 452 262 473 239 q 420 318 431 286 q 410 389 410 350 l 410 956 l 103 956 l 103 385 q 135 211 103 286 q 229 85 168 136 q 378 9 290 35 q 579 -17 467 -17 q 780 9 692 -17 q 929 85 868 35 q 1022 211 990 136 q 1054 385 1054 286 l 1054 956 m 703 1230 q 690 1206 701 1219 q 664 1184 680 1194 q 626 1166 648 1173 q 578 1160 604 1160 q 531 1166 552 1160 q 493 1184 509 1173 q 468 1206 477 1194 q 456 1230 458 1219 l 322 1230 q 339 1159 322 1195 q 390 1095 357 1124 q 470 1048 423 1066 q 578 1029 517 1029 q 685 1048 637 1029 q 766 1095 732 1066 q 817 1159 799 1124 q 835 1230 835 1195 l 703 1230 z "},"Û":{"ha":1157,"x_min":103,"x_max":1054,"o":"m 1054 956 l 747 956 l 747 389 q 737 318 747 350 q 705 262 726 286 q 652 225 684 239 q 578 212 620 212 q 504 225 536 212 q 452 262 473 239 q 420 318 431 286 q 410 389 410 350 l 410 956 l 103 956 l 103 385 q 135 211 103 286 q 229 85 168 136 q 378 9 290 35 q 579 -17 467 -17 q 780 9 692 -17 q 929 85 868 35 q 1022 211 990 136 q 1054 385 1054 286 l 1054 956 m 667 1230 l 490 1230 l 296 1028 l 474 1028 l 577 1135 l 680 1028 l 861 1028 l 667 1230 z "},"Ü":{"ha":1157,"x_min":103,"x_max":1054,"o":"m 1054 956 l 747 956 l 747 389 q 737 318 747 350 q 705 262 726 286 q 652 225 684 239 q 578 212 620 212 q 504 225 536 212 q 452 262 473 239 q 420 318 431 286 q 410 389 410 350 l 410 956 l 103 956 l 103 385 q 135 211 103 286 q 229 85 168 136 q 378 9 290 35 q 579 -17 467 -17 q 780 9 692 -17 q 929 85 868 35 q 1022 211 990 136 q 1054 385 1054 286 l 1054 956 m 837 1230 l 626 1230 l 626 1036 l 837 1036 l 837 1230 m 531 1230 l 320 1230 l 320 1036 l 531 1036 l 531 1230 z "},"Ù":{"ha":1157,"x_min":103,"x_max":1054,"o":"m 1054 956 l 747 956 l 747 389 q 737 318 747 350 q 705 262 726 286 q 652 225 684 239 q 578 212 620 212 q 504 225 536 212 q 452 262 473 239 q 420 318 431 286 q 410 389 410 350 l 410 956 l 103 956 l 103 385 q 135 211 103 286 q 229 85 168 136 q 378 9 290 35 q 579 -17 467 -17 q 780 9 692 -17 q 929 85 868 35 q 1022 211 990 136 q 1054 385 1054 286 l 1054 956 m 712 1044 l 584 1230 l 316 1230 l 313 1224 l 536 1044 l 712 1044 z "},"Ű":{"ha":1157,"x_min":103,"x_max":1054,"o":"m 1054 956 l 747 956 l 747 389 q 737 318 747 350 q 705 262 726 286 q 652 225 684 239 q 578 212 620 212 q 504 225 536 212 q 452 262 473 239 q 420 318 431 286 q 410 389 410 350 l 410 956 l 103 956 l 103 385 q 135 211 103 286 q 229 85 168 136 q 378 9 290 35 q 579 -17 467 -17 q 780 9 692 -17 q 929 85 868 35 q 1022 211 990 136 q 1054 385 1054 286 l 1054 956 m 694 1231 l 447 1231 l 341 1044 l 504 1044 l 697 1225 l 694 1231 m 987 1231 l 740 1231 l 635 1044 l 797 1044 l 990 1225 l 987 1231 z "},"Ū":{"ha":1157,"x_min":103,"x_max":1054,"o":"m 1054 956 l 747 956 l 747 389 q 737 318 747 350 q 705 262 726 286 q 652 225 684 239 q 578 212 620 212 q 504 225 536 212 q 452 262 473 239 q 420 318 431 286 q 410 389 410 350 l 410 956 l 103 956 l 103 385 q 135 211 103 286 q 229 85 168 136 q 378 9 290 35 q 579 -17 467 -17 q 780 9 692 -17 q 929 85 868 35 q 1022 211 990 136 q 1054 385 1054 286 l 1054 956 m 798 1202 l 359 1202 l 359 1063 l 798 1063 l 798 1202 z "},"Ų":{"ha":1157,"x_min":103,"x_max":1054,"o":"m 1054 956 l 747 956 l 747 389 q 737 318 747 350 q 705 262 726 286 q 652 225 684 239 q 578 212 620 212 q 504 225 536 212 q 452 262 473 239 q 420 318 431 286 q 410 389 410 350 l 410 956 l 103 956 l 103 385 q 135 211 103 286 q 229 85 168 136 q 378 9 290 35 q 579 -17 467 -17 q 633 -15 606 -17 q 602 -67 615 -39 q 589 -135 589 -96 q 604 -208 589 -178 q 643 -257 618 -238 q 699 -284 667 -275 q 764 -293 730 -293 q 897 -272 834 -293 l 897 -167 l 839 -167 q 799 -161 815 -167 q 774 -145 783 -155 q 760 -122 764 -135 q 755 -96 755 -109 q 758 -65 755 -81 q 765 -35 761 -50 q 774 -9 769 -21 q 783 9 779 2 q 983 142 913 48 q 1054 385 1054 237 l 1054 956 z "},"Ů":{"ha":1157,"x_min":103,"x_max":1054,"o":"m 1054 956 l 747 956 l 747 389 q 737 318 747 350 q 705 262 726 286 q 652 225 684 239 q 578 212 620 212 q 504 225 536 212 q 452 262 473 239 q 420 318 431 286 q 410 389 410 350 l 410 956 l 103 956 l 103 385 q 135 211 103 286 q 229 85 168 136 q 378 9 290 35 q 579 -17 467 -17 q 780 9 692 -17 q 929 85 868 35 q 1022 211 990 136 q 1054 385 1054 286 l 1054 956 m 578 1325 q 520 1313 547 1325 q 472 1281 492 1301 q 439 1233 451 1260 q 427 1174 427 1205 q 439 1115 427 1143 q 472 1067 452 1088 q 520 1036 493 1047 q 578 1024 548 1024 q 637 1036 610 1024 q 685 1068 665 1048 q 718 1116 706 1088 q 730 1174 730 1143 q 718 1233 730 1206 q 685 1281 705 1261 q 636 1313 664 1301 q 578 1325 609 1325 m 578 1230 q 618 1214 602 1230 q 634 1175 634 1199 q 619 1134 634 1150 q 578 1118 604 1118 q 539 1134 555 1118 q 523 1173 523 1149 q 538 1214 523 1198 q 578 1230 553 1230 z "},"Ũ":{"ha":1157,"x_min":103,"x_max":1054,"o":"m 1054 956 l 747 956 l 747 389 q 737 318 747 350 q 705 262 726 286 q 652 225 684 239 q 578 212 620 212 q 504 225 536 212 q 452 262 473 239 q 420 318 431 286 q 410 389 410 350 l 410 956 l 103 956 l 103 385 q 135 211 103 286 q 229 85 168 136 q 378 9 290 35 q 579 -17 467 -17 q 780 9 692 -17 q 929 85 868 35 q 1022 211 990 136 q 1054 385 1054 286 l 1054 956 m 774 1230 q 749 1190 767 1206 q 705 1174 731 1174 q 648 1183 677 1174 q 590 1202 620 1192 q 529 1221 560 1212 q 465 1230 498 1230 q 385 1213 420 1230 q 323 1167 349 1196 q 284 1104 298 1139 q 270 1031 270 1068 l 382 1031 q 408 1070 390 1055 q 452 1086 426 1086 q 509 1078 480 1086 q 567 1059 537 1069 q 628 1040 597 1048 q 692 1031 659 1031 q 772 1048 736 1031 q 833 1093 808 1065 q 873 1156 859 1120 q 887 1230 887 1192 l 774 1230 z "},"V":{"ha":1080,"x_min":24,"x_max":1055,"o":"m 1055 956 l 742 956 l 549 317 l 543 317 l 351 956 l 24 956 l 363 0 l 718 0 l 1055 956 z "},"W":{"ha":1389,"x_min":7,"x_max":1382,"o":"m 1382 956 l 1076 956 l 974 414 l 968 414 l 852 956 l 550 956 l 441 414 l 436 414 l 326 956 l 7 956 l 231 0 l 568 0 l 692 582 l 697 582 l 821 0 l 1158 0 l 1382 956 z "},"Ẃ":{"ha":1389,"x_min":7,"x_max":1382,"o":"m 1158 0 l 1382 956 l 1076 956 l 974 414 l 968 414 l 852 956 l 550 956 l 441 414 l 436 414 l 326 956 l 7 956 l 231 0 l 568 0 l 692 582 l 697 582 l 821 0 l 1158 0 m 960 1224 l 957 1230 l 689 1230 l 561 1044 l 738 1044 l 960 1224 z "},"Ŵ":{"ha":1389,"x_min":7,"x_max":1382,"o":"m 1382 956 l 1076 956 l 974 414 l 968 414 l 852 956 l 550 956 l 441 414 l 436 414 l 326 956 l 7 956 l 231 0 l 568 0 l 692 582 l 697 582 l 821 0 l 1158 0 l 1382 956 m 783 1230 l 606 1230 l 412 1028 l 590 1028 l 693 1135 l 796 1028 l 977 1028 l 783 1230 z "},"Ẅ":{"ha":1389,"x_min":7,"x_max":1382,"o":"m 1382 956 l 1076 956 l 974 414 l 968 414 l 852 956 l 550 956 l 441 414 l 436 414 l 326 956 l 7 956 l 231 0 l 568 0 l 692 582 l 697 582 l 821 0 l 1158 0 l 1382 956 m 953 1230 l 742 1230 l 742 1036 l 953 1036 l 953 1230 m 647 1230 l 436 1230 l 436 1036 l 647 1036 l 647 1230 z "},"Ẁ":{"ha":1389,"x_min":7,"x_max":1382,"o":"m 1158 0 l 1382 956 l 1076 956 l 974 414 l 968 414 l 852 956 l 550 956 l 441 414 l 436 414 l 326 956 l 7 956 l 231 0 l 568 0 l 692 582 l 697 582 l 821 0 l 1158 0 m 828 1044 l 700 1230 l 432 1230 l 429 1224 l 652 1044 l 828 1044 z "},"X":{"ha":1080,"x_min":5,"x_max":1080,"o":"m 1048 956 l 705 956 l 559 711 l 554 711 l 410 956 l 39 956 l 347 505 l 5 0 l 350 0 l 526 297 l 532 297 l 708 0 l 1080 0 l 739 504 l 1048 956 z "},"Y":{"ha":1080,"x_min":9,"x_max":1069,"o":"m 1069 956 l 734 956 l 551 637 l 546 637 l 363 956 l 9 956 l 389 371 l 389 0 l 696 0 l 696 371 l 1069 956 z "},"Ý":{"ha":1080,"x_min":9,"x_max":1069,"o":"m 696 371 l 1069 956 l 734 956 l 551 637 l 546 637 l 363 956 l 9 956 l 389 371 l 389 0 l 696 0 l 696 371 m 806 1224 l 803 1230 l 535 1230 l 407 1044 l 584 1044 l 806 1224 z "},"Ŷ":{"ha":1080,"x_min":9,"x_max":1069,"o":"m 1069 956 l 734 956 l 551 637 l 546 637 l 363 956 l 9 956 l 389 371 l 389 0 l 696 0 l 696 371 l 1069 956 m 629 1230 l 452 1230 l 258 1028 l 436 1028 l 539 1135 l 642 1028 l 823 1028 l 629 1230 z "},"Ÿ":{"ha":1080,"x_min":9,"x_max":1069,"o":"m 1069 956 l 734 956 l 551 637 l 546 637 l 363 956 l 9 956 l 389 371 l 389 0 l 696 0 l 696 371 l 1069 956 m 799 1230 l 588 1230 l 588 1036 l 799 1036 l 799 1230 m 493 1230 l 282 1230 l 282 1036 l 493 1036 l 493 1230 z "},"Ỳ":{"ha":1080,"x_min":9,"x_max":1069,"o":"m 696 371 l 1069 956 l 734 956 l 551 637 l 546 637 l 363 956 l 9 956 l 389 371 l 389 0 l 696 0 l 696 371 m 674 1044 l 546 1230 l 278 1230 l 275 1224 l 498 1044 l 674 1044 z "},"Z":{"ha":1003,"x_min":33,"x_max":960,"o":"m 949 956 l 66 956 l 66 726 l 476 726 l 33 98 l 33 0 l 960 0 l 960 229 l 505 229 l 949 857 l 949 956 z "},"Ź":{"ha":1003,"x_min":33,"x_max":960,"o":"m 949 857 l 949 956 l 66 956 l 66 726 l 476 726 l 33 98 l 33 0 l 960 0 l 960 229 l 505 229 l 949 857 m 767 1224 l 764 1230 l 496 1230 l 368 1044 l 545 1044 l 767 1224 z "},"Ž":{"ha":1003,"x_min":33,"x_max":960,"o":"m 949 956 l 66 956 l 66 726 l 476 726 l 33 98 l 33 0 l 960 0 l 960 229 l 505 229 l 949 857 l 949 956 m 784 1230 l 604 1230 l 500 1122 l 397 1230 l 220 1230 l 413 1028 l 591 1028 l 784 1230 z "},"Ż":{"ha":1003,"x_min":33,"x_max":960,"o":"m 949 956 l 66 956 l 66 726 l 476 726 l 33 98 l 33 0 l 960 0 l 960 229 l 505 229 l 949 857 l 949 956 m 608 1230 l 396 1230 l 396 1036 l 608 1036 l 608 1230 z "},"a":{"ha":926,"x_min":41,"x_max":920,"o":"m 446 750 q 280 734 351 750 q 160 688 208 718 q 87 616 111 658 q 62 524 62 574 q 62 514 62 518 q 64 504 62 509 l 336 504 l 336 510 q 346 541 336 528 q 371 560 355 553 q 405 571 386 568 q 441 574 423 574 q 484 568 464 574 q 517 552 503 563 q 540 525 532 542 q 549 486 549 509 l 549 450 q 334 440 429 450 q 175 402 240 431 q 76 322 110 374 q 41 189 41 271 q 60 92 41 132 q 113 28 79 53 q 195 -6 147 4 q 300 -17 243 -17 q 388 -9 348 -17 q 460 11 427 -2 q 521 40 494 24 q 571 75 548 57 q 641 8 590 33 q 775 -17 691 -17 q 837 -13 810 -17 q 882 -3 864 -9 q 920 11 904 3 l 920 171 l 869 171 q 836 186 846 171 q 825 225 825 202 l 825 511 q 794 625 825 579 q 711 699 764 671 q 590 738 659 726 q 446 750 521 750 m 549 257 q 537 216 549 235 q 507 184 526 197 q 464 163 488 170 q 412 155 439 155 q 378 158 395 155 q 348 169 361 161 q 326 190 334 176 q 318 225 318 203 q 331 263 318 245 q 372 293 344 280 q 443 312 399 305 q 549 319 487 319 l 549 257 z "},"á":{"ha":926,"x_min":41,"x_max":920,"o":"m 446 750 q 280 734 351 750 q 160 688 208 718 q 87 616 111 658 q 62 524 62 574 q 62 514 62 518 q 64 504 62 509 l 336 504 l 336 510 q 346 541 336 528 q 371 560 355 553 q 405 571 386 568 q 441 574 423 574 q 484 568 464 574 q 517 552 503 563 q 540 525 532 542 q 549 486 549 509 l 549 450 q 334 440 429 450 q 175 402 240 431 q 76 322 110 374 q 41 189 41 271 q 60 92 41 132 q 113 28 79 53 q 195 -6 147 4 q 300 -17 243 -17 q 388 -9 348 -17 q 460 11 427 -2 q 521 40 494 24 q 571 75 548 57 q 641 8 590 33 q 775 -17 691 -17 q 837 -13 810 -17 q 882 -3 864 -9 q 920 11 904 3 l 920 171 l 869 171 q 836 186 846 171 q 825 225 825 202 l 825 511 q 794 625 825 579 q 711 699 764 671 q 590 738 659 726 q 446 750 521 750 m 549 257 q 537 216 549 235 q 507 184 526 197 q 464 163 488 170 q 412 155 439 155 q 378 158 395 155 q 348 169 361 161 q 326 190 334 176 q 318 225 318 203 q 331 263 318 245 q 372 293 344 280 q 443 312 399 305 q 549 319 487 319 l 549 257 m 711 1002 l 709 1007 l 441 1007 l 313 822 l 490 822 l 711 1002 z "},"ă":{"ha":926,"x_min":41,"x_max":920,"o":"m 446 750 q 280 734 351 750 q 160 688 208 718 q 87 616 111 658 q 62 524 62 574 q 62 514 62 518 q 64 504 62 509 l 336 504 l 336 510 q 346 541 336 528 q 371 560 355 553 q 405 571 386 568 q 441 574 423 574 q 484 568 464 574 q 517 552 503 563 q 540 525 532 542 q 549 486 549 509 l 549 450 q 334 440 429 450 q 175 402 240 431 q 76 322 110 374 q 41 189 41 271 q 60 92 41 132 q 113 28 79 53 q 195 -6 147 4 q 300 -17 243 -17 q 388 -9 348 -17 q 460 11 427 -2 q 521 40 494 24 q 571 75 548 57 q 641 8 590 33 q 775 -17 691 -17 q 837 -13 810 -17 q 882 -3 864 -9 q 920 11 904 3 l 920 171 l 869 171 q 836 186 846 171 q 825 225 825 202 l 825 511 q 794 625 825 579 q 711 699 764 671 q 590 738 659 726 q 446 750 521 750 m 549 257 q 537 216 549 235 q 507 184 526 197 q 464 163 488 170 q 412 155 439 155 q 378 158 395 155 q 348 169 361 161 q 326 190 334 176 q 318 225 318 203 q 331 263 318 245 q 372 293 344 280 q 443 312 399 305 q 549 319 487 319 l 549 257 m 587 1007 q 575 984 585 996 q 549 961 565 972 q 510 944 532 951 q 463 937 488 937 q 415 944 437 937 q 378 961 394 951 q 352 984 362 972 q 340 1007 342 996 l 207 1007 q 224 937 207 972 q 275 872 241 901 q 355 825 308 844 q 463 807 402 807 q 569 825 522 807 q 650 872 617 844 q 702 937 684 901 q 720 1007 720 972 l 587 1007 z "},"â":{"ha":926,"x_min":41,"x_max":920,"o":"m 446 750 q 280 734 351 750 q 160 688 208 718 q 87 616 111 658 q 62 524 62 574 q 62 514 62 518 q 64 504 62 509 l 336 504 l 336 510 q 346 541 336 528 q 371 560 355 553 q 405 571 386 568 q 441 574 423 574 q 484 568 464 574 q 517 552 503 563 q 540 525 532 542 q 549 486 549 509 l 549 450 q 334 440 429 450 q 175 402 240 431 q 76 322 110 374 q 41 189 41 271 q 60 92 41 132 q 113 28 79 53 q 195 -6 147 4 q 300 -17 243 -17 q 388 -9 348 -17 q 460 11 427 -2 q 521 40 494 24 q 571 75 548 57 q 641 8 590 33 q 775 -17 691 -17 q 837 -13 810 -17 q 882 -3 864 -9 q 920 11 904 3 l 920 171 l 869 171 q 836 186 846 171 q 825 225 825 202 l 825 511 q 794 625 825 579 q 711 699 764 671 q 590 738 659 726 q 446 750 521 750 m 549 257 q 537 216 549 235 q 507 184 526 197 q 464 163 488 170 q 412 155 439 155 q 378 158 395 155 q 348 169 361 161 q 326 190 334 176 q 318 225 318 203 q 331 263 318 245 q 372 293 344 280 q 443 312 399 305 q 549 319 487 319 l 549 257 m 552 1007 l 374 1007 l 181 806 l 359 806 l 462 913 l 565 806 l 745 806 l 552 1007 z "},"ä":{"ha":926,"x_min":41,"x_max":920,"o":"m 446 750 q 280 734 351 750 q 160 688 208 718 q 87 616 111 658 q 62 524 62 574 q 62 514 62 518 q 64 504 62 509 l 336 504 l 336 510 q 346 541 336 528 q 371 560 355 553 q 405 571 386 568 q 441 574 423 574 q 484 568 464 574 q 517 552 503 563 q 540 525 532 542 q 549 486 549 509 l 549 450 q 334 440 429 450 q 175 402 240 431 q 76 322 110 374 q 41 189 41 271 q 60 92 41 132 q 113 28 79 53 q 195 -6 147 4 q 300 -17 243 -17 q 388 -9 348 -17 q 460 11 427 -2 q 521 40 494 24 q 571 75 548 57 q 641 8 590 33 q 775 -17 691 -17 q 837 -13 810 -17 q 882 -3 864 -9 q 920 11 904 3 l 920 171 l 869 171 q 836 186 846 171 q 825 225 825 202 l 825 511 q 794 625 825 579 q 711 699 764 671 q 590 738 659 726 q 446 750 521 750 m 549 257 q 537 216 549 235 q 507 184 526 197 q 464 163 488 170 q 412 155 439 155 q 378 158 395 155 q 348 169 361 161 q 326 190 334 176 q 318 225 318 203 q 331 263 318 245 q 372 293 344 280 q 443 312 399 305 q 549 319 487 319 l 549 257 m 722 1007 l 511 1007 l 511 814 l 722 814 l 722 1007 m 416 1007 l 205 1007 l 205 814 l 416 814 l 416 1007 z "},"æ":{"ha":1389,"x_min":41,"x_max":1350,"o":"m 964 750 q 831 733 892 750 q 720 684 770 717 q 595 735 667 720 q 446 750 524 750 q 280 734 351 750 q 160 688 208 718 q 87 616 111 658 q 62 524 62 574 q 62 514 62 518 q 64 504 62 509 l 336 504 l 336 510 q 347 541 336 528 q 373 560 357 553 q 408 571 389 568 q 447 574 428 574 q 487 568 468 574 q 519 552 505 563 q 541 525 533 542 q 549 486 549 509 l 549 450 q 334 441 428 450 q 174 404 239 431 q 75 329 109 377 q 41 203 41 280 q 63 97 41 139 q 126 30 85 55 q 225 -6 167 4 q 355 -17 283 -17 q 447 -8 404 -17 q 528 14 490 0 q 597 47 566 28 q 656 85 629 65 q 793 8 711 33 q 981 -17 876 -17 q 1141 3 1072 -17 q 1257 59 1211 22 q 1327 148 1303 96 q 1350 267 1350 201 l 1082 267 q 1075 225 1082 244 q 1055 191 1069 205 q 1017 168 1040 176 q 961 160 994 160 q 859 202 889 160 q 828 319 828 243 l 1350 319 l 1350 367 q 1325 538 1350 466 q 1250 657 1299 610 q 1128 727 1200 705 q 964 750 1057 750 m 549 257 q 537 216 549 235 q 507 184 526 197 q 464 163 488 170 q 412 155 439 155 q 378 158 395 155 q 348 169 361 161 q 326 190 334 176 q 318 225 318 203 q 331 263 318 245 q 372 293 344 280 q 443 312 399 305 q 549 319 487 319 l 549 257 m 956 574 q 1041 541 1011 574 q 1071 450 1071 508 l 829 450 q 865 541 836 507 q 956 574 895 574 z "},"ǽ":{"ha":1389,"x_min":41,"x_max":1350,"o":"m 964 750 q 831 733 892 750 q 720 684 770 717 q 595 735 667 720 q 446 750 524 750 q 280 734 351 750 q 160 688 208 718 q 87 616 111 658 q 62 524 62 574 q 62 514 62 518 q 64 504 62 509 l 336 504 l 336 510 q 347 541 336 528 q 373 560 357 553 q 408 571 389 568 q 447 574 428 574 q 487 568 468 574 q 519 552 505 563 q 541 525 533 542 q 549 486 549 509 l 549 450 q 334 441 428 450 q 174 404 239 431 q 75 329 109 377 q 41 203 41 280 q 63 97 41 139 q 126 30 85 55 q 225 -6 167 4 q 355 -17 283 -17 q 447 -8 404 -17 q 528 14 490 0 q 597 47 566 28 q 656 85 629 65 q 793 8 711 33 q 981 -17 876 -17 q 1141 3 1072 -17 q 1257 59 1211 22 q 1327 148 1303 96 q 1350 267 1350 201 l 1082 267 q 1075 225 1082 244 q 1055 191 1069 205 q 1017 168 1040 176 q 961 160 994 160 q 859 202 889 160 q 828 319 828 243 l 1350 319 l 1350 367 q 1325 538 1350 466 q 1250 657 1299 610 q 1128 727 1200 705 q 964 750 1057 750 m 549 257 q 537 216 549 235 q 507 184 526 197 q 464 163 488 170 q 412 155 439 155 q 378 158 395 155 q 348 169 361 161 q 326 190 334 176 q 318 225 318 203 q 331 263 318 245 q 372 293 344 280 q 443 312 399 305 q 549 319 487 319 l 549 257 m 956 574 q 1041 541 1011 574 q 1071 450 1071 508 l 829 450 q 865 541 836 507 q 956 574 895 574 m 977 1002 l 974 1007 l 706 1007 l 578 822 l 755 822 l 977 1002 z "},"à":{"ha":926,"x_min":41,"x_max":920,"o":"m 446 750 q 280 734 351 750 q 160 688 208 718 q 87 616 111 658 q 62 524 62 574 q 62 514 62 518 q 64 504 62 509 l 336 504 l 336 510 q 346 541 336 528 q 371 560 355 553 q 405 571 386 568 q 441 574 423 574 q 484 568 464 574 q 517 552 503 563 q 540 525 532 542 q 549 486 549 509 l 549 450 q 334 440 429 450 q 175 402 240 431 q 76 322 110 374 q 41 189 41 271 q 60 92 41 132 q 113 28 79 53 q 195 -6 147 4 q 300 -17 243 -17 q 388 -9 348 -17 q 460 11 427 -2 q 521 40 494 24 q 571 75 548 57 q 641 8 590 33 q 775 -17 691 -17 q 837 -13 810 -17 q 882 -3 864 -9 q 920 11 904 3 l 920 171 l 869 171 q 836 186 846 171 q 825 225 825 202 l 825 511 q 794 625 825 579 q 711 699 764 671 q 590 738 659 726 q 446 750 521 750 m 549 257 q 537 216 549 235 q 507 184 526 197 q 464 163 488 170 q 412 155 439 155 q 378 158 395 155 q 348 169 361 161 q 326 190 334 176 q 318 225 318 203 q 331 263 318 245 q 372 293 344 280 q 443 312 399 305 q 549 319 487 319 l 549 257 m 580 822 l 452 1007 l 184 1007 l 181 1002 l 404 822 l 580 822 z "},"ā":{"ha":926,"x_min":41,"x_max":920,"o":"m 446 750 q 280 734 351 750 q 160 688 208 718 q 87 616 111 658 q 62 524 62 574 q 62 514 62 518 q 64 504 62 509 l 336 504 l 336 510 q 346 541 336 528 q 371 560 355 553 q 405 571 386 568 q 441 574 423 574 q 484 568 464 574 q 517 552 503 563 q 540 525 532 542 q 549 486 549 509 l 549 450 q 334 440 429 450 q 175 402 240 431 q 76 322 110 374 q 41 189 41 271 q 60 92 41 132 q 113 28 79 53 q 195 -6 147 4 q 300 -17 243 -17 q 388 -9 348 -17 q 460 11 427 -2 q 521 40 494 24 q 571 75 548 57 q 641 8 590 33 q 775 -17 691 -17 q 837 -13 810 -17 q 882 -3 864 -9 q 920 11 904 3 l 920 171 l 869 171 q 836 186 846 171 q 825 225 825 202 l 825 511 q 794 625 825 579 q 711 699 764 671 q 590 738 659 726 q 446 750 521 750 m 549 257 q 537 216 549 235 q 507 184 526 197 q 464 163 488 170 q 412 155 439 155 q 378 158 395 155 q 348 169 361 161 q 326 190 334 176 q 318 225 318 203 q 331 263 318 245 q 372 293 344 280 q 443 312 399 305 q 549 319 487 319 l 549 257 m 683 979 l 243 979 l 243 840 l 683 840 l 683 979 z "},"ą":{"ha":926,"x_min":41,"x_max":920,"o":"m 446 750 q 280 734 351 750 q 160 688 208 718 q 87 616 111 658 q 62 524 62 574 q 62 514 62 518 q 64 504 62 509 l 336 504 l 336 510 q 346 541 336 528 q 371 560 355 553 q 405 571 386 568 q 441 574 423 574 q 484 568 464 574 q 517 552 503 563 q 540 525 532 542 q 549 486 549 509 l 549 450 q 334 440 429 450 q 175 402 240 431 q 76 322 110 374 q 41 189 41 271 q 60 92 41 132 q 113 28 79 53 q 195 -6 147 4 q 300 -17 243 -17 q 388 -9 348 -17 q 460 11 427 -2 q 521 40 494 24 q 571 75 548 57 q 652 3 591 28 q 630 -25 641 -10 q 612 -56 620 -39 q 598 -93 604 -73 q 593 -135 593 -112 q 608 -208 593 -178 q 648 -257 623 -238 q 704 -284 672 -275 q 769 -293 735 -293 q 902 -272 839 -293 l 902 -167 l 844 -167 q 804 -161 820 -167 q 779 -145 788 -155 q 765 -122 769 -135 q 760 -96 760 -109 q 765 -55 760 -75 q 775 -17 769 -34 q 837 -13 810 -17 q 882 -3 864 -9 q 920 11 904 3 l 920 171 l 869 171 q 836 186 846 171 q 825 225 825 202 l 825 511 q 794 625 825 579 q 711 699 764 671 q 590 738 659 726 q 446 750 521 750 m 549 257 q 537 216 549 235 q 507 184 526 197 q 464 163 488 170 q 412 155 439 155 q 378 158 395 155 q 348 169 361 161 q 326 190 334 176 q 318 225 318 203 q 331 263 318 245 q 372 293 344 280 q 443 312 399 305 q 549 319 487 319 l 549 257 z "},"å":{"ha":926,"x_min":41,"x_max":920,"o":"m 446 750 q 280 734 351 750 q 160 688 208 718 q 87 616 111 658 q 62 524 62 574 q 62 514 62 518 q 64 504 62 509 l 336 504 l 336 510 q 346 541 336 528 q 371 560 355 553 q 405 571 386 568 q 441 574 423 574 q 484 568 464 574 q 517 552 503 563 q 540 525 532 542 q 549 486 549 509 l 549 450 q 334 440 429 450 q 175 402 240 431 q 76 322 110 374 q 41 189 41 271 q 60 92 41 132 q 113 28 79 53 q 195 -6 147 4 q 300 -17 243 -17 q 388 -9 348 -17 q 460 11 427 -2 q 521 40 494 24 q 571 75 548 57 q 641 8 590 33 q 775 -17 691 -17 q 837 -13 810 -17 q 882 -3 864 -9 q 920 11 904 3 l 920 171 l 869 171 q 836 186 846 171 q 825 225 825 202 l 825 511 q 794 625 825 579 q 711 699 764 671 q 590 738 659 726 q 446 750 521 750 m 549 257 q 537 216 549 235 q 507 184 526 197 q 464 163 488 170 q 412 155 439 155 q 378 158 395 155 q 348 169 361 161 q 326 190 334 176 q 318 225 318 203 q 331 263 318 245 q 372 293 344 280 q 443 312 399 305 q 549 319 487 319 l 549 257 m 463 1103 q 405 1091 432 1103 q 356 1058 377 1079 q 324 1010 336 1038 q 312 951 312 983 q 324 893 312 920 q 357 845 336 865 q 405 813 378 825 q 463 802 433 802 q 522 813 494 802 q 570 846 549 825 q 603 893 591 866 q 614 951 614 921 q 602 1011 614 983 q 569 1059 590 1038 q 521 1091 549 1079 q 463 1103 494 1103 m 463 1007 q 503 992 487 1007 q 519 953 519 977 q 504 912 519 928 q 463 896 488 896 q 424 911 439 896 q 408 950 408 926 q 423 991 408 975 q 463 1007 438 1007 z "},"ǻ":{"ha":926,"x_min":41,"x_max":920,"o":"m 727 1232 l 475 1232 l 368 1087 l 545 1087 l 730 1227 l 727 1232 m 463 1053 q 405 1044 432 1053 q 356 1018 377 1035 q 324 975 336 1000 q 312 915 312 949 q 324 856 312 881 q 357 813 336 830 q 405 787 378 795 q 463 779 433 779 q 522 787 494 779 q 570 813 549 796 q 603 856 591 831 q 614 915 614 882 q 602 975 614 949 q 569 1018 590 1001 q 521 1044 549 1036 q 463 1053 494 1053 m 463 970 q 503 955 487 970 q 519 916 519 940 q 504 875 519 891 q 463 859 488 859 q 424 874 439 859 q 408 913 408 890 q 423 955 408 939 q 463 970 438 970 m 446 750 q 280 734 351 750 q 160 688 208 718 q 87 616 111 658 q 62 524 62 574 q 62 514 62 518 q 64 504 62 509 l 336 504 l 336 510 q 346 541 336 528 q 371 560 355 553 q 405 571 386 568 q 441 574 423 574 q 484 568 464 574 q 517 552 503 563 q 540 525 532 542 q 549 486 549 509 l 549 450 q 334 440 429 450 q 175 402 240 431 q 76 322 110 374 q 41 189 41 271 q 60 92 41 132 q 113 28 79 53 q 195 -6 147 4 q 300 -17 243 -17 q 388 -9 348 -17 q 460 11 427 -2 q 521 40 494 24 q 571 75 548 57 q 641 8 590 33 q 775 -17 691 -17 q 837 -13 810 -17 q 882 -3 864 -9 q 920 11 904 3 l 920 171 l 869 171 q 836 186 846 171 q 825 225 825 202 l 825 511 q 794 625 825 579 q 711 699 764 671 q 590 738 659 726 q 446 750 521 750 m 549 257 q 537 216 549 235 q 507 184 526 197 q 464 163 488 170 q 412 155 439 155 q 378 158 395 155 q 348 169 361 161 q 326 190 334 176 q 318 225 318 203 q 331 263 318 245 q 372 293 344 280 q 443 312 399 305 q 549 319 487 319 l 549 257 z "},"ã":{"ha":926,"x_min":41,"x_max":920,"o":"m 446 750 q 280 734 351 750 q 160 688 208 718 q 87 616 111 658 q 62 524 62 574 q 62 514 62 518 q 64 504 62 509 l 336 504 l 336 510 q 346 541 336 528 q 371 560 355 553 q 405 571 386 568 q 441 574 423 574 q 484 568 464 574 q 517 552 503 563 q 540 525 532 542 q 549 486 549 509 l 549 450 q 334 440 429 450 q 175 402 240 431 q 76 322 110 374 q 41 189 41 271 q 60 92 41 132 q 113 28 79 53 q 195 -6 147 4 q 300 -17 243 -17 q 388 -9 348 -17 q 460 11 427 -2 q 521 40 494 24 q 571 75 548 57 q 641 8 590 33 q 775 -17 691 -17 q 837 -13 810 -17 q 882 -3 864 -9 q 920 11 904 3 l 920 171 l 869 171 q 836 186 846 171 q 825 225 825 202 l 825 511 q 794 625 825 579 q 711 699 764 671 q 590 738 659 726 q 446 750 521 750 m 549 257 q 537 216 549 235 q 507 184 526 197 q 464 163 488 170 q 412 155 439 155 q 378 158 395 155 q 348 169 361 161 q 326 190 334 176 q 318 225 318 203 q 331 263 318 245 q 372 293 344 280 q 443 312 399 305 q 549 319 487 319 l 549 257 m 659 1007 q 634 967 652 983 q 589 951 616 951 q 533 960 562 951 q 475 979 505 969 q 414 998 445 989 q 349 1007 382 1007 q 270 990 305 1007 q 208 945 234 973 q 169 881 182 917 q 155 808 155 846 l 267 808 q 293 848 275 832 q 337 864 311 864 q 393 855 365 864 q 452 836 422 846 q 513 817 481 826 q 577 808 544 808 q 656 825 621 808 q 718 870 692 842 q 758 933 744 898 q 772 1007 772 969 l 659 1007 z "},"b":{"ha":926,"x_min":85,"x_max":876,"o":"m 361 1007 l 85 1007 l 85 0 l 310 0 l 334 104 q 433 13 374 43 q 567 -17 492 -17 q 697 7 640 -17 q 794 79 755 31 q 855 199 834 127 q 876 368 876 271 q 855 536 876 464 q 794 655 834 608 q 697 726 755 703 q 567 750 640 750 q 452 729 504 750 q 361 665 401 708 l 361 1007 m 481 546 q 536 536 513 546 q 573 507 559 526 q 594 461 587 488 q 600 403 600 435 l 600 329 q 594 270 600 296 q 573 226 587 244 q 536 197 559 208 q 481 187 513 187 q 425 199 448 187 q 387 233 402 212 q 365 282 372 254 q 358 343 358 311 l 358 389 q 365 450 358 421 q 387 499 372 478 q 425 533 402 521 q 481 546 448 546 z "},"c":{"ha":926,"x_min":50,"x_max":867,"o":"m 463 750 q 293 726 369 750 q 162 655 216 703 q 79 535 109 607 q 50 367 50 463 q 79 198 50 271 q 162 78 109 126 q 293 7 216 31 q 463 -17 369 -17 q 620 1 547 -17 q 749 57 694 19 q 835 155 804 95 q 867 298 867 215 l 610 298 q 573 201 610 231 q 468 171 536 171 q 359 212 392 171 q 326 326 326 254 l 326 406 q 334 471 326 442 q 358 520 342 500 q 400 551 374 541 q 463 562 426 562 q 563 532 528 562 q 599 437 599 503 l 867 437 q 835 581 867 522 q 749 678 804 640 q 620 733 694 715 q 463 750 547 750 z "},"ć":{"ha":926,"x_min":50,"x_max":867,"o":"m 463 750 q 293 726 369 750 q 162 655 216 703 q 79 535 109 607 q 50 367 50 463 q 79 198 50 271 q 162 78 109 126 q 293 7 216 31 q 463 -17 369 -17 q 620 1 547 -17 q 749 57 694 19 q 835 155 804 95 q 867 298 867 215 l 610 298 q 573 201 610 231 q 468 171 536 171 q 359 212 392 171 q 326 326 326 254 l 326 406 q 334 471 326 442 q 358 520 342 500 q 400 551 374 541 q 463 562 426 562 q 563 532 528 562 q 599 437 599 503 l 867 437 q 835 581 867 522 q 749 678 804 640 q 620 733 694 715 q 463 750 547 750 m 728 1002 l 726 1007 l 458 1007 l 330 822 l 507 822 l 728 1002 z "},"č":{"ha":926,"x_min":50,"x_max":867,"o":"m 463 750 q 293 726 369 750 q 162 655 216 703 q 79 535 109 607 q 50 367 50 463 q 79 198 50 271 q 162 78 109 126 q 293 7 216 31 q 463 -17 369 -17 q 620 1 547 -17 q 749 57 694 19 q 835 155 804 95 q 867 298 867 215 l 610 298 q 573 201 610 231 q 468 171 536 171 q 359 212 392 171 q 326 326 326 254 l 326 406 q 334 471 326 442 q 358 520 342 500 q 400 551 374 541 q 463 562 426 562 q 563 532 528 562 q 599 437 599 503 l 867 437 q 835 581 867 522 q 749 678 804 640 q 620 733 694 715 q 463 750 547 750 m 745 1007 l 565 1007 l 462 900 l 359 1007 l 181 1007 l 374 806 l 552 806 l 745 1007 z "},"ç":{"ha":926,"x_min":50,"x_max":867,"o":"m 463 750 q 293 726 369 750 q 162 655 216 703 q 79 535 109 607 q 50 367 50 463 q 76 206 50 275 q 151 90 102 137 q 268 16 199 42 q 422 -16 336 -11 l 406 -119 l 459 -119 q 501 -131 490 -119 q 512 -164 512 -143 q 497 -197 512 -188 q 456 -207 481 -207 q 400 -205 429 -207 q 348 -201 372 -203 q 294 -196 320 -199 l 294 -271 q 329 -280 309 -276 q 372 -287 349 -284 q 420 -292 395 -290 q 469 -293 445 -293 q 522 -288 493 -293 q 575 -268 550 -282 q 616 -229 600 -254 q 633 -164 633 -203 q 622 -109 633 -132 q 594 -73 612 -87 q 552 -51 576 -58 q 504 -40 529 -43 l 507 -16 q 649 9 583 -11 q 763 68 715 30 q 839 163 811 106 q 867 298 867 220 l 610 298 q 573 201 610 231 q 468 171 536 171 q 359 212 392 171 q 326 326 326 254 l 326 406 q 334 471 326 442 q 358 520 342 500 q 400 551 374 541 q 463 562 426 562 q 563 532 528 562 q 599 437 599 503 l 867 437 q 835 581 867 522 q 749 678 804 640 q 620 733 694 715 q 463 750 547 750 z "},"ĉ":{"ha":926,"x_min":50,"x_max":867,"o":"m 463 750 q 293 726 369 750 q 162 655 216 703 q 79 535 109 607 q 50 367 50 463 q 79 198 50 271 q 162 78 109 126 q 293 7 216 31 q 463 -17 369 -17 q 620 1 547 -17 q 749 57 694 19 q 835 155 804 95 q 867 298 867 215 l 610 298 q 573 201 610 231 q 468 171 536 171 q 359 212 392 171 q 326 326 326 254 l 326 406 q 334 471 326 442 q 358 520 342 500 q 400 551 374 541 q 463 562 426 562 q 563 532 528 562 q 599 437 599 503 l 867 437 q 835 581 867 522 q 749 678 804 640 q 620 733 694 715 q 463 750 547 750 m 552 1007 l 374 1007 l 181 806 l 359 806 l 462 913 l 565 806 l 745 806 l 552 1007 z "},"ċ":{"ha":926,"x_min":50,"x_max":867,"o":"m 463 750 q 293 726 369 750 q 162 655 216 703 q 79 535 109 607 q 50 367 50 463 q 79 198 50 271 q 162 78 109 126 q 293 7 216 31 q 463 -17 369 -17 q 620 1 547 -17 q 749 57 694 19 q 835 155 804 95 q 867 298 867 215 l 610 298 q 573 201 610 231 q 468 171 536 171 q 359 212 392 171 q 326 326 326 254 l 326 406 q 334 471 326 442 q 358 520 342 500 q 400 551 374 541 q 463 562 426 562 q 563 532 528 562 q 599 437 599 503 l 867 437 q 835 581 867 522 q 749 678 804 640 q 620 733 694 715 q 463 750 547 750 m 569 1007 l 357 1007 l 357 814 l 569 814 l 569 1007 z "},"d":{"ha":926,"x_min":50,"x_max":842,"o":"m 842 1007 l 566 1007 l 566 665 q 473 729 526 708 q 359 750 421 750 q 229 726 287 750 q 132 655 172 703 q 71 536 92 608 q 50 368 50 464 q 71 199 50 271 q 132 79 92 127 q 229 7 172 31 q 359 -17 287 -17 q 493 13 434 -17 q 593 104 552 43 l 616 0 l 842 0 l 842 1007 m 446 546 q 501 533 478 546 q 539 499 524 521 q 561 450 554 478 q 568 389 568 421 l 568 343 q 561 282 568 311 q 539 233 554 254 q 501 199 524 212 q 446 187 478 187 q 390 197 413 187 q 353 226 368 208 q 333 270 339 244 q 326 329 326 296 l 326 403 q 333 461 326 435 q 353 507 339 488 q 390 536 368 526 q 446 546 413 546 z "},"ď":{"ha":1172,"x_min":50,"x_max":1090,"o":"m 842 1007 l 566 1007 l 566 665 q 473 729 526 708 q 359 750 421 750 q 229 726 287 750 q 132 655 172 703 q 71 536 92 608 q 50 368 50 464 q 71 199 50 271 q 132 79 92 127 q 229 7 172 31 q 359 -17 287 -17 q 493 13 434 -17 q 593 104 552 43 l 616 0 l 842 0 l 842 1007 m 446 546 q 501 533 478 546 q 539 499 524 521 q 561 450 554 478 q 568 389 568 421 l 568 343 q 561 282 568 311 q 539 233 554 254 q 501 199 524 212 q 446 187 478 187 q 390 197 413 187 q 353 226 368 208 q 333 270 339 244 q 326 329 326 296 l 326 403 q 333 461 326 435 q 353 507 339 488 q 390 536 368 526 q 446 546 413 546 m 1090 956 l 910 956 l 910 795 l 979 795 l 922 668 l 1015 668 l 1090 805 l 1090 956 z "},"đ":{"ha":926,"x_min":50,"x_max":926,"o":"m 842 1007 l 566 1007 l 566 928 l 467 928 l 467 799 l 566 799 l 566 665 q 473 729 526 708 q 359 750 421 750 q 229 726 287 750 q 132 655 172 703 q 71 536 92 608 q 50 368 50 464 q 71 199 50 271 q 132 79 92 127 q 229 7 172 31 q 359 -17 287 -17 q 493 13 434 -17 q 593 104 552 43 l 616 0 l 842 0 l 842 799 l 926 799 l 926 928 l 842 928 l 842 1007 m 446 546 q 501 533 478 546 q 539 499 524 521 q 561 450 554 478 q 568 389 568 421 l 568 343 q 561 282 568 311 q 539 233 554 254 q 501 199 524 212 q 446 187 478 187 q 390 197 413 187 q 353 226 368 208 q 333 270 339 244 q 326 329 326 296 l 326 403 q 333 461 326 435 q 353 507 339 488 q 390 536 368 526 q 446 546 413 546 z "},"ı":{"ha":463,"x_min":93,"x_max":370,"o":"m 370 733 l 93 733 l 93 0 l 370 0 l 370 733 z "},"e":{"ha":926,"x_min":50,"x_max":876,"o":"m 463 750 q 293 726 369 750 q 162 655 216 703 q 79 535 109 607 q 50 367 50 463 q 80 196 50 268 q 165 76 110 123 q 301 6 221 28 q 479 -17 380 -17 q 653 3 578 -17 q 777 59 727 22 q 851 148 827 96 q 876 267 876 201 l 608 267 q 601 225 608 244 q 578 191 594 205 q 536 168 562 176 q 473 160 511 160 q 360 202 395 160 q 326 319 326 243 l 876 319 l 876 367 q 849 538 876 466 q 768 657 821 610 q 638 727 715 705 q 463 750 562 750 m 473 574 q 565 541 532 574 q 597 450 597 508 l 328 450 q 369 541 335 507 q 473 574 404 574 z "},"é":{"ha":926,"x_min":50,"x_max":876,"o":"m 463 750 q 293 726 369 750 q 162 655 216 703 q 79 535 109 607 q 50 367 50 463 q 80 196 50 268 q 165 76 110 123 q 301 6 221 28 q 479 -17 380 -17 q 653 3 578 -17 q 777 59 727 22 q 851 148 827 96 q 876 267 876 201 l 608 267 q 601 225 608 244 q 578 191 594 205 q 536 168 562 176 q 473 160 511 160 q 360 202 395 160 q 326 319 326 243 l 876 319 l 876 367 q 849 538 876 466 q 768 657 821 610 q 638 727 715 705 q 463 750 562 750 m 473 574 q 565 541 532 574 q 597 450 597 508 l 328 450 q 369 541 335 507 q 473 574 404 574 m 728 1002 l 726 1007 l 458 1007 l 330 822 l 507 822 l 728 1002 z "},"ĕ":{"ha":926,"x_min":50,"x_max":876,"o":"m 463 750 q 293 726 369 750 q 162 655 216 703 q 79 535 109 607 q 50 367 50 463 q 80 196 50 268 q 165 76 110 123 q 301 6 221 28 q 479 -17 380 -17 q 653 3 578 -17 q 777 59 727 22 q 851 148 827 96 q 876 267 876 201 l 608 267 q 601 225 608 244 q 578 191 594 205 q 536 168 562 176 q 473 160 511 160 q 360 202 395 160 q 326 319 326 243 l 876 319 l 876 367 q 849 538 876 466 q 768 657 821 610 q 638 727 715 705 q 463 750 562 750 m 473 574 q 565 541 532 574 q 597 450 597 508 l 328 450 q 369 541 335 507 q 473 574 404 574 m 587 1007 q 575 984 585 996 q 549 961 565 972 q 510 944 532 951 q 463 937 488 937 q 415 944 437 937 q 378 961 394 951 q 352 984 362 972 q 340 1007 342 996 l 207 1007 q 224 937 207 972 q 275 872 241 901 q 355 825 308 844 q 463 807 402 807 q 569 825 522 807 q 650 872 617 844 q 702 937 684 901 q 720 1007 720 972 l 587 1007 z "},"ě":{"ha":926,"x_min":50,"x_max":876,"o":"m 463 750 q 293 726 369 750 q 162 655 216 703 q 79 535 109 607 q 50 367 50 463 q 80 196 50 268 q 165 76 110 123 q 301 6 221 28 q 479 -17 380 -17 q 653 3 578 -17 q 777 59 727 22 q 851 148 827 96 q 876 267 876 201 l 608 267 q 601 225 608 244 q 578 191 594 205 q 536 168 562 176 q 473 160 511 160 q 360 202 395 160 q 326 319 326 243 l 876 319 l 876 367 q 849 538 876 466 q 768 657 821 610 q 638 727 715 705 q 463 750 562 750 m 473 574 q 565 541 532 574 q 597 450 597 508 l 328 450 q 369 541 335 507 q 473 574 404 574 m 745 1007 l 565 1007 l 462 900 l 359 1007 l 181 1007 l 374 806 l 552 806 l 745 1007 z "},"ê":{"ha":926,"x_min":50,"x_max":876,"o":"m 463 750 q 293 726 369 750 q 162 655 216 703 q 79 535 109 607 q 50 367 50 463 q 80 196 50 268 q 165 76 110 123 q 301 6 221 28 q 479 -17 380 -17 q 653 3 578 -17 q 777 59 727 22 q 851 148 827 96 q 876 267 876 201 l 608 267 q 601 225 608 244 q 578 191 594 205 q 536 168 562 176 q 473 160 511 160 q 360 202 395 160 q 326 319 326 243 l 876 319 l 876 367 q 849 538 876 466 q 768 657 821 610 q 638 727 715 705 q 463 750 562 750 m 473 574 q 565 541 532 574 q 597 450 597 508 l 328 450 q 369 541 335 507 q 473 574 404 574 m 552 1007 l 374 1007 l 181 806 l 359 806 l 462 913 l 565 806 l 745 806 l 552 1007 z "},"ë":{"ha":926,"x_min":50,"x_max":876,"o":"m 463 750 q 293 726 369 750 q 162 655 216 703 q 79 535 109 607 q 50 367 50 463 q 80 196 50 268 q 165 76 110 123 q 301 6 221 28 q 479 -17 380 -17 q 653 3 578 -17 q 777 59 727 22 q 851 148 827 96 q 876 267 876 201 l 608 267 q 601 225 608 244 q 578 191 594 205 q 536 168 562 176 q 473 160 511 160 q 360 202 395 160 q 326 319 326 243 l 876 319 l 876 367 q 849 538 876 466 q 768 657 821 610 q 638 727 715 705 q 463 750 562 750 m 473 574 q 565 541 532 574 q 597 450 597 508 l 328 450 q 369 541 335 507 q 473 574 404 574 m 722 1007 l 511 1007 l 511 814 l 722 814 l 722 1007 m 416 1007 l 205 1007 l 205 814 l 416 814 l 416 1007 z "},"ė":{"ha":926,"x_min":50,"x_max":876,"o":"m 463 750 q 293 726 369 750 q 162 655 216 703 q 79 535 109 607 q 50 367 50 463 q 80 196 50 268 q 165 76 110 123 q 301 6 221 28 q 479 -17 380 -17 q 653 3 578 -17 q 777 59 727 22 q 851 148 827 96 q 876 267 876 201 l 608 267 q 601 225 608 244 q 578 191 594 205 q 536 168 562 176 q 473 160 511 160 q 360 202 395 160 q 326 319 326 243 l 876 319 l 876 367 q 849 538 876 466 q 768 657 821 610 q 638 727 715 705 q 463 750 562 750 m 473 574 q 565 541 532 574 q 597 450 597 508 l 328 450 q 369 541 335 507 q 473 574 404 574 m 569 1007 l 357 1007 l 357 814 l 569 814 l 569 1007 z "},"è":{"ha":926,"x_min":50,"x_max":876,"o":"m 463 750 q 293 726 369 750 q 162 655 216 703 q 79 535 109 607 q 50 367 50 463 q 80 196 50 268 q 165 76 110 123 q 301 6 221 28 q 479 -17 380 -17 q 653 3 578 -17 q 777 59 727 22 q 851 148 827 96 q 876 267 876 201 l 608 267 q 601 225 608 244 q 578 191 594 205 q 536 168 562 176 q 473 160 511 160 q 360 202 395 160 q 326 319 326 243 l 876 319 l 876 367 q 849 538 876 466 q 768 657 821 610 q 638 727 715 705 q 463 750 562 750 m 473 574 q 565 541 532 574 q 597 450 597 508 l 328 450 q 369 541 335 507 q 473 574 404 574 m 597 822 l 469 1007 l 201 1007 l 198 1002 l 420 822 l 597 822 z "},"ē":{"ha":926,"x_min":50,"x_max":876,"o":"m 463 750 q 293 726 369 750 q 162 655 216 703 q 79 535 109 607 q 50 367 50 463 q 80 196 50 268 q 165 76 110 123 q 301 6 221 28 q 479 -17 380 -17 q 653 3 578 -17 q 777 59 727 22 q 851 148 827 96 q 876 267 876 201 l 608 267 q 601 225 608 244 q 578 191 594 205 q 536 168 562 176 q 473 160 511 160 q 360 202 395 160 q 326 319 326 243 l 876 319 l 876 367 q 849 538 876 466 q 768 657 821 610 q 638 727 715 705 q 463 750 562 750 m 473 574 q 565 541 532 574 q 597 450 597 508 l 328 450 q 369 541 335 507 q 473 574 404 574 m 683 979 l 243 979 l 243 840 l 683 840 l 683 979 z "},"ŋ":{"ha":946,"x_min":93,"x_max":854,"o":"m 599 750 q 522 741 559 750 q 450 715 484 732 q 388 675 416 699 q 338 623 359 652 l 319 733 l 93 733 l 93 0 l 370 0 l 370 431 q 378 475 370 454 q 401 512 386 496 q 437 537 416 528 q 485 546 458 546 q 554 517 531 546 q 578 441 578 488 l 578 -12 q 560 -78 578 -55 q 500 -102 542 -102 l 428 -102 l 428 -267 q 467 -277 444 -273 q 513 -285 489 -281 q 560 -290 537 -288 q 600 -292 583 -292 q 715 -277 667 -292 q 794 -233 763 -263 q 840 -155 825 -202 q 854 -40 854 -107 l 854 475 q 839 591 854 540 q 792 677 823 642 q 712 731 760 713 q 599 750 664 750 z "},"ę":{"ha":926,"x_min":50,"x_max":876,"o":"m 463 750 q 293 726 369 750 q 162 655 216 703 q 79 535 109 607 q 50 367 50 463 q 80 196 50 268 q 165 76 110 123 q 301 6 221 28 q 479 -17 380 -17 q 500 -17 490 -17 q 520 -16 511 -17 q 490 -68 503 -40 q 477 -135 477 -97 q 492 -208 477 -178 q 531 -257 507 -238 q 587 -284 555 -275 q 652 -293 618 -293 q 785 -272 722 -293 l 785 -167 l 727 -167 q 687 -161 703 -167 q 662 -145 671 -155 q 648 -122 652 -135 q 644 -96 644 -109 q 652 -37 644 -66 q 669 7 661 -8 q 825 105 773 39 q 876 267 876 172 l 608 267 q 601 225 608 244 q 578 191 594 205 q 536 168 562 176 q 473 160 511 160 q 360 202 395 160 q 326 319 326 243 l 876 319 l 876 367 q 849 538 876 466 q 768 657 821 610 q 638 727 715 705 q 463 750 562 750 m 473 574 q 565 541 532 574 q 597 450 597 508 l 328 450 q 369 541 335 507 q 473 574 404 574 z "},"ð":{"ha":926,"x_min":50,"x_max":876,"o":"m 229 1007 l 228 1002 q 277 966 248 989 q 343 911 307 943 l 207 896 l 207 787 l 436 814 q 471 767 454 791 q 505 717 489 743 q 459 725 484 723 q 414 728 435 728 q 262 701 330 728 q 148 627 195 675 q 75 513 100 580 q 50 367 50 447 q 79 198 50 271 q 162 78 109 126 q 293 7 216 31 q 463 -17 369 -17 q 633 7 556 -17 q 763 78 709 31 q 847 198 817 126 q 876 367 876 271 q 861 517 876 448 q 821 647 846 587 q 763 755 795 706 q 697 844 731 805 l 791 856 l 791 964 l 599 942 q 561 970 578 958 q 531 991 544 983 q 504 1007 516 1000 l 229 1007 m 463 562 q 525 551 499 562 q 568 520 551 541 q 592 471 585 500 q 600 406 600 442 l 600 326 q 568 212 600 254 q 463 171 535 171 q 400 181 426 171 q 358 212 374 192 q 334 261 342 232 q 326 326 326 290 l 326 406 q 334 471 326 442 q 358 520 342 500 q 400 551 374 541 q 463 562 426 562 z "},"f":{"ha":541,"x_min":11,"x_max":532,"o":"m 382 1023 q 273 1011 323 1023 q 189 968 224 998 q 134 889 153 939 q 114 764 114 839 l 114 733 l 11 733 l 11 546 l 114 546 l 114 0 l 390 0 l 390 546 l 532 546 l 532 733 l 390 733 l 390 762 q 394 795 390 781 q 406 819 397 810 q 430 832 415 827 q 468 836 445 836 l 532 836 l 532 999 q 498 1008 517 1004 q 458 1016 479 1013 q 417 1021 437 1019 q 382 1023 397 1023 z "},"g":{"ha":926,"x_min":7,"x_max":908,"o":"m 681 871 q 668 831 680 852 q 636 791 658 814 q 572 742 614 768 q 522 748 549 746 q 452 750 494 750 q 306 739 374 750 q 185 700 237 727 q 104 626 134 672 q 74 513 74 581 q 83 461 74 486 q 108 415 92 437 q 145 373 123 393 q 192 338 167 354 q 137 315 163 330 q 92 279 111 300 q 62 233 73 258 q 52 180 52 208 q 71 107 52 140 q 123 52 90 75 q 79 25 100 41 q 42 -12 58 9 q 16 -59 26 -33 q 7 -113 7 -84 q 21 -183 7 -151 q 61 -240 36 -216 q 120 -278 86 -264 q 192 -292 154 -292 l 600 -292 q 717 -275 661 -292 q 815 -227 773 -259 q 883 -149 858 -195 q 908 -40 908 -102 q 893 54 908 11 q 848 128 879 97 q 771 177 818 159 q 661 195 725 195 l 411 195 q 368 198 385 195 q 341 207 351 201 q 327 221 331 213 q 323 237 323 229 q 343 267 323 255 q 411 278 363 278 l 517 278 q 634 292 578 278 q 733 335 690 306 q 800 408 775 363 q 825 514 825 452 q 803 601 825 560 q 739 672 780 642 q 810 698 779 682 q 863 737 841 713 q 897 793 885 760 q 908 871 908 826 l 681 871 m 558 0 q 610 -18 589 0 q 632 -68 632 -35 q 610 -119 632 -100 q 558 -138 589 -138 l 342 -138 q 290 -118 311 -138 q 269 -66 269 -99 q 290 -17 269 -34 q 342 0 311 0 l 558 0 m 449 606 q 527 583 498 606 q 555 514 555 561 q 527 445 555 467 q 449 422 498 422 q 372 445 399 422 q 345 514 345 467 q 353 554 345 537 q 375 583 361 572 q 408 600 389 595 q 449 606 427 606 z "},"ğ":{"ha":926,"x_min":7,"x_max":908,"o":"m 724 871 q 699 806 717 834 q 679 783 690 794 q 653 762 668 771 q 617 747 637 753 q 572 742 597 742 q 522 748 549 746 q 452 750 494 750 q 306 739 374 750 q 185 700 237 727 q 104 626 134 672 q 74 513 74 581 q 83 461 74 486 q 108 415 92 437 q 145 373 123 393 q 192 338 167 354 q 137 315 163 330 q 92 279 111 300 q 62 233 73 258 q 52 180 52 208 q 71 107 52 140 q 123 52 90 75 q 79 25 100 41 q 42 -12 58 9 q 16 -59 26 -33 q 7 -113 7 -84 q 21 -183 7 -151 q 61 -240 36 -216 q 120 -278 86 -264 q 192 -292 154 -292 l 600 -292 q 717 -275 661 -292 q 815 -227 773 -259 q 883 -149 858 -195 q 908 -40 908 -102 q 893 54 908 11 q 848 128 879 97 q 771 177 818 159 q 661 195 725 195 l 411 195 q 368 198 385 195 q 341 207 351 201 q 327 221 331 213 q 323 237 323 229 q 343 267 323 255 q 411 278 363 278 l 517 278 q 634 292 578 278 q 733 335 690 306 q 800 408 775 363 q 825 514 825 452 q 803 601 825 560 q 739 672 780 642 q 810 698 779 682 q 863 737 841 713 q 897 793 885 760 q 908 871 908 826 l 724 871 m 558 0 q 610 -18 589 0 q 632 -68 632 -35 q 610 -119 632 -100 q 558 -138 589 -138 l 342 -138 q 290 -118 311 -138 q 269 -66 269 -99 q 290 -17 269 -34 q 342 0 311 0 l 558 0 m 449 606 q 527 583 498 606 q 555 514 555 561 q 527 445 555 467 q 449 422 498 422 q 372 445 399 422 q 345 514 345 467 q 353 554 345 537 q 375 583 361 572 q 408 600 389 595 q 449 606 427 606 m 583 1007 q 570 984 581 996 q 544 961 560 972 q 506 944 528 951 q 458 937 484 937 q 411 944 432 937 q 373 961 389 951 q 348 984 357 972 q 336 1007 338 996 l 202 1007 q 219 937 202 972 q 270 872 237 901 q 350 825 303 844 q 458 807 397 807 q 565 825 517 807 q 646 872 612 844 q 697 937 679 901 q 715 1007 715 972 l 583 1007 z "},"ĝ":{"ha":926,"x_min":7,"x_max":908,"o":"m 724 871 q 711 806 726 834 q 694 783 705 794 q 667 762 684 771 q 628 747 651 753 q 572 742 604 742 q 522 748 549 746 q 452 750 494 750 q 306 739 374 750 q 185 700 237 727 q 104 626 134 672 q 74 513 74 581 q 83 461 74 486 q 108 415 92 437 q 145 373 123 393 q 192 338 167 354 q 137 315 163 330 q 92 279 111 300 q 62 233 73 258 q 52 180 52 208 q 71 107 52 140 q 123 52 90 75 q 79 25 100 41 q 42 -12 58 9 q 16 -59 26 -33 q 7 -113 7 -84 q 21 -183 7 -151 q 61 -240 36 -216 q 120 -278 86 -264 q 192 -292 154 -292 l 600 -292 q 717 -275 661 -292 q 815 -227 773 -259 q 883 -149 858 -195 q 908 -40 908 -102 q 893 54 908 11 q 848 128 879 97 q 771 177 818 159 q 661 195 725 195 l 411 195 q 368 198 385 195 q 341 207 351 201 q 327 221 331 213 q 323 237 323 229 q 343 267 323 255 q 411 278 363 278 l 517 278 q 634 292 578 278 q 733 335 690 306 q 800 408 775 363 q 825 514 825 452 q 803 601 825 560 q 739 672 780 642 q 810 698 779 682 q 863 737 841 713 q 897 793 885 760 q 908 871 908 826 l 724 871 m 558 0 q 610 -18 589 0 q 632 -68 632 -35 q 610 -119 632 -100 q 558 -138 589 -138 l 342 -138 q 290 -118 311 -138 q 269 -66 269 -99 q 290 -17 269 -34 q 342 0 311 0 l 558 0 m 449 606 q 527 583 498 606 q 555 514 555 561 q 527 445 555 467 q 449 422 498 422 q 372 445 399 422 q 345 514 345 467 q 353 554 345 537 q 375 583 361 572 q 408 600 389 595 q 449 606 427 606 m 513 1007 l 336 1007 l 170 806 l 347 806 l 423 913 l 499 806 l 680 806 l 513 1007 z "},"ģ":{"ha":926,"x_min":7,"x_max":908,"o":"m 358 795 l 538 795 l 538 956 l 469 956 l 526 1083 l 433 1083 l 358 946 l 358 795 m 681 871 q 668 831 680 852 q 636 791 658 814 q 572 742 614 768 q 522 748 549 746 q 452 750 494 750 q 306 739 374 750 q 185 700 237 727 q 104 626 134 672 q 74 513 74 581 q 83 461 74 486 q 108 415 92 437 q 145 373 123 393 q 192 338 167 354 q 137 315 163 330 q 92 279 111 300 q 62 233 73 258 q 52 180 52 208 q 71 107 52 140 q 123 52 90 75 q 79 25 100 41 q 42 -12 58 9 q 16 -59 26 -33 q 7 -113 7 -84 q 21 -183 7 -151 q 61 -240 36 -216 q 120 -278 86 -264 q 192 -292 154 -292 l 600 -292 q 717 -275 661 -292 q 815 -227 773 -259 q 883 -149 858 -195 q 908 -40 908 -102 q 893 54 908 11 q 848 128 879 97 q 771 177 818 159 q 661 195 725 195 l 411 195 q 368 198 385 195 q 341 207 351 201 q 327 221 331 213 q 323 237 323 229 q 343 267 323 255 q 411 278 363 278 l 517 278 q 634 292 578 278 q 733 335 690 306 q 800 408 775 363 q 825 514 825 452 q 803 601 825 560 q 739 672 780 642 q 810 698 779 682 q 863 737 841 713 q 897 793 885 760 q 908 871 908 826 l 681 871 m 558 0 q 610 -18 589 0 q 632 -68 632 -35 q 610 -119 632 -100 q 558 -138 589 -138 l 342 -138 q 290 -118 311 -138 q 269 -66 269 -99 q 290 -17 269 -34 q 342 0 311 0 l 558 0 m 449 606 q 527 583 498 606 q 555 514 555 561 q 527 445 555 467 q 449 422 498 422 q 372 445 399 422 q 345 514 345 467 q 353 554 345 537 q 375 583 361 572 q 408 600 389 595 q 449 606 427 606 z "},"ġ":{"ha":926,"x_min":7,"x_max":908,"o":"m 681 871 q 668 831 680 852 q 636 791 658 814 q 572 742 614 768 q 522 748 549 746 q 452 750 494 750 q 306 739 374 750 q 185 700 237 727 q 104 626 134 672 q 74 513 74 581 q 83 461 74 486 q 108 415 92 437 q 145 373 123 393 q 192 338 167 354 q 137 315 163 330 q 92 279 111 300 q 62 233 73 258 q 52 180 52 208 q 71 107 52 140 q 123 52 90 75 q 79 25 100 41 q 42 -12 58 9 q 16 -59 26 -33 q 7 -113 7 -84 q 21 -183 7 -151 q 61 -240 36 -216 q 120 -278 86 -264 q 192 -292 154 -292 l 600 -292 q 717 -275 661 -292 q 815 -227 773 -259 q 883 -149 858 -195 q 908 -40 908 -102 q 893 54 908 11 q 848 128 879 97 q 771 177 818 159 q 661 195 725 195 l 411 195 q 368 198 385 195 q 341 207 351 201 q 327 221 331 213 q 323 237 323 229 q 343 267 323 255 q 411 278 363 278 l 517 278 q 634 292 578 278 q 733 335 690 306 q 800 408 775 363 q 825 514 825 452 q 803 601 825 560 q 739 672 780 642 q 810 698 779 682 q 863 737 841 713 q 897 793 885 760 q 908 871 908 826 l 681 871 m 558 0 q 610 -18 589 0 q 632 -68 632 -35 q 610 -119 632 -100 q 558 -138 589 -138 l 342 -138 q 290 -118 311 -138 q 269 -66 269 -99 q 290 -17 269 -34 q 342 0 311 0 l 558 0 m 449 606 q 527 583 498 606 q 555 514 555 561 q 527 445 555 467 q 449 422 498 422 q 372 445 399 422 q 345 514 345 467 q 353 554 345 537 q 375 583 361 572 q 408 600 389 595 q 449 606 427 606 m 526 1007 l 315 1007 l 315 814 l 526 814 l 526 1007 z "},"ß":{"ha":926,"x_min":93,"x_max":867,"o":"m 467 1023 q 332 1006 399 1023 q 212 953 265 989 q 126 858 159 916 q 93 718 93 800 l 93 0 l 370 0 l 370 742 q 376 780 370 762 q 396 810 383 798 q 426 830 408 823 q 467 838 444 838 q 508 830 490 838 q 538 810 526 823 q 557 780 551 798 q 564 742 564 762 q 557 705 564 722 q 538 675 550 688 q 509 654 526 662 q 473 647 492 647 l 436 647 l 436 452 l 475 452 q 519 441 498 452 q 556 413 541 431 q 581 370 572 395 q 590 318 590 346 q 581 269 590 292 q 557 228 572 245 q 520 200 541 210 q 475 189 499 189 l 436 189 l 436 0 l 525 0 q 662 18 599 0 q 770 74 724 37 q 841 166 815 111 q 867 297 867 222 q 854 378 867 338 q 820 451 842 418 q 767 510 798 484 q 699 549 736 535 l 699 555 q 753 589 729 568 q 794 637 777 610 q 820 696 811 665 q 829 761 829 728 q 814 851 829 812 q 773 919 799 890 q 711 968 747 948 q 636 1000 676 988 q 552 1018 595 1013 q 467 1023 509 1023 z "},"h":{"ha":926,"x_min":83,"x_max":844,"o":"m 359 1007 l 83 1007 l 83 0 l 359 0 l 359 431 q 368 475 359 454 q 391 512 376 496 q 428 537 406 528 q 475 546 449 546 q 545 517 522 546 q 568 441 568 488 l 568 0 l 844 0 l 844 475 q 829 591 844 540 q 782 677 813 642 q 702 731 750 713 q 589 750 654 750 q 463 726 523 750 q 359 657 404 701 l 359 1007 z "},"ħ":{"ha":926,"x_min":-3,"x_max":844,"o":"m 359 1007 l 83 1007 l 83 928 l -3 928 l -3 799 l 83 799 l 83 0 l 359 0 l 359 431 q 368 475 359 454 q 391 512 376 496 q 428 537 406 528 q 475 546 449 546 q 545 517 522 546 q 568 441 568 488 l 568 0 l 844 0 l 844 475 q 829 591 844 540 q 782 677 813 642 q 702 731 750 713 q 589 750 654 750 q 463 726 523 750 q 359 657 404 701 l 359 799 l 456 799 l 456 928 l 359 928 l 359 1007 z "},"ĥ":{"ha":926,"x_min":-60,"x_max":844,"o":"m 359 1007 l 83 1007 l 83 0 l 359 0 l 359 431 q 368 475 359 454 q 391 512 376 496 q 428 537 406 528 q 475 546 449 546 q 545 517 522 546 q 568 441 568 488 l 568 0 l 844 0 l 844 475 q 829 591 844 540 q 782 677 813 642 q 702 731 750 713 q 589 750 654 750 q 463 726 523 750 q 359 657 404 701 l 359 1007 m 311 1230 l 133 1230 l -60 1028 l 117 1028 l 220 1135 l 323 1028 l 504 1028 l 311 1230 z "},"i":{"ha":463,"x_min":93,"x_max":370,"o":"m 370 733 l 93 733 l 93 0 l 370 0 l 370 733 m 370 1007 l 93 1007 l 93 819 l 370 819 l 370 1007 z "},"í":{"ha":463,"x_min":93,"x_max":496,"o":"m 370 0 l 370 733 l 93 733 l 93 0 l 370 0 m 496 1002 l 494 1007 l 226 1007 l 98 822 l 275 822 l 496 1002 z "},"ĭ":{"ha":463,"x_min":-25,"x_max":488,"o":"m 370 733 l 93 733 l 93 0 l 370 0 l 370 733 m 355 1007 q 343 984 353 996 q 317 961 333 972 q 278 944 300 951 q 231 937 256 937 q 183 944 205 937 q 146 961 162 951 q 120 984 130 972 q 109 1007 111 996 l -25 1007 q -8 937 -25 972 q 43 872 9 901 q 123 825 76 844 q 231 807 170 807 q 337 825 290 807 q 418 872 385 844 q 470 937 452 901 q 488 1007 488 972 l 355 1007 z "},"î":{"ha":463,"x_min":-51,"x_max":513,"o":"m 370 733 l 93 733 l 93 0 l 370 0 l 370 733 m 320 1007 l 142 1007 l -51 806 l 127 806 l 230 913 l 333 806 l 513 806 l 320 1007 z "},"ï":{"ha":463,"x_min":-27,"x_max":490,"o":"m 370 733 l 93 733 l 93 0 l 370 0 l 370 733 m 490 1007 l 279 1007 l 279 814 l 490 814 l 490 1007 m 184 1007 l -27 1007 l -27 814 l 184 814 l 184 1007 z "},"ì":{"ha":463,"x_min":-34,"x_max":370,"o":"m 370 0 l 370 733 l 93 733 l 93 0 l 370 0 m 365 822 l 237 1007 l -31 1007 l -34 1002 l 189 822 l 365 822 z "},"ĳ":{"ha":928,"x_min":93,"x_max":835,"o":"m 835 733 l 558 733 l 558 -12 q 541 -78 558 -55 q 481 -102 523 -102 l 408 -102 l 408 -267 q 447 -277 425 -273 q 494 -285 470 -281 q 541 -290 518 -288 q 581 -292 564 -292 q 695 -277 647 -292 q 774 -233 743 -263 q 820 -155 805 -202 q 835 -40 835 -107 l 835 733 m 370 733 l 93 733 l 93 0 l 370 0 l 370 733 m 370 1007 l 93 1007 l 93 819 l 370 819 l 370 1007 m 835 1007 l 558 1007 l 558 819 l 835 819 l 835 1007 z "},"ī":{"ha":463,"x_min":12,"x_max":451,"o":"m 370 733 l 93 733 l 93 0 l 370 0 l 370 733 m 451 979 l 12 979 l 12 840 l 451 840 l 451 979 z "},"į":{"ha":463,"x_min":93,"x_max":456,"o":"m 370 733 l 93 733 l 93 0 l 203 0 q 165 -59 182 -26 q 148 -135 148 -91 q 163 -208 148 -178 q 202 -257 178 -238 q 258 -284 227 -275 q 323 -293 290 -293 q 456 -272 393 -293 l 456 -167 l 398 -167 q 358 -161 374 -167 q 333 -145 342 -155 q 319 -122 323 -135 q 315 -96 315 -109 q 322 -43 315 -69 q 337 0 330 -17 l 370 0 l 370 733 m 337 1007 l 125 1007 l 125 814 l 337 814 l 337 1007 z "},"ĩ":{"ha":463,"x_min":-77,"x_max":540,"o":"m 370 733 l 93 733 l 93 0 l 370 0 l 370 733 m 427 1007 q 402 967 420 983 q 357 951 384 951 q 301 960 330 951 q 243 979 273 969 q 182 998 213 989 q 117 1007 151 1007 q 38 990 73 1007 q -24 945 2 973 q -63 881 -50 917 q -77 808 -77 846 l 35 808 q 61 848 43 832 q 105 864 79 864 q 161 855 133 864 q 220 836 190 846 q 281 817 250 826 q 345 808 312 808 q 425 825 389 808 q 486 870 460 842 q 526 933 512 898 q 540 1007 540 969 l 427 1007 z "},"j":{"ha":463,"x_min":-57,"x_max":370,"o":"m 370 733 l 93 733 l 93 -12 q 75 -78 93 -55 q 16 -102 57 -102 l -57 -102 l -57 -267 q -18 -277 -41 -273 q 29 -285 5 -281 q 76 -290 53 -288 q 115 -292 98 -292 q 230 -277 182 -292 q 309 -233 278 -263 q 355 -155 340 -202 q 370 -40 370 -107 l 370 733 m 370 1007 l 93 1007 l 93 819 l 370 819 l 370 1007 z "},"ĵ":{"ha":463,"x_min":-57,"x_max":515,"o":"m 370 733 l 93 733 l 93 -12 q 75 -78 93 -55 q 16 -102 57 -102 l -57 -102 l -57 -267 q -18 -277 -41 -273 q 29 -285 5 -281 q 76 -290 53 -288 q 115 -292 98 -292 q 230 -277 182 -292 q 309 -233 278 -263 q 355 -155 340 -202 q 370 -40 370 -107 l 370 733 m 322 1007 l 144 1007 l -49 806 l 129 806 l 232 913 l 335 806 l 515 806 l 322 1007 z "},"k":{"ha":926,"x_min":83,"x_max":924,"o":"m 359 1008 l 83 1008 l 83 0 l 359 0 l 359 158 l 456 252 l 610 0 l 924 0 l 646 437 l 917 733 l 595 733 l 359 453 l 359 1008 z "},"ķ":{"ha":926,"x_min":83,"x_max":924,"o":"m 359 1008 l 83 1008 l 83 0 l 359 0 l 359 158 l 456 252 l 610 0 l 924 0 l 646 437 l 917 733 l 595 733 l 359 453 l 359 1008 m 553 -82 l 373 -82 l 373 -243 l 442 -243 l 385 -370 l 478 -370 l 553 -233 l 553 -82 z "},"ĸ":{"ha":926,"x_min":83,"x_max":924,"o":"m 917 733 l 595 733 l 359 453 l 359 733 l 83 733 l 83 0 l 359 0 l 359 158 l 456 252 l 610 0 l 924 0 l 646 437 l 917 733 z "},"l":{"ha":463,"x_min":93,"x_max":370,"o":"m 370 1007 l 93 1007 l 93 0 l 370 0 l 370 1007 z "},"ĺ":{"ha":463,"x_min":93,"x_max":496,"o":"m 370 0 l 370 1007 l 93 1007 l 93 0 l 370 0 m 496 1224 l 494 1230 l 226 1230 l 98 1044 l 275 1044 l 496 1224 z "},"ľ":{"ha":694,"x_min":93,"x_max":679,"o":"m 370 1007 l 93 1007 l 93 0 l 370 0 l 370 1007 m 679 956 l 420 956 l 420 713 l 519 713 l 420 460 l 553 460 l 679 726 l 679 956 z "},"ļ":{"ha":463,"x_min":93,"x_max":370,"o":"m 370 1007 l 93 1007 l 93 0 l 370 0 l 370 1007 m 321 -82 l 141 -82 l 141 -243 l 210 -243 l 153 -370 l 246 -370 l 321 -233 l 321 -82 z "},"ŀ":{"ha":742,"x_min":93,"x_max":711,"o":"m 370 1007 l 93 1007 l 93 0 l 370 0 l 370 1007 m 711 734 l 499 734 l 499 541 l 711 541 l 711 734 z "},"ſ":{"ha":542,"x_min":11,"x_max":532,"o":"m 382 1023 q 273 1011 323 1023 q 189 968 224 998 q 134 889 153 939 q 114 764 114 839 l 114 733 l 11 733 l 11 546 l 114 546 l 114 0 l 390 0 l 390 762 q 394 795 390 781 q 406 819 397 810 q 430 832 415 827 q 468 836 445 836 l 532 836 l 532 999 q 498 1008 517 1004 q 458 1016 479 1013 q 417 1021 437 1019 q 382 1023 397 1023 z "},"ł":{"ha":463,"x_min":-20,"x_max":503,"o":"m 370 1007 l 93 1007 l 93 463 l -20 393 l -20 256 l 93 325 l 93 0 l 370 0 l 370 487 l 503 568 l 503 707 l 370 625 l 370 1007 z "},"m":{"ha":1389,"x_min":83,"x_max":1307,"o":"m 1057 750 q 984 741 1020 750 q 916 715 948 732 q 855 676 883 699 q 806 624 827 652 q 723 717 779 684 q 583 750 668 750 q 508 741 545 750 q 438 716 471 732 q 377 676 405 700 q 328 624 349 653 l 310 733 l 83 733 l 83 0 l 359 0 l 359 431 q 367 475 359 454 q 389 512 375 496 q 424 537 404 528 q 469 546 444 546 q 534 517 512 546 q 557 441 557 488 l 557 0 l 833 0 l 833 431 q 841 475 833 454 q 863 512 849 496 q 898 537 878 528 q 943 546 918 546 q 1008 517 986 546 q 1031 441 1031 488 l 1031 0 l 1307 0 l 1307 475 q 1292 591 1307 540 q 1245 677 1276 642 q 1167 731 1215 713 q 1057 750 1120 750 z "},"n":{"ha":926,"x_min":83,"x_max":844,"o":"m 589 750 q 512 741 550 750 q 441 715 475 732 q 378 675 407 699 q 328 623 349 652 l 310 733 l 83 733 l 83 0 l 359 0 l 359 431 q 368 475 359 454 q 391 512 376 496 q 428 537 406 528 q 475 546 449 546 q 545 517 522 546 q 568 441 568 488 l 568 0 l 844 0 l 844 475 q 829 591 844 540 q 782 677 813 642 q 702 731 750 713 q 589 750 654 750 z "},"ń":{"ha":926,"x_min":83,"x_max":844,"o":"m 589 750 q 512 741 550 750 q 441 715 475 732 q 378 675 407 699 q 328 623 349 652 l 310 733 l 83 733 l 83 0 l 359 0 l 359 431 q 368 475 359 454 q 391 512 376 496 q 428 537 406 528 q 475 546 449 546 q 545 517 522 546 q 568 441 568 488 l 568 0 l 844 0 l 844 475 q 829 591 844 540 q 782 677 813 642 q 702 731 750 713 q 589 750 654 750 m 728 1002 l 726 1007 l 458 1007 l 330 822 l 507 822 l 728 1002 z "},"ŉ":{"ha":1192,"x_min":112,"x_max":1109,"o":"m 292 956 l 112 956 l 112 795 l 181 795 l 124 667 l 217 667 l 292 804 l 292 956 m 854 750 q 778 741 815 750 q 706 715 740 732 q 643 675 672 699 q 593 623 614 652 l 575 733 l 349 733 l 349 0 l 625 0 l 625 431 q 633 475 625 454 q 656 512 641 496 q 693 537 671 528 q 740 546 714 546 q 810 517 787 546 q 833 441 833 488 l 833 0 l 1109 0 l 1109 475 q 1094 591 1109 540 q 1047 677 1078 642 q 967 731 1015 713 q 854 750 919 750 z "},"ň":{"ha":926,"x_min":83,"x_max":844,"o":"m 589 750 q 512 741 550 750 q 441 715 475 732 q 378 675 407 699 q 328 623 349 652 l 310 733 l 83 733 l 83 0 l 359 0 l 359 431 q 368 475 359 454 q 391 512 376 496 q 428 537 406 528 q 475 546 449 546 q 545 517 522 546 q 568 441 568 488 l 568 0 l 844 0 l 844 475 q 829 591 844 540 q 782 677 813 642 q 702 731 750 713 q 589 750 654 750 m 745 1007 l 565 1007 l 462 900 l 359 1007 l 181 1007 l 374 806 l 552 806 l 745 1007 z "},"ņ":{"ha":926,"x_min":83,"x_max":844,"o":"m 589 750 q 512 741 550 750 q 441 715 475 732 q 378 675 407 699 q 328 623 349 652 l 310 733 l 83 733 l 83 0 l 359 0 l 359 431 q 368 475 359 454 q 391 512 376 496 q 428 537 406 528 q 475 546 449 546 q 545 517 522 546 q 568 441 568 488 l 568 0 l 844 0 l 844 475 q 829 591 844 540 q 782 677 813 642 q 702 731 750 713 q 589 750 654 750 m 553 -82 l 373 -82 l 373 -243 l 442 -243 l 385 -370 l 478 -370 l 553 -233 l 553 -82 z "},"ñ":{"ha":926,"x_min":83,"x_max":844,"o":"m 589 750 q 512 741 550 750 q 441 715 475 732 q 378 675 407 699 q 328 623 349 652 l 310 733 l 83 733 l 83 0 l 359 0 l 359 431 q 368 475 359 454 q 391 512 376 496 q 428 537 406 528 q 475 546 449 546 q 545 517 522 546 q 568 441 568 488 l 568 0 l 844 0 l 844 475 q 829 591 844 540 q 782 677 813 642 q 702 731 750 713 q 589 750 654 750 m 659 1007 q 634 967 652 983 q 589 951 616 951 q 533 960 562 951 q 475 979 505 969 q 414 998 445 989 q 349 1007 382 1007 q 270 990 305 1007 q 208 945 234 973 q 169 881 182 917 q 155 808 155 846 l 267 808 q 293 848 275 832 q 337 864 311 864 q 393 855 365 864 q 452 836 422 846 q 513 817 481 826 q 577 808 544 808 q 656 825 621 808 q 718 870 692 842 q 758 933 744 898 q 772 1007 772 969 l 659 1007 z "},"o":{"ha":926,"x_min":50,"x_max":876,"o":"m 463 750 q 293 726 369 750 q 162 655 216 703 q 79 535 109 607 q 50 367 50 463 q 79 198 50 271 q 162 78 109 126 q 293 7 216 31 q 463 -17 369 -17 q 633 7 556 -17 q 763 78 709 31 q 847 198 817 126 q 876 367 876 271 q 847 535 876 463 q 763 655 817 607 q 633 726 709 703 q 463 750 556 750 m 463 562 q 525 551 499 562 q 568 520 551 541 q 592 471 585 500 q 600 406 600 442 l 600 326 q 568 212 600 254 q 463 171 535 171 q 400 181 426 171 q 358 212 374 192 q 334 261 342 232 q 326 326 326 290 l 326 406 q 334 471 326 442 q 358 520 342 500 q 400 551 374 541 q 463 562 426 562 z "},"ó":{"ha":926,"x_min":50,"x_max":876,"o":"m 463 750 q 293 726 369 750 q 162 655 216 703 q 79 535 109 607 q 50 367 50 463 q 79 198 50 271 q 162 78 109 126 q 293 7 216 31 q 463 -17 369 -17 q 633 7 556 -17 q 763 78 709 31 q 847 198 817 126 q 876 367 876 271 q 847 535 876 463 q 763 655 817 607 q 633 726 709 703 q 463 750 556 750 m 463 562 q 525 551 499 562 q 568 520 551 541 q 592 471 585 500 q 600 406 600 442 l 600 326 q 568 212 600 254 q 463 171 535 171 q 400 181 426 171 q 358 212 374 192 q 334 261 342 232 q 326 326 326 290 l 326 406 q 334 471 326 442 q 358 520 342 500 q 400 551 374 541 q 463 562 426 562 m 728 1002 l 726 1007 l 458 1007 l 330 822 l 507 822 l 728 1002 z "},"ŏ":{"ha":926,"x_min":50,"x_max":876,"o":"m 463 750 q 293 726 369 750 q 162 655 216 703 q 79 535 109 607 q 50 367 50 463 q 79 198 50 271 q 162 78 109 126 q 293 7 216 31 q 463 -17 369 -17 q 633 7 556 -17 q 763 78 709 31 q 847 198 817 126 q 876 367 876 271 q 847 535 876 463 q 763 655 817 607 q 633 726 709 703 q 463 750 556 750 m 463 562 q 525 551 499 562 q 568 520 551 541 q 592 471 585 500 q 600 406 600 442 l 600 326 q 568 212 600 254 q 463 171 535 171 q 400 181 426 171 q 358 212 374 192 q 334 261 342 232 q 326 326 326 290 l 326 406 q 334 471 326 442 q 358 520 342 500 q 400 551 374 541 q 463 562 426 562 m 587 1007 q 575 984 585 996 q 549 961 565 972 q 510 944 532 951 q 463 937 488 937 q 415 944 437 937 q 378 961 394 951 q 352 984 362 972 q 340 1007 342 996 l 207 1007 q 224 937 207 972 q 275 872 241 901 q 355 825 308 844 q 463 807 402 807 q 569 825 522 807 q 650 872 617 844 q 702 937 684 901 q 720 1007 720 972 l 587 1007 z "},"ô":{"ha":926,"x_min":50,"x_max":876,"o":"m 463 750 q 293 726 369 750 q 162 655 216 703 q 79 535 109 607 q 50 367 50 463 q 79 198 50 271 q 162 78 109 126 q 293 7 216 31 q 463 -17 369 -17 q 633 7 556 -17 q 763 78 709 31 q 847 198 817 126 q 876 367 876 271 q 847 535 876 463 q 763 655 817 607 q 633 726 709 703 q 463 750 556 750 m 463 562 q 525 551 499 562 q 568 520 551 541 q 592 471 585 500 q 600 406 600 442 l 600 326 q 568 212 600 254 q 463 171 535 171 q 400 181 426 171 q 358 212 374 192 q 334 261 342 232 q 326 326 326 290 l 326 406 q 334 471 326 442 q 358 520 342 500 q 400 551 374 541 q 463 562 426 562 m 552 1007 l 374 1007 l 181 806 l 359 806 l 462 913 l 565 806 l 745 806 l 552 1007 z "},"ö":{"ha":926,"x_min":50,"x_max":876,"o":"m 463 750 q 293 726 369 750 q 162 655 216 703 q 79 535 109 607 q 50 367 50 463 q 79 198 50 271 q 162 78 109 126 q 293 7 216 31 q 463 -17 369 -17 q 633 7 556 -17 q 763 78 709 31 q 847 198 817 126 q 876 367 876 271 q 847 535 876 463 q 763 655 817 607 q 633 726 709 703 q 463 750 556 750 m 463 562 q 525 551 499 562 q 568 520 551 541 q 592 471 585 500 q 600 406 600 442 l 600 326 q 568 212 600 254 q 463 171 535 171 q 400 181 426 171 q 358 212 374 192 q 334 261 342 232 q 326 326 326 290 l 326 406 q 334 471 326 442 q 358 520 342 500 q 400 551 374 541 q 463 562 426 562 m 722 1007 l 511 1007 l 511 814 l 722 814 l 722 1007 m 416 1007 l 205 1007 l 205 814 l 416 814 l 416 1007 z "},"œ":{"ha":1389,"x_min":40,"x_max":1353,"o":"m 953 750 q 697 681 798 750 q 582 733 647 715 q 439 750 517 750 q 274 726 348 750 q 149 655 201 703 q 68 535 97 607 q 40 367 40 463 q 68 198 40 271 q 149 78 97 126 q 274 7 201 31 q 439 -17 348 -17 q 582 0 517 -17 q 697 53 646 17 q 818 0 749 17 q 970 -17 886 -17 q 1137 3 1065 -17 q 1257 59 1208 22 q 1329 148 1305 96 q 1353 267 1353 201 l 1084 267 q 1078 225 1084 244 q 1057 191 1072 205 q 1020 168 1043 176 q 964 160 997 160 q 861 202 892 160 q 831 319 831 243 l 1353 319 l 1353 367 q 1326 538 1353 466 q 1249 657 1300 610 q 1123 727 1198 705 q 953 750 1048 750 m 439 562 q 533 520 505 562 q 562 406 562 478 l 562 326 q 533 212 562 254 q 439 171 505 171 q 345 212 373 171 q 317 326 317 254 l 317 406 q 323 471 317 442 q 345 520 330 500 q 383 551 359 541 q 439 562 406 562 m 964 574 q 1045 541 1017 574 q 1074 450 1074 508 l 832 450 q 869 541 838 507 q 964 574 900 574 z "},"ò":{"ha":926,"x_min":50,"x_max":876,"o":"m 463 750 q 293 726 369 750 q 162 655 216 703 q 79 535 109 607 q 50 367 50 463 q 79 198 50 271 q 162 78 109 126 q 293 7 216 31 q 463 -17 369 -17 q 633 7 556 -17 q 763 78 709 31 q 847 198 817 126 q 876 367 876 271 q 847 535 876 463 q 763 655 817 607 q 633 726 709 703 q 463 750 556 750 m 463 562 q 525 551 499 562 q 568 520 551 541 q 592 471 585 500 q 600 406 600 442 l 600 326 q 568 212 600 254 q 463 171 535 171 q 400 181 426 171 q 358 212 374 192 q 334 261 342 232 q 326 326 326 290 l 326 406 q 334 471 326 442 q 358 520 342 500 q 400 551 374 541 q 463 562 426 562 m 597 822 l 469 1007 l 201 1007 l 198 1002 l 420 822 l 597 822 z "},"ő":{"ha":926,"x_min":50,"x_max":876,"o":"m 463 750 q 293 726 369 750 q 162 655 216 703 q 79 535 109 607 q 50 367 50 463 q 79 198 50 271 q 162 78 109 126 q 293 7 216 31 q 463 -17 369 -17 q 633 7 556 -17 q 763 78 709 31 q 847 198 817 126 q 876 367 876 271 q 847 535 876 463 q 763 655 817 607 q 633 726 709 703 q 463 750 556 750 m 463 562 q 525 551 499 562 q 568 520 551 541 q 592 471 585 500 q 600 406 600 442 l 600 326 q 568 212 600 254 q 463 171 535 171 q 400 181 426 171 q 358 212 374 192 q 334 261 342 232 q 326 326 326 290 l 326 406 q 334 471 326 442 q 358 520 342 500 q 400 551 374 541 q 463 562 426 562 m 575 1007 l 328 1007 l 222 821 l 385 821 l 578 1002 l 575 1007 m 868 1007 l 621 1007 l 515 821 l 677 821 l 871 1002 l 868 1007 z "},"ō":{"ha":926,"x_min":50,"x_max":876,"o":"m 463 750 q 293 726 369 750 q 162 655 216 703 q 79 535 109 607 q 50 367 50 463 q 79 198 50 271 q 162 78 109 126 q 293 7 216 31 q 463 -17 369 -17 q 633 7 556 -17 q 763 78 709 31 q 847 198 817 126 q 876 367 876 271 q 847 535 876 463 q 763 655 817 607 q 633 726 709 703 q 463 750 556 750 m 463 562 q 525 551 499 562 q 568 520 551 541 q 592 471 585 500 q 600 406 600 442 l 600 326 q 568 212 600 254 q 463 171 535 171 q 400 181 426 171 q 358 212 374 192 q 334 261 342 232 q 326 326 326 290 l 326 406 q 334 471 326 442 q 358 520 342 500 q 400 551 374 541 q 463 562 426 562 m 683 979 l 243 979 l 243 840 l 683 840 l 683 979 z "},"ø":{"ha":926,"x_min":50,"x_max":876,"o":"m 864 777 l 736 777 l 681 707 q 463 750 589 750 q 293 726 369 750 q 162 655 216 703 q 79 535 109 607 q 50 367 50 463 q 82 193 50 266 q 171 71 113 119 l 64 -62 l 192 -62 l 257 20 q 352 -7 301 2 q 463 -17 404 -17 q 633 7 556 -17 q 763 78 709 31 q 847 198 817 126 q 876 367 876 271 q 847 533 876 462 q 765 653 819 604 l 864 777 m 597 444 q 600 425 599 435 q 600 406 600 416 l 600 326 q 568 212 600 254 q 463 171 535 171 q 423 175 441 171 q 390 186 405 178 l 597 444 m 463 562 q 509 556 488 562 q 546 541 530 551 l 330 271 q 326 326 326 296 l 326 406 q 334 471 326 442 q 358 520 342 500 q 400 551 374 541 q 463 562 426 562 z "},"ǿ":{"ha":926,"x_min":50,"x_max":876,"o":"m 864 777 l 736 777 l 681 707 q 463 750 589 750 q 293 726 369 750 q 162 655 216 703 q 79 535 109 607 q 50 367 50 463 q 82 193 50 266 q 171 71 113 119 l 64 -62 l 192 -62 l 257 20 q 352 -7 301 2 q 463 -17 404 -17 q 633 7 556 -17 q 763 78 709 31 q 847 198 817 126 q 876 367 876 271 q 847 533 876 462 q 765 653 819 604 l 864 777 m 597 444 q 600 425 599 435 q 600 406 600 416 l 600 326 q 568 212 600 254 q 463 171 535 171 q 423 175 441 171 q 390 186 405 178 l 597 444 m 463 562 q 509 556 488 562 q 546 541 530 551 l 330 271 q 326 326 326 296 l 326 406 q 334 471 326 442 q 358 520 342 500 q 400 551 374 541 q 463 562 426 562 m 729 1002 l 726 1007 l 458 1007 l 330 822 l 507 822 l 729 1002 z "},"õ":{"ha":926,"x_min":50,"x_max":876,"o":"m 463 750 q 293 726 369 750 q 162 655 216 703 q 79 535 109 607 q 50 367 50 463 q 79 198 50 271 q 162 78 109 126 q 293 7 216 31 q 463 -17 369 -17 q 633 7 556 -17 q 763 78 709 31 q 847 198 817 126 q 876 367 876 271 q 847 535 876 463 q 763 655 817 607 q 633 726 709 703 q 463 750 556 750 m 463 562 q 525 551 499 562 q 568 520 551 541 q 592 471 585 500 q 600 406 600 442 l 600 326 q 568 212 600 254 q 463 171 535 171 q 400 181 426 171 q 358 212 374 192 q 334 261 342 232 q 326 326 326 290 l 326 406 q 334 471 326 442 q 358 520 342 500 q 400 551 374 541 q 463 562 426 562 m 659 1007 q 634 967 652 983 q 589 951 616 951 q 533 960 562 951 q 475 979 505 969 q 414 998 445 989 q 349 1007 382 1007 q 270 990 305 1007 q 208 945 234 973 q 169 881 182 917 q 155 808 155 846 l 267 808 q 293 848 275 832 q 337 864 311 864 q 393 855 365 864 q 452 836 422 846 q 513 817 481 826 q 577 808 544 808 q 656 825 621 808 q 718 870 692 842 q 758 933 744 898 q 772 1007 772 969 l 659 1007 z "},"p":{"ha":926,"x_min":85,"x_max":876,"o":"m 567 750 q 433 721 492 750 q 334 629 374 691 l 310 733 l 85 733 l 85 -273 l 361 -273 l 361 66 q 452 3 401 24 q 567 -17 504 -17 q 697 7 640 -17 q 794 78 755 31 q 855 198 834 126 q 876 366 876 270 q 855 535 876 463 q 794 655 834 607 q 697 726 755 703 q 567 750 640 750 m 481 546 q 536 536 513 546 q 573 507 559 526 q 594 463 587 489 q 600 404 600 437 l 600 330 q 594 272 600 298 q 573 227 587 245 q 536 197 559 208 q 481 187 513 187 q 425 200 448 187 q 387 234 402 212 q 365 283 372 255 q 358 345 358 312 l 358 390 q 365 451 358 422 q 387 500 372 479 q 425 534 402 522 q 481 546 448 546 z "},"q":{"ha":926,"x_min":50,"x_max":842,"o":"m 359 750 q 229 726 287 750 q 132 655 172 703 q 71 535 92 607 q 50 366 50 463 q 71 198 50 270 q 132 78 92 126 q 229 7 172 31 q 359 -17 287 -17 q 473 3 421 -17 q 566 66 526 24 l 566 -273 l 842 -273 l 842 733 l 616 733 l 593 629 q 493 721 552 691 q 359 750 434 750 m 446 546 q 501 534 478 546 q 539 500 524 522 q 561 451 554 479 q 568 390 568 422 l 568 345 q 561 283 568 312 q 539 234 554 255 q 501 200 524 212 q 446 187 478 187 q 390 197 413 187 q 353 227 368 208 q 333 272 339 245 q 326 330 326 298 l 326 404 q 333 463 326 437 q 353 507 339 489 q 390 536 368 526 q 446 546 413 546 z "},"r":{"ha":616,"x_min":83,"x_max":611,"o":"m 529 751 q 466 744 496 751 q 409 720 435 736 q 361 680 382 704 q 328 623 340 655 l 310 733 l 83 733 l 83 0 l 359 0 l 359 326 q 368 400 359 368 q 396 456 376 433 q 446 491 415 479 q 522 503 477 503 l 611 503 l 611 734 q 589 743 602 739 q 564 749 578 746 q 529 751 549 751 z "},"ŕ":{"ha":616,"x_min":74,"x_max":611,"o":"m 529 751 q 466 744 496 751 q 409 720 435 736 q 361 680 382 704 q 328 623 340 655 l 310 733 l 83 733 l 83 0 l 359 0 l 359 326 q 368 400 359 368 q 396 456 376 433 q 446 491 415 479 q 522 503 477 503 l 611 503 l 611 734 q 589 743 602 739 q 564 749 578 746 q 529 751 549 751 m 473 1002 l 470 1007 l 202 1007 l 74 822 l 251 822 l 473 1002 z "},"ř":{"ha":616,"x_min":26,"x_max":611,"o":"m 529 751 q 466 744 496 751 q 409 720 435 736 q 361 680 382 704 q 328 623 340 655 l 310 733 l 83 733 l 83 0 l 359 0 l 359 326 q 368 400 359 368 q 396 456 376 433 q 446 491 415 479 q 522 503 477 503 l 611 503 l 611 734 q 589 743 602 739 q 564 749 578 746 q 529 751 549 751 m 591 1007 l 410 1007 l 307 900 l 204 1007 l 26 1007 l 220 806 l 397 806 l 591 1007 z "},"ŗ":{"ha":616,"x_min":83,"x_max":611,"o":"m 529 751 q 466 744 496 751 q 409 720 435 736 q 361 680 382 704 q 328 623 340 655 l 310 733 l 83 733 l 83 0 l 359 0 l 359 326 q 368 400 359 368 q 396 456 376 433 q 446 491 415 479 q 522 503 477 503 l 611 503 l 611 734 q 589 743 602 739 q 564 749 578 746 q 529 751 549 751 m 399 -82 l 218 -82 l 218 -243 l 288 -243 l 231 -370 l 323 -370 l 399 -233 l 399 -82 z "},"s":{"ha":848,"x_min":45,"x_max":802,"o":"m 432 750 q 293 738 359 750 q 176 698 227 726 q 94 622 125 669 q 64 501 64 574 q 84 410 64 447 q 138 348 104 373 q 214 309 171 323 q 301 285 256 294 q 388 269 345 275 q 464 255 431 263 q 517 235 497 248 q 538 203 538 223 q 525 172 538 183 q 495 156 513 161 q 457 150 477 151 q 422 149 437 149 q 386 152 407 149 q 347 164 366 155 q 315 190 328 174 q 301 233 302 207 l 301 239 l 45 239 q 78 122 45 170 q 165 42 111 73 q 286 -3 218 12 q 422 -17 353 -17 q 567 -5 498 -17 q 688 37 635 7 q 771 117 740 67 q 802 243 802 168 q 781 337 802 299 q 728 400 761 375 q 652 440 694 425 q 565 463 609 454 q 477 477 520 471 q 401 489 435 482 q 348 507 368 496 q 328 538 328 518 q 340 565 328 555 q 369 579 352 574 q 402 584 385 583 q 428 585 419 585 q 459 582 442 585 q 491 571 476 579 q 515 550 505 564 q 526 514 526 536 l 783 514 q 753 624 783 579 q 673 697 722 669 q 560 738 623 725 q 432 750 497 750 z "},"ś":{"ha":848,"x_min":45,"x_max":802,"o":"m 432 750 q 293 738 359 750 q 176 698 227 726 q 94 622 125 669 q 64 501 64 574 q 84 410 64 447 q 138 348 104 373 q 214 309 171 323 q 301 285 256 294 q 388 269 345 275 q 464 255 431 263 q 517 235 497 248 q 538 203 538 223 q 525 172 538 183 q 495 156 513 161 q 457 150 477 151 q 422 149 437 149 q 386 152 407 149 q 347 164 366 155 q 315 190 328 174 q 301 233 302 207 l 301 239 l 45 239 q 78 122 45 170 q 165 42 111 73 q 286 -3 218 12 q 422 -17 353 -17 q 567 -5 498 -17 q 688 37 635 7 q 771 117 740 67 q 802 243 802 168 q 781 337 802 299 q 728 400 761 375 q 652 440 694 425 q 565 463 609 454 q 477 477 520 471 q 401 489 435 482 q 348 507 368 496 q 328 538 328 518 q 340 565 328 555 q 369 579 352 574 q 402 584 385 583 q 428 585 419 585 q 459 582 442 585 q 491 571 476 579 q 515 550 505 564 q 526 514 526 536 l 783 514 q 753 624 783 579 q 673 697 722 669 q 560 738 623 725 q 432 750 497 750 m 690 1002 l 687 1007 l 419 1007 l 291 822 l 468 822 l 690 1002 z "},"š":{"ha":848,"x_min":45,"x_max":802,"o":"m 432 750 q 293 738 359 750 q 176 698 227 726 q 94 622 125 669 q 64 501 64 574 q 84 410 64 447 q 138 348 104 373 q 214 309 171 323 q 301 285 256 294 q 388 269 345 275 q 464 255 431 263 q 517 235 497 248 q 538 203 538 223 q 525 172 538 183 q 495 156 513 161 q 457 150 477 151 q 422 149 437 149 q 386 152 407 149 q 347 164 366 155 q 315 190 328 174 q 301 233 302 207 l 301 239 l 45 239 q 78 122 45 170 q 165 42 111 73 q 286 -3 218 12 q 422 -17 353 -17 q 567 -5 498 -17 q 688 37 635 7 q 771 117 740 67 q 802 243 802 168 q 781 337 802 299 q 728 400 761 375 q 652 440 694 425 q 565 463 609 454 q 477 477 520 471 q 401 489 435 482 q 348 507 368 496 q 328 538 328 518 q 340 565 328 555 q 369 579 352 574 q 402 584 385 583 q 428 585 419 585 q 459 582 442 585 q 491 571 476 579 q 515 550 505 564 q 526 514 526 536 l 783 514 q 753 624 783 579 q 673 697 722 669 q 560 738 623 725 q 432 750 497 750 m 707 1007 l 526 1007 l 423 900 l 320 1007 l 142 1007 l 336 806 l 513 806 l 707 1007 z "},"ş":{"ha":848,"x_min":45,"x_max":802,"o":"m 432 750 q 293 738 359 750 q 176 698 227 726 q 94 622 125 669 q 64 501 64 574 q 84 410 64 447 q 138 348 104 373 q 214 309 171 323 q 301 285 256 294 q 388 269 345 275 q 464 255 431 263 q 517 235 497 248 q 538 203 538 223 q 525 172 538 183 q 495 156 513 161 q 457 150 477 151 q 422 149 437 149 q 386 152 407 149 q 347 164 366 155 q 315 190 328 174 q 301 233 302 207 l 301 239 l 45 239 q 74 129 45 175 q 150 52 102 82 q 258 5 197 21 q 383 -16 319 -12 l 368 -119 l 420 -119 q 462 -131 451 -119 q 473 -164 473 -143 q 458 -197 473 -188 q 418 -207 443 -207 q 361 -205 390 -207 q 309 -201 333 -203 q 255 -196 281 -199 l 255 -271 q 290 -280 270 -276 q 334 -287 311 -284 q 381 -292 357 -290 q 430 -293 406 -293 q 483 -288 454 -293 q 536 -268 511 -282 q 577 -229 561 -254 q 594 -164 594 -203 q 584 -109 594 -132 q 555 -73 573 -87 q 514 -51 537 -58 q 465 -40 490 -43 l 469 -16 q 597 2 536 -12 q 703 47 658 17 q 775 125 749 77 q 802 243 802 173 q 781 337 802 299 q 728 400 761 375 q 652 440 694 425 q 565 463 609 454 q 477 477 520 471 q 401 489 435 482 q 348 507 368 496 q 328 538 328 518 q 340 565 328 555 q 369 579 352 574 q 402 584 385 583 q 428 585 419 585 q 459 582 442 585 q 491 571 476 579 q 515 550 505 564 q 526 514 526 536 l 783 514 q 753 624 783 579 q 673 697 722 669 q 560 738 623 725 q 432 750 497 750 z "},"ŝ":{"ha":848,"x_min":45,"x_max":802,"o":"m 432 750 q 293 738 359 750 q 176 698 227 726 q 94 622 125 669 q 64 501 64 574 q 84 410 64 447 q 138 348 104 373 q 214 309 171 323 q 301 285 256 294 q 388 269 345 275 q 464 255 431 263 q 517 235 497 248 q 538 203 538 223 q 525 172 538 183 q 495 156 513 161 q 457 150 477 151 q 422 149 437 149 q 386 152 407 149 q 347 164 366 155 q 315 190 328 174 q 301 233 302 207 l 301 239 l 45 239 q 78 122 45 170 q 165 42 111 73 q 286 -3 218 12 q 422 -17 353 -17 q 567 -5 498 -17 q 688 37 635 7 q 771 117 740 67 q 802 243 802 168 q 781 337 802 299 q 728 400 761 375 q 652 440 694 425 q 565 463 609 454 q 477 477 520 471 q 401 489 435 482 q 348 507 368 496 q 328 538 328 518 q 340 565 328 555 q 369 579 352 574 q 402 584 385 583 q 428 585 419 585 q 459 582 442 585 q 491 571 476 579 q 515 550 505 564 q 526 514 526 536 l 783 514 q 753 624 783 579 q 673 697 722 669 q 560 738 623 725 q 432 750 497 750 m 513 1007 l 336 1007 l 142 806 l 320 806 l 423 913 l 526 806 l 707 806 l 513 1007 z "},"t":{"ha":616,"x_min":37,"x_max":572,"o":"m 416 956 l 211 956 l 151 733 l 37 733 l 37 546 l 140 546 l 140 179 q 159 85 140 123 q 211 25 178 47 q 292 -7 245 2 q 395 -17 338 -17 q 436 -15 413 -17 q 484 -10 460 -14 q 532 -2 509 -7 q 572 8 555 3 l 572 171 l 494 171 q 456 177 471 171 q 432 195 441 183 q 420 225 423 208 q 416 267 416 243 l 416 546 l 572 546 l 572 733 l 416 733 l 416 956 z "},"ŧ":{"ha":616,"x_min":37,"x_max":572,"o":"m 416 956 l 211 956 l 151 733 l 37 733 l 37 546 l 140 546 l 140 430 l 43 430 l 43 291 l 140 291 l 140 179 q 159 85 140 123 q 211 25 178 47 q 292 -7 245 2 q 395 -17 338 -17 q 436 -15 413 -17 q 484 -10 460 -14 q 532 -2 509 -7 q 572 8 555 3 l 572 171 l 494 171 q 456 177 471 171 q 432 195 441 183 q 420 225 423 208 q 416 267 416 243 l 416 291 l 543 291 l 543 430 l 416 430 l 416 546 l 572 546 l 572 733 l 416 733 l 416 956 z "},"ť":{"ha":868,"x_min":37,"x_max":810,"o":"m 810 956 l 630 956 l 630 795 l 699 795 l 642 667 l 735 667 l 810 804 l 810 956 m 416 956 l 211 956 l 151 733 l 37 733 l 37 546 l 140 546 l 140 179 q 159 85 140 123 q 211 25 178 47 q 292 -7 245 2 q 395 -17 338 -17 q 436 -15 413 -17 q 484 -10 460 -14 q 532 -2 509 -7 q 572 8 555 3 l 572 171 l 494 171 q 456 177 471 171 q 432 195 441 183 q 420 225 423 208 q 416 267 416 243 l 416 546 l 572 546 l 572 733 l 416 733 l 416 956 z "},"ţ":{"ha":616,"x_min":37,"x_max":572,"o":"m 416 956 l 211 956 l 151 733 l 37 733 l 37 546 l 140 546 l 140 179 q 159 85 140 123 q 211 25 178 47 q 292 -7 245 2 q 395 -17 338 -17 q 436 -15 413 -17 q 484 -10 460 -14 q 532 -2 509 -7 q 572 8 555 3 l 572 171 l 494 171 q 456 177 471 171 q 432 195 441 183 q 420 225 423 208 q 416 267 416 243 l 416 546 l 572 546 l 572 733 l 416 733 l 416 956 m 459 -82 l 279 -82 l 279 -243 l 348 -243 l 291 -370 l 384 -370 l 459 -233 l 459 -82 z "},"þ":{"ha":926,"x_min":85,"x_max":876,"o":"m 361 1007 l 85 1007 l 85 -273 l 361 -273 l 361 66 q 452 3 401 24 q 567 -17 504 -17 q 697 7 640 -17 q 794 78 755 31 q 855 198 834 126 q 876 366 876 270 q 855 535 876 463 q 794 655 834 607 q 697 726 755 703 q 567 750 640 750 q 452 729 504 750 q 361 664 401 708 l 361 1007 m 481 546 q 536 536 513 546 q 573 507 559 526 q 594 463 587 489 q 600 404 600 437 l 600 330 q 594 272 600 298 q 573 227 587 245 q 536 197 559 208 q 481 187 513 187 q 425 200 448 187 q 387 234 402 212 q 365 283 372 255 q 358 345 358 312 l 358 390 q 365 451 358 422 q 387 500 372 479 q 425 534 402 522 q 481 546 448 546 z "},"u":{"ha":926,"x_min":81,"x_max":842,"o":"m 842 733 l 566 733 l 566 302 q 557 258 566 279 q 534 221 549 237 q 497 196 519 205 q 450 187 476 187 q 380 216 404 187 q 357 292 357 245 l 357 733 l 81 733 l 81 258 q 96 142 81 193 q 143 56 112 91 q 223 2 175 20 q 336 -17 271 -17 q 413 -8 375 -17 q 484 17 450 1 q 547 58 518 34 q 597 111 576 81 l 615 0 l 842 0 l 842 733 z "},"ú":{"ha":926,"x_min":81,"x_max":842,"o":"m 842 0 l 842 733 l 566 733 l 566 302 q 557 258 566 279 q 534 221 549 237 q 497 196 519 205 q 450 187 476 187 q 380 216 404 187 q 357 292 357 245 l 357 733 l 81 733 l 81 258 q 96 142 81 193 q 143 56 112 91 q 223 2 175 20 q 336 -17 271 -17 q 413 -8 375 -17 q 484 17 450 1 q 547 58 518 34 q 597 111 576 81 l 615 0 l 842 0 m 728 1002 l 726 1007 l 458 1007 l 330 822 l 507 822 l 728 1002 z "},"ŭ":{"ha":926,"x_min":81,"x_max":842,"o":"m 842 733 l 566 733 l 566 302 q 557 258 566 279 q 534 221 549 237 q 497 196 519 205 q 450 187 476 187 q 380 216 404 187 q 357 292 357 245 l 357 733 l 81 733 l 81 258 q 96 142 81 193 q 143 56 112 91 q 223 2 175 20 q 336 -17 271 -17 q 413 -8 375 -17 q 484 17 450 1 q 547 58 518 34 q 597 111 576 81 l 615 0 l 842 0 l 842 733 m 587 1007 q 575 984 585 996 q 549 961 565 972 q 510 944 532 951 q 463 937 488 937 q 415 944 437 937 q 378 961 394 951 q 352 984 362 972 q 340 1007 342 996 l 207 1007 q 224 937 207 972 q 275 872 241 901 q 355 825 308 844 q 463 807 402 807 q 569 825 522 807 q 650 872 617 844 q 702 937 684 901 q 720 1007 720 972 l 587 1007 z "},"û":{"ha":926,"x_min":81,"x_max":842,"o":"m 842 733 l 566 733 l 566 302 q 557 258 566 279 q 534 221 549 237 q 497 196 519 205 q 450 187 476 187 q 380 216 404 187 q 357 292 357 245 l 357 733 l 81 733 l 81 258 q 96 142 81 193 q 143 56 112 91 q 223 2 175 20 q 336 -17 271 -17 q 413 -8 375 -17 q 484 17 450 1 q 547 58 518 34 q 597 111 576 81 l 615 0 l 842 0 l 842 733 m 552 1007 l 374 1007 l 181 806 l 359 806 l 462 913 l 565 806 l 745 806 l 552 1007 z "},"ü":{"ha":926,"x_min":81,"x_max":842,"o":"m 842 733 l 566 733 l 566 302 q 557 258 566 279 q 534 221 549 237 q 497 196 519 205 q 450 187 476 187 q 380 216 404 187 q 357 292 357 245 l 357 733 l 81 733 l 81 258 q 96 142 81 193 q 143 56 112 91 q 223 2 175 20 q 336 -17 271 -17 q 413 -8 375 -17 q 484 17 450 1 q 547 58 518 34 q 597 111 576 81 l 615 0 l 842 0 l 842 733 m 722 1007 l 511 1007 l 511 814 l 722 814 l 722 1007 m 416 1007 l 205 1007 l 205 814 l 416 814 l 416 1007 z "},"ù":{"ha":926,"x_min":81,"x_max":842,"o":"m 842 0 l 842 733 l 566 733 l 566 302 q 557 258 566 279 q 534 221 549 237 q 497 196 519 205 q 450 187 476 187 q 380 216 404 187 q 357 292 357 245 l 357 733 l 81 733 l 81 258 q 96 142 81 193 q 143 56 112 91 q 223 2 175 20 q 336 -17 271 -17 q 413 -8 375 -17 q 484 17 450 1 q 547 58 518 34 q 597 111 576 81 l 615 0 l 842 0 m 597 822 l 469 1007 l 201 1007 l 198 1002 l 420 822 l 597 822 z "},"ű":{"ha":926,"x_min":81,"x_max":864,"o":"m 842 733 l 566 733 l 566 302 q 557 258 566 279 q 534 221 549 237 q 497 196 519 205 q 450 187 476 187 q 380 216 404 187 q 357 292 357 245 l 357 733 l 81 733 l 81 258 q 96 142 81 193 q 143 56 112 91 q 223 2 175 20 q 336 -17 271 -17 q 413 -8 375 -17 q 484 17 450 1 q 547 58 518 34 q 597 111 576 81 l 615 0 l 842 0 l 842 733 m 568 1007 l 321 1007 l 215 821 l 378 821 l 571 1002 l 568 1007 m 861 1007 l 614 1007 l 509 821 l 671 821 l 864 1002 l 861 1007 z "},"ū":{"ha":926,"x_min":81,"x_max":842,"o":"m 842 733 l 566 733 l 566 302 q 557 258 566 279 q 534 221 549 237 q 497 196 519 205 q 450 187 476 187 q 380 216 404 187 q 357 292 357 245 l 357 733 l 81 733 l 81 258 q 96 142 81 193 q 143 56 112 91 q 223 2 175 20 q 336 -17 271 -17 q 413 -8 375 -17 q 484 17 450 1 q 547 58 518 34 q 597 111 576 81 l 615 0 l 842 0 l 842 733 m 683 979 l 243 979 l 243 840 l 683 840 l 683 979 z "},"ⁿ":{"ha":606,"x_min":60,"x_max":557,"o":"m 390 1022 q 340 1017 364 1022 q 293 1001 315 1011 q 253 977 271 991 q 220 946 234 963 l 207 1013 l 60 1013 l 60 572 l 240 572 l 240 831 q 245 858 240 845 q 261 880 251 870 q 284 895 271 889 q 315 900 298 900 q 361 882 346 900 q 376 838 376 865 l 376 572 l 557 572 l 557 857 q 516 979 557 935 q 390 1022 475 1022 z "},"ų":{"ha":926,"x_min":81,"x_max":842,"o":"m 842 733 l 566 733 l 566 302 q 557 258 566 279 q 534 221 549 237 q 497 196 519 205 q 450 187 476 187 q 380 216 404 187 q 357 292 357 245 l 357 733 l 81 733 l 81 258 q 96 142 81 193 q 143 56 112 91 q 223 2 175 20 q 336 -17 271 -17 q 413 -8 375 -17 q 484 17 450 1 q 547 58 518 34 q 597 111 576 81 l 612 17 l 595 17 q 570 -14 583 2 q 548 -48 558 -30 q 531 -88 538 -66 q 525 -135 525 -109 q 540 -208 525 -178 q 579 -257 555 -238 q 635 -284 604 -275 q 701 -293 667 -293 q 833 -272 770 -293 l 833 -167 l 775 -167 q 735 -161 751 -167 q 710 -145 720 -155 q 696 -122 701 -135 q 692 -96 692 -109 q 699 -43 692 -69 q 714 0 707 -17 l 842 0 l 842 733 z "},"ů":{"ha":926,"x_min":81,"x_max":842,"o":"m 842 733 l 566 733 l 566 302 q 557 258 566 279 q 534 221 549 237 q 497 196 519 205 q 450 187 476 187 q 380 216 404 187 q 357 292 357 245 l 357 733 l 81 733 l 81 258 q 96 142 81 193 q 143 56 112 91 q 223 2 175 20 q 336 -17 271 -17 q 413 -8 375 -17 q 484 17 450 1 q 547 58 518 34 q 597 111 576 81 l 615 0 l 842 0 l 842 733 m 463 1103 q 405 1091 432 1103 q 356 1058 377 1079 q 324 1010 336 1038 q 312 951 312 983 q 324 893 312 920 q 357 845 336 865 q 405 813 378 825 q 463 802 433 802 q 522 813 494 802 q 570 846 549 825 q 603 893 591 866 q 614 951 614 921 q 602 1011 614 983 q 569 1059 590 1038 q 521 1091 549 1079 q 463 1103 494 1103 m 463 1007 q 503 992 487 1007 q 519 953 519 977 q 504 912 519 928 q 463 896 488 896 q 424 911 439 896 q 408 950 408 926 q 423 991 408 975 q 463 1007 438 1007 z "},"ũ":{"ha":926,"x_min":81,"x_max":842,"o":"m 842 733 l 566 733 l 566 302 q 557 258 566 279 q 534 221 549 237 q 497 196 519 205 q 450 187 476 187 q 380 216 404 187 q 357 292 357 245 l 357 733 l 81 733 l 81 258 q 96 142 81 193 q 143 56 112 91 q 223 2 175 20 q 336 -17 271 -17 q 413 -8 375 -17 q 484 17 450 1 q 547 58 518 34 q 597 111 576 81 l 615 0 l 842 0 l 842 733 m 659 1007 q 634 967 652 983 q 589 951 616 951 q 533 960 562 951 q 475 979 505 969 q 414 998 445 989 q 349 1007 382 1007 q 270 990 305 1007 q 208 945 234 973 q 169 881 182 917 q 155 808 155 846 l 267 808 q 293 848 275 832 q 337 864 311 864 q 393 855 365 864 q 452 836 422 846 q 513 817 481 826 q 577 808 544 808 q 656 825 621 808 q 718 870 692 842 q 758 933 744 898 q 772 1007 772 969 l 659 1007 z "},"v":{"ha":848,"x_min":0,"x_max":848,"o":"m 848 733 l 576 733 l 441 277 l 432 277 l 297 733 l 0 733 l 278 0 l 568 0 l 848 733 z "},"w":{"ha":1311,"x_min":0,"x_max":1311,"o":"m 1311 733 l 1042 733 l 929 300 l 920 300 l 808 733 l 533 733 l 418 300 l 408 300 l 297 733 l 0 733 l 268 0 l 538 0 l 653 408 l 659 408 l 772 0 l 1042 0 l 1311 733 z "},"ẃ":{"ha":1311,"x_min":0,"x_max":1311,"o":"m 1042 0 l 1311 733 l 1042 733 l 929 300 l 920 300 l 808 733 l 533 733 l 418 300 l 408 300 l 297 733 l 0 733 l 268 0 l 538 0 l 653 408 l 659 408 l 772 0 l 1042 0 m 921 1002 l 918 1007 l 650 1007 l 522 822 l 699 822 l 921 1002 z "},"ŵ":{"ha":1311,"x_min":0,"x_max":1311,"o":"m 1311 733 l 1042 733 l 929 300 l 920 300 l 808 733 l 533 733 l 418 300 l 408 300 l 297 733 l 0 733 l 268 0 l 538 0 l 653 408 l 659 408 l 772 0 l 1042 0 l 1311 733 m 745 1007 l 567 1007 l 374 806 l 551 806 l 654 913 l 758 806 l 938 806 l 745 1007 z "},"ẅ":{"ha":1311,"x_min":0,"x_max":1311,"o":"m 1311 733 l 1042 733 l 929 300 l 920 300 l 808 733 l 533 733 l 418 300 l 408 300 l 297 733 l 0 733 l 268 0 l 538 0 l 653 408 l 659 408 l 772 0 l 1042 0 l 1311 733 m 914 1007 l 703 1007 l 703 814 l 914 814 l 914 1007 m 608 1007 l 397 1007 l 397 814 l 608 814 l 608 1007 z "},"ẁ":{"ha":1311,"x_min":0,"x_max":1311,"o":"m 1042 0 l 1311 733 l 1042 733 l 929 300 l 920 300 l 808 733 l 533 733 l 418 300 l 408 300 l 297 733 l 0 733 l 268 0 l 538 0 l 653 408 l 659 408 l 772 0 l 1042 0 m 789 822 l 661 1007 l 393 1007 l 391 1002 l 613 822 l 789 822 z "},"x":{"ha":926,"x_min":5,"x_max":920,"o":"m 903 733 l 597 733 l 481 539 l 475 539 l 358 733 l 33 733 l 288 389 l 5 0 l 313 0 l 453 231 l 458 231 l 597 0 l 920 0 l 644 382 l 903 733 z "},"y":{"ha":848,"x_min":0,"x_max":848,"o":"m 848 733 l 576 733 l 447 245 l 437 245 l 297 733 l 0 733 l 292 0 q 283 -31 289 -14 q 264 -64 277 -49 q 228 -91 250 -80 q 168 -102 205 -102 l 57 -102 l 57 -267 q 124 -284 83 -276 q 216 -292 166 -292 q 355 -268 296 -292 q 457 -203 414 -245 q 531 -104 500 -161 q 587 22 562 -46 l 848 733 z "},"ý":{"ha":848,"x_min":0,"x_max":848,"o":"m 848 733 l 576 733 l 447 245 l 437 245 l 297 733 l 0 733 l 292 0 q 283 -31 289 -14 q 264 -64 277 -49 q 228 -91 250 -80 q 168 -102 205 -102 l 57 -102 l 57 -267 q 124 -284 83 -276 q 216 -292 166 -292 q 355 -268 296 -292 q 457 -203 414 -245 q 531 -104 500 -161 q 587 22 562 -46 l 848 733 m 690 1002 l 687 1007 l 419 1007 l 291 822 l 468 822 l 690 1002 z "},"ŷ":{"ha":848,"x_min":0,"x_max":848,"o":"m 848 733 l 576 733 l 447 245 l 437 245 l 297 733 l 0 733 l 292 0 q 283 -31 289 -14 q 264 -64 277 -49 q 228 -91 250 -80 q 168 -102 205 -102 l 57 -102 l 57 -267 q 124 -284 83 -276 q 216 -292 166 -292 q 355 -268 296 -292 q 457 -203 414 -245 q 531 -104 500 -161 q 587 22 562 -46 l 848 733 m 513 1007 l 336 1007 l 142 806 l 320 806 l 423 913 l 526 806 l 707 806 l 513 1007 z "},"ÿ":{"ha":848,"x_min":0,"x_max":848,"o":"m 848 733 l 576 733 l 447 245 l 437 245 l 297 733 l 0 733 l 292 0 q 283 -31 289 -14 q 264 -64 277 -49 q 228 -91 250 -80 q 168 -102 205 -102 l 57 -102 l 57 -267 q 124 -284 83 -276 q 216 -292 166 -292 q 355 -268 296 -292 q 457 -203 414 -245 q 531 -104 500 -161 q 587 22 562 -46 l 848 733 m 683 1007 l 472 1007 l 472 814 l 683 814 l 683 1007 m 377 1007 l 166 1007 l 166 814 l 377 814 l 377 1007 z "},"ỳ":{"ha":848,"x_min":0,"x_max":848,"o":"m 848 733 l 576 733 l 447 245 l 437 245 l 297 733 l 0 733 l 292 0 q 283 -31 289 -14 q 264 -64 277 -49 q 228 -91 250 -80 q 168 -102 205 -102 l 57 -102 l 57 -267 q 124 -284 83 -276 q 216 -292 166 -292 q 355 -268 296 -292 q 457 -203 414 -245 q 531 -104 500 -161 q 587 22 562 -46 l 848 733 m 558 822 l 430 1007 l 162 1007 l 159 1002 l 382 822 l 558 822 z "},"z":{"ha":772,"x_min":28,"x_max":743,"o":"m 730 733 l 45 733 l 45 546 l 336 546 l 28 90 l 28 0 l 743 0 l 743 187 l 419 187 l 730 647 l 730 733 z "},"ź":{"ha":772,"x_min":28,"x_max":743,"o":"m 730 647 l 730 733 l 45 733 l 45 546 l 336 546 l 28 90 l 28 0 l 743 0 l 743 187 l 419 187 l 730 647 m 652 1002 l 649 1007 l 381 1007 l 253 822 l 430 822 l 652 1002 z "},"ž":{"ha":772,"x_min":28,"x_max":743,"o":"m 730 733 l 45 733 l 45 546 l 336 546 l 28 90 l 28 0 l 743 0 l 743 187 l 419 187 l 730 647 l 730 733 m 669 1007 l 488 1007 l 385 900 l 282 1007 l 104 1007 l 298 806 l 475 806 l 669 1007 z "},"ż":{"ha":772,"x_min":28,"x_max":743,"o":"m 730 733 l 45 733 l 45 546 l 336 546 l 28 90 l 28 0 l 743 0 l 743 187 l 419 187 l 730 647 l 730 733 m 492 1007 l 281 1007 l 281 814 l 492 814 l 492 1007 z "},"ﬁ":{"ha":926,"x_min":11,"x_max":842,"o":"m 374 1023 q 265 1011 314 1023 q 180 968 216 998 q 125 889 145 939 q 106 764 106 839 l 106 733 l 11 733 l 11 546 l 106 546 l 106 0 l 382 0 l 382 546 l 507 546 l 507 733 l 382 733 l 382 762 q 385 795 382 781 q 396 819 388 810 q 419 832 405 827 q 457 836 434 836 l 507 836 l 507 999 q 476 1008 494 1004 q 441 1016 459 1013 q 405 1021 422 1019 q 374 1023 387 1023 m 842 733 l 566 733 l 566 0 l 842 0 l 842 733 m 842 1007 l 566 1007 l 566 819 l 842 819 l 842 1007 z "},"ﬂ":{"ha":926,"x_min":11,"x_max":843,"o":"m 374 1023 q 265 1011 314 1023 q 180 968 216 998 q 125 889 145 939 q 106 764 106 839 l 106 733 l 11 733 l 11 546 l 106 546 l 106 0 l 382 0 l 382 546 l 507 546 l 507 733 l 382 733 l 382 762 q 385 795 382 781 q 396 819 388 810 q 419 832 405 827 q 457 836 434 836 l 507 836 l 507 999 q 476 1008 494 1004 q 441 1016 459 1013 q 405 1021 422 1019 q 374 1023 387 1023 m 843 1007 l 567 1007 l 567 0 l 843 0 l 843 1007 z "},"ª":{"ha":555,"x_min":17,"x_max":591,"o":"m 282 1023 q 173 1014 220 1023 q 94 986 126 1004 q 46 943 62 968 q 31 888 31 918 q 31 881 31 884 q 32 875 31 878 l 210 875 q 216 895 210 887 q 233 908 222 903 q 255 915 243 913 q 279 917 267 917 q 329 904 309 917 q 349 865 349 891 l 349 843 q 208 837 270 843 q 104 814 146 831 q 39 766 62 797 q 17 686 17 736 q 29 628 17 652 q 64 590 41 605 q 117 569 86 575 q 186 562 149 562 q 243 567 217 562 q 291 579 269 572 q 331 597 313 587 q 364 618 349 607 q 409 577 376 593 q 497 562 442 562 q 537 565 519 562 q 566 572 554 568 q 591 583 581 577 l 591 679 q 580 677 586 677 q 569 675 574 675 q 558 675 563 675 q 536 685 544 675 q 529 708 529 694 l 529 879 q 509 947 529 920 q 454 992 488 975 q 376 1016 420 1008 q 282 1023 331 1023 m 349 728 q 341 703 349 714 q 321 684 334 692 q 293 671 309 675 q 260 667 277 667 q 237 668 248 667 q 218 674 227 670 q 204 687 209 679 q 199 708 199 695 q 207 731 199 720 q 234 749 216 741 q 280 761 252 756 q 349 765 309 765 l 349 728 z "},"º":{"ha":555,"x_min":17,"x_max":557,"o":"m 286 1023 q 175 1009 225 1023 q 91 966 125 995 q 36 894 56 937 q 17 793 17 850 q 36 692 17 735 q 91 620 56 648 q 175 576 125 591 q 286 562 225 562 q 398 576 348 562 q 483 620 448 591 q 537 692 518 648 q 557 793 557 735 q 537 894 557 850 q 483 966 518 937 q 398 1009 448 995 q 286 1023 348 1023 m 286 911 q 355 886 334 911 q 376 817 376 861 l 376 770 q 355 700 376 726 q 286 675 334 675 q 218 700 238 675 q 197 770 197 726 l 197 817 q 218 886 197 861 q 286 911 238 911 z "},"ƒ":{"ha":926,"x_min":50,"x_max":879,"o":"m 734 1023 q 624 1011 675 1023 q 530 968 572 998 q 458 889 488 939 q 411 764 427 839 l 393 679 l 290 679 l 250 492 l 353 492 l 241 -31 q 231 -64 237 -50 q 214 -87 224 -78 q 187 -100 203 -96 q 149 -104 172 -104 l 85 -104 l 50 -267 q 82 -276 63 -272 q 120 -284 100 -281 q 160 -290 140 -288 q 195 -292 179 -292 q 306 -279 254 -292 q 399 -237 357 -267 q 471 -157 441 -207 q 518 -32 502 -107 l 629 492 l 771 492 l 811 679 l 669 679 l 688 762 q 698 795 692 781 q 715 819 705 810 q 742 832 726 827 q 781 836 758 836 l 844 836 l 879 999 q 847 1008 866 1004 q 809 1016 829 1013 q 769 1021 789 1019 q 734 1023 749 1023 z "},"∆":{"ha":1080,"x_min":37,"x_max":1050,"o":"m 37 0 l 1050 0 l 1050 97 l 724 956 l 361 956 l 37 97 l 37 0 m 534 728 l 540 728 l 695 213 l 372 213 l 534 728 z "},"Ω":{"ha":1186,"x_min":43,"x_max":1144,"o":"m 593 972 q 378 942 473 972 q 216 855 283 911 q 114 718 150 798 q 79 536 79 637 q 90 436 79 484 q 120 347 100 389 q 166 269 139 305 q 224 203 193 233 l 59 231 l 43 231 l 43 0 l 509 0 l 509 204 q 421 282 450 228 q 393 411 393 336 l 393 522 q 405 612 393 571 q 443 682 418 652 q 506 727 468 711 q 593 743 543 743 q 682 727 644 743 q 746 682 720 711 q 784 612 771 652 q 797 522 797 571 l 797 411 q 767 281 797 336 q 678 204 738 227 l 678 0 l 1144 0 l 1144 231 l 1128 231 l 962 203 q 1021 269 994 233 q 1068 347 1048 305 q 1099 436 1088 389 q 1110 536 1110 484 q 1075 718 1110 637 q 972 855 1039 798 q 809 942 905 911 q 593 972 713 972 z "},"µ":{"ha":926,"x_min":81,"x_max":842,"o":"m 842 733 l 566 733 l 566 302 q 557 258 566 279 q 534 221 549 237 q 497 196 519 205 q 450 187 476 187 q 380 216 404 187 q 357 292 357 245 l 357 733 l 81 733 l 81 -272 l 357 -272 l 357 -16 q 427 -4 393 -14 q 493 22 462 6 q 550 61 524 39 q 597 111 577 83 l 615 0 l 842 0 l 842 733 z "},"π":{"ha":982,"x_min":31,"x_max":943,"o":"m 943 733 l 304 733 q 123 720 191 733 q 31 684 56 707 l 52 546 q 116 556 80 553 q 199 559 153 559 q 195 476 199 522 q 186 380 192 430 q 172 277 180 330 q 155 175 164 225 q 134 81 145 125 q 113 0 123 36 l 357 0 q 379 69 368 28 q 399 158 390 110 q 416 260 408 207 q 430 367 424 314 q 439 469 435 420 q 444 559 443 519 l 572 559 l 572 212 q 574 141 572 176 q 578 79 575 107 q 586 31 581 51 q 598 0 591 10 l 842 0 q 829 93 834 35 q 823 229 823 151 l 823 559 l 925 559 l 943 733 z "},"¼":{"ha":1389,"x_min":53,"x_max":1358,"o":"m 1064 972 l 930 972 l 361 -17 l 493 -17 l 1064 972 m 383 962 l 322 962 q 262 931 296 946 q 193 903 229 916 q 121 883 157 891 q 53 872 85 874 l 53 777 l 201 777 l 201 517 l 53 517 l 53 389 l 526 389 l 526 517 l 383 517 l 383 962 m 968 583 q 931 486 952 534 q 887 393 910 437 q 839 310 863 349 q 793 241 814 271 l 793 118 l 1099 118 l 1099 0 l 1271 0 l 1271 118 l 1358 118 l 1358 240 l 1271 240 l 1271 528 l 1193 528 q 1177 487 1188 510 q 1153 441 1166 465 q 1124 396 1139 418 q 1099 358 1110 374 l 1099 240 l 918 240 q 964 287 940 260 q 1013 345 989 314 q 1060 408 1037 375 q 1100 472 1082 440 q 1131 532 1118 503 q 1146 583 1143 560 l 968 583 z "},"½":{"ha":1389,"x_min":53,"x_max":1354,"o":"m 1064 972 l 930 972 l 361 -17 l 493 -17 l 1064 972 m 383 964 l 322 964 q 262 932 296 947 q 193 905 229 917 q 121 884 157 892 q 53 873 85 876 l 53 778 l 201 778 l 201 518 l 53 518 l 53 390 l 526 390 l 526 518 l 383 518 l 383 964 m 1105 583 q 988 569 1038 583 q 904 530 937 555 q 853 468 870 504 q 836 389 836 432 q 836 380 836 385 q 838 371 836 376 l 1000 371 l 1000 387 q 1023 443 1000 421 q 1088 465 1046 465 q 1124 460 1109 465 q 1148 447 1139 455 q 1162 427 1158 438 q 1166 404 1166 416 q 1148 365 1166 385 q 1097 320 1130 345 q 1020 264 1065 296 q 922 189 975 233 q 887 157 903 174 q 859 122 871 140 q 841 84 848 104 q 835 40 835 64 l 835 0 l 1354 0 l 1354 142 l 1080 142 q 1177 202 1129 174 q 1263 261 1225 231 q 1324 328 1301 292 q 1348 411 1348 364 q 1331 481 1348 450 q 1282 536 1314 513 q 1206 571 1251 558 q 1105 583 1161 583 z "},"¾":{"ha":1389,"x_min":39,"x_max":1348,"o":"m 1064 972 l 930 972 l 361 -17 l 493 -17 l 1064 972 m 310 974 q 203 961 250 974 q 125 927 157 949 q 76 878 93 906 q 60 818 60 850 l 60 798 l 211 798 q 232 841 211 823 q 294 860 254 860 q 329 854 313 860 q 354 840 344 849 q 370 819 364 831 q 375 794 375 807 q 356 749 375 763 q 311 734 337 734 l 258 734 l 258 632 l 325 632 q 370 617 352 632 q 389 572 389 603 q 368 517 389 538 q 294 496 347 496 q 249 501 267 496 q 220 516 231 507 q 204 537 209 525 q 200 564 200 549 l 39 564 l 39 546 q 55 482 39 512 q 104 430 71 452 q 187 395 137 408 q 306 382 237 382 q 423 395 374 382 q 504 430 472 408 q 553 483 536 452 q 571 547 569 513 q 542 636 571 600 q 461 688 513 672 l 461 693 q 498 712 481 700 q 527 741 515 725 q 546 777 539 758 q 553 818 553 796 q 537 878 553 850 q 490 927 521 906 q 413 961 458 949 q 310 974 368 974 m 957 583 q 920 486 941 534 q 876 393 899 437 q 828 310 852 349 q 782 241 804 271 l 782 118 l 1088 118 l 1088 0 l 1260 0 l 1260 118 l 1348 118 l 1348 240 l 1260 240 l 1260 528 l 1182 528 q 1166 487 1177 510 q 1141 441 1155 465 q 1114 396 1128 418 q 1088 358 1099 374 l 1088 240 l 907 240 q 953 287 928 260 q 1001 345 977 314 q 1048 408 1025 375 q 1089 472 1071 440 q 1119 532 1107 503 q 1135 583 1131 560 l 957 583 z "},"⁄":{"ha":232,"x_min":-248,"x_max":456,"o":"m 456 972 l 322 972 l -248 -17 l -115 -17 l 456 972 z "},"⅛":{"ha":1389,"x_min":53,"x_max":1349,"o":"m 1065 972 l 932 972 l 363 -17 l 494 -17 l 1065 972 m 383 962 l 322 962 q 262 931 296 946 q 193 903 229 916 q 121 883 157 891 q 53 872 85 874 l 53 777 l 201 777 l 201 517 l 53 517 l 53 389 l 526 389 l 526 517 l 383 517 l 383 962 m 1082 232 q 1114 228 1099 232 q 1142 215 1130 223 q 1161 193 1154 206 q 1168 164 1168 180 q 1143 113 1168 130 q 1082 96 1118 96 q 1021 113 1044 96 q 997 164 997 130 q 1004 193 997 180 q 1022 215 1010 206 q 1049 228 1034 223 q 1082 232 1065 232 m 1082 575 q 986 564 1031 575 q 909 531 942 553 q 858 479 877 510 q 839 407 839 448 q 845 365 839 382 q 861 333 850 347 q 885 309 871 319 q 916 288 899 298 l 916 281 q 875 257 893 269 q 844 230 857 245 q 824 195 831 214 q 817 150 817 176 q 835 78 817 109 q 888 26 854 47 q 972 -6 923 5 q 1082 -17 1021 -17 q 1192 -6 1142 -17 q 1276 26 1241 5 q 1330 78 1311 47 q 1349 150 1349 109 q 1342 195 1349 176 q 1321 230 1335 214 q 1290 257 1308 245 q 1249 281 1272 269 l 1249 288 q 1279 309 1265 298 q 1303 333 1293 319 q 1319 365 1314 347 q 1325 407 1325 382 q 1306 479 1325 448 q 1254 531 1287 510 q 1177 564 1221 553 q 1082 575 1133 575 m 1082 463 q 1143 448 1118 463 q 1168 400 1168 433 q 1161 371 1168 382 q 1142 352 1154 359 q 1114 341 1130 345 q 1082 338 1099 338 q 1049 341 1065 338 q 1022 352 1034 345 q 1004 371 1010 359 q 997 400 997 382 q 1021 448 997 433 q 1082 463 1044 463 z "},"⅜":{"ha":1389,"x_min":45,"x_max":1360,"o":"m 1065 972 l 932 972 l 363 -17 l 494 -17 l 1065 972 m 315 974 q 209 961 255 974 q 130 927 162 949 q 82 878 98 906 q 65 818 65 850 l 65 798 l 216 798 q 238 841 216 823 q 300 860 259 860 q 334 854 319 860 q 359 840 349 849 q 375 819 370 831 q 380 794 380 807 q 361 749 380 763 q 317 734 342 734 l 264 734 l 264 632 l 330 632 q 376 617 358 632 q 395 572 395 603 q 373 517 395 538 q 300 496 352 496 q 254 501 272 496 q 225 516 236 507 q 210 537 214 525 q 205 564 205 549 l 45 564 l 45 546 q 61 482 45 512 q 110 430 77 452 q 193 395 142 408 q 311 382 243 382 q 429 395 379 382 q 512 430 479 408 q 561 483 545 452 q 576 547 576 513 q 548 636 576 600 q 467 688 519 672 l 467 693 q 504 712 487 700 q 533 741 521 725 q 551 777 545 758 q 558 818 558 796 q 542 878 558 850 q 495 927 526 906 q 419 961 464 949 q 315 974 374 974 m 1093 232 q 1125 228 1109 232 q 1153 215 1141 223 q 1172 193 1165 206 q 1179 164 1179 180 q 1173 134 1179 146 q 1154 113 1166 121 q 1127 100 1143 104 q 1093 96 1112 96 q 1032 113 1055 96 q 1008 164 1008 130 q 1015 193 1008 180 q 1034 215 1022 206 q 1060 228 1045 223 q 1093 232 1076 232 m 1093 575 q 998 564 1042 575 q 921 531 954 553 q 869 479 888 510 q 850 407 850 448 q 856 365 850 382 q 872 333 862 347 q 896 309 882 319 q 926 288 910 298 l 926 281 q 886 257 904 269 q 855 230 867 245 q 835 195 842 214 q 828 150 828 176 q 847 78 828 109 q 900 26 865 47 q 983 -6 934 5 q 1093 -17 1032 -17 q 1203 -6 1154 -17 q 1287 26 1252 5 q 1341 78 1322 47 q 1360 150 1360 109 q 1353 195 1360 176 q 1333 230 1345 214 q 1301 257 1320 245 q 1260 281 1283 269 l 1260 288 q 1290 309 1276 298 q 1314 333 1304 319 q 1330 365 1324 347 q 1336 407 1336 382 q 1317 479 1336 448 q 1265 531 1298 510 q 1188 564 1232 553 q 1093 575 1143 575 m 1093 463 q 1127 459 1112 463 q 1154 448 1143 456 q 1173 428 1166 440 q 1179 400 1179 416 q 1172 371 1179 382 q 1153 352 1165 359 q 1125 341 1141 345 q 1093 338 1109 338 q 1060 341 1076 338 q 1034 352 1045 345 q 1015 371 1022 359 q 1008 400 1008 382 q 1032 448 1008 433 q 1093 463 1055 463 z "},"⅝":{"ha":1389,"x_min":53,"x_max":1358,"o":"m 1067 972 l 933 972 l 364 -17 l 496 -17 l 1067 972 m 541 956 l 106 956 l 79 635 l 224 616 q 233 628 227 621 q 248 642 239 635 q 273 653 258 648 q 311 659 288 659 q 352 652 334 659 q 382 633 370 645 q 401 606 395 622 q 407 572 407 591 q 382 512 407 536 q 310 488 358 488 q 237 511 262 488 q 212 568 212 534 l 53 568 q 71 488 53 524 q 123 427 88 452 q 209 387 157 401 q 329 372 260 372 q 436 388 389 372 q 517 430 484 404 q 568 493 550 457 q 586 570 586 529 q 571 651 586 615 q 527 712 555 688 q 458 750 498 737 q 368 764 418 764 q 312 758 336 764 q 270 745 288 752 q 235 726 250 736 l 241 814 l 541 814 l 541 956 m 1092 232 q 1124 228 1108 232 q 1152 215 1139 223 q 1171 193 1164 206 q 1178 164 1178 180 q 1171 134 1178 146 q 1153 113 1164 121 q 1126 100 1141 104 q 1092 96 1110 96 q 1030 113 1054 96 q 1007 164 1007 130 q 1014 193 1007 180 q 1032 215 1021 206 q 1059 228 1044 223 q 1092 232 1074 232 m 1092 575 q 997 564 1041 575 q 919 531 952 553 q 867 479 886 510 q 848 407 848 448 q 854 365 848 382 q 870 333 860 347 q 895 309 881 319 q 925 288 909 298 l 925 281 q 884 257 903 269 q 853 230 866 245 q 834 195 841 214 q 827 150 827 176 q 845 78 827 109 q 898 26 864 47 q 982 -6 932 5 q 1092 -17 1031 -17 q 1201 -6 1152 -17 q 1285 26 1251 5 q 1339 78 1320 47 q 1358 150 1358 109 q 1351 195 1358 176 q 1331 230 1344 214 q 1300 257 1318 245 q 1258 281 1281 269 l 1258 288 q 1289 309 1275 298 q 1313 333 1303 319 q 1329 365 1323 347 q 1335 407 1335 382 q 1316 479 1335 448 q 1264 531 1297 510 q 1186 564 1231 553 q 1092 575 1142 575 m 1092 463 q 1126 459 1110 463 q 1153 448 1141 456 q 1171 428 1164 440 q 1178 400 1178 416 q 1171 371 1178 382 q 1152 352 1164 359 q 1124 341 1139 345 q 1092 338 1108 338 q 1059 341 1074 338 q 1032 352 1044 345 q 1014 371 1021 359 q 1007 400 1007 382 q 1030 448 1007 433 q 1092 463 1054 463 z "},"⅞":{"ha":1389,"x_min":79,"x_max":1304,"o":"m 985 972 l 851 972 l 282 -17 l 414 -17 l 985 972 m 607 956 l 79 956 l 79 812 l 379 812 q 300 717 336 767 q 238 612 264 667 q 197 500 212 557 q 182 383 182 443 l 385 383 l 385 432 q 403 555 385 496 q 453 670 422 614 q 524 778 484 726 q 607 879 564 830 l 607 956 m 1038 232 q 1069 228 1054 232 q 1097 215 1085 223 q 1117 193 1109 206 q 1124 164 1124 180 q 1099 113 1124 130 q 1038 96 1074 96 q 976 113 1000 96 q 953 164 953 130 q 960 193 953 180 q 978 215 966 206 q 1005 228 989 223 q 1038 232 1020 232 m 1038 575 q 942 564 987 575 q 865 531 898 553 q 813 479 832 510 q 794 407 794 448 q 800 365 794 382 q 817 333 806 347 q 841 309 827 319 q 871 288 854 298 l 871 281 q 830 257 848 269 q 799 230 812 245 q 780 195 787 214 q 772 150 772 176 q 791 78 772 109 q 844 26 810 47 q 927 -6 878 5 q 1038 -17 977 -17 q 1147 -6 1098 -17 q 1231 26 1196 5 q 1285 78 1266 47 q 1304 150 1304 109 q 1297 195 1304 176 q 1277 230 1290 214 q 1246 257 1264 245 q 1204 281 1227 269 l 1204 288 q 1235 309 1221 298 q 1259 333 1249 319 q 1275 365 1269 347 q 1280 407 1280 382 q 1261 479 1280 448 q 1210 531 1242 510 q 1133 564 1177 553 q 1038 575 1088 575 m 1038 463 q 1099 448 1074 463 q 1124 400 1124 433 q 1117 371 1124 382 q 1097 352 1109 359 q 1069 341 1085 345 q 1038 338 1054 338 q 1005 341 1020 338 q 978 352 989 345 q 960 371 966 359 q 953 400 953 382 q 976 448 953 433 q 1038 463 1000 463 z "},"²":{"ha":555,"x_min":22,"x_max":542,"o":"m 293 1023 q 175 1009 226 1023 q 91 970 125 996 q 41 909 58 945 q 24 829 24 873 q 24 821 24 825 q 25 811 24 817 l 187 811 l 187 828 q 210 883 187 861 q 275 905 233 905 q 311 900 296 905 q 335 887 326 895 q 350 867 345 878 q 354 844 354 857 q 336 805 354 825 q 285 760 317 785 q 208 704 252 736 q 110 629 163 673 q 74 597 90 614 q 47 563 58 581 q 29 524 35 545 q 22 481 22 504 l 22 440 l 542 440 l 542 582 l 268 582 q 364 642 317 614 q 450 702 412 671 q 511 768 488 732 q 534 851 534 804 q 517 922 534 890 q 469 976 500 954 q 393 1011 438 998 q 293 1023 349 1023 z "},"³":{"ha":555,"x_min":21,"x_max":553,"o":"m 292 1023 q 185 1011 232 1023 q 107 978 139 999 q 58 928 75 956 q 41 868 41 900 l 41 847 l 193 847 q 215 891 193 872 q 277 909 236 909 q 311 904 296 909 q 336 889 326 899 q 351 868 346 880 q 357 844 357 857 q 338 799 357 813 q 293 785 319 785 l 240 785 l 240 682 l 307 682 q 353 668 334 682 q 371 623 371 653 q 350 567 371 589 q 277 546 328 546 q 231 551 249 546 q 201 566 212 557 q 186 587 191 575 q 182 614 182 600 l 21 614 l 21 596 q 37 532 21 562 q 86 480 53 503 q 169 445 119 458 q 288 432 219 432 q 405 445 355 432 q 486 480 454 458 q 534 533 518 503 q 553 597 551 563 q 524 686 553 650 q 443 737 496 722 l 443 743 q 480 762 463 750 q 509 791 497 774 q 528 827 521 807 q 534 868 534 846 q 518 928 534 900 q 471 978 503 956 q 395 1011 440 999 q 292 1023 350 1023 z "},"¹":{"ha":555,"x_min":41,"x_max":515,"o":"m 372 1013 l 311 1013 q 251 981 285 996 q 181 954 218 966 q 109 933 145 941 q 41 922 73 924 l 41 827 l 191 827 l 191 567 l 41 567 l 41 439 l 515 439 l 515 567 l 372 567 l 372 1013 z "},"*":{"ha":772,"x_min":132,"x_max":639,"o":"m 450 956 l 321 956 l 338 786 l 197 885 l 132 774 l 288 701 l 132 631 l 197 518 l 338 616 l 321 447 l 450 447 l 433 616 l 574 518 l 639 631 l 484 701 l 639 774 l 574 885 l 433 787 l 450 956 z "},"\\":{"ha":386,"x_min":-3,"x_max":387,"o":"m 165 1022 l -3 1022 l 218 -66 l 387 -66 l 165 1022 z "},"•":{"ha":694,"x_min":122,"x_max":572,"o":"m 347 704 q 260 686 301 704 q 189 638 219 669 q 140 567 158 608 q 122 479 122 526 q 140 392 122 433 q 189 320 158 351 q 260 272 219 290 q 347 254 301 254 q 434 272 393 254 q 506 320 475 290 q 554 392 536 351 q 572 479 572 433 q 554 567 572 526 q 506 638 536 608 q 434 686 475 669 q 347 704 393 704 z "},":":{"ha":463,"x_min":85,"x_max":379,"o":"m 379 733 l 85 733 l 85 456 l 379 456 l 379 733 m 379 277 l 85 277 l 85 0 l 379 0 l 379 277 z "},",":{"ha":463,"x_min":83,"x_max":379,"o":"m 379 277 l 85 277 l 85 0 l 197 0 l 83 -254 l 233 -254 l 379 16 l 379 277 z "},"…":{"ha":1389,"x_min":85,"x_max":1305,"o":"m 379 277 l 85 277 l 85 0 l 379 0 l 379 277 m 842 277 l 547 277 l 547 0 l 842 0 l 842 277 m 1305 277 l 1011 277 l 1011 0 l 1305 0 l 1305 277 z "},"!":{"ha":463,"x_min":65,"x_max":397,"o":"m 397 956 l 65 956 l 142 342 l 318 342 l 397 956 m 368 257 l 93 257 l 93 0 l 368 0 l 368 257 z "},"‼":{"ha":839,"x_min":65,"x_max":779,"o":"m 779 956 l 447 956 l 524 342 l 700 342 l 779 956 m 368 257 l 93 257 l 93 0 l 368 0 l 368 257 m 750 257 l 475 257 l 475 0 l 750 0 l 750 257 m 397 956 l 65 956 l 142 342 l 318 342 l 397 956 z "},"¡":{"ha":463,"x_min":65,"x_max":397,"o":"m 318 392 l 142 392 l 65 -222 l 397 -222 l 318 392 m 368 733 l 93 733 l 93 476 l 368 476 l 368 733 z "},"′":{"ha":422,"x_min":82,"x_max":354,"o":"m 351 1007 l 104 1007 l 82 710 l 244 710 l 354 1002 l 351 1007 z "},"#":{"ha":917,"x_min":28,"x_max":888,"o":"m 822 972 l 656 972 l 595 697 l 440 697 l 503 972 l 334 972 l 272 697 l 92 697 l 92 543 l 241 543 l 203 372 l 28 372 l 28 221 l 167 221 l 117 -16 l 283 -16 l 334 221 l 493 221 l 441 -16 l 604 -16 l 656 221 l 842 221 l 842 372 l 694 372 l 730 543 l 888 543 l 888 697 l 758 697 l 822 972 m 567 542 l 526 371 l 368 371 l 406 542 l 567 542 z "},"‾":{"ha":694,"x_min":1,"x_max":696,"o":"m 696 1169 l 1 1169 l 1 1083 l 696 1083 l 696 1169 z "},".":{"ha":463,"x_min":85,"x_max":379,"o":"m 379 277 l 85 277 l 85 0 l 379 0 l 379 277 z "},"·":{"ha":463,"x_min":98,"x_max":364,"o":"m 364 581 l 98 581 l 98 326 l 364 326 l 364 581 z "},"?":{"ha":848,"x_min":52,"x_max":786,"o":"m 431 972 q 279 952 349 972 q 159 893 210 932 q 80 801 109 855 q 52 679 52 747 q 53 653 52 665 q 56 627 54 640 l 311 627 q 310 645 310 636 q 310 664 310 654 q 313 707 310 686 q 327 744 317 728 q 354 770 336 760 q 400 781 372 781 q 439 772 422 781 q 468 751 456 764 q 486 720 479 738 q 492 684 492 703 q 478 631 492 655 q 445 586 465 608 q 401 543 425 564 q 358 502 378 523 q 325 458 338 481 q 311 411 311 436 l 311 342 l 549 342 l 549 371 q 566 407 549 389 q 610 444 584 425 q 667 486 637 463 q 724 539 698 509 q 768 605 751 568 q 786 689 786 642 q 760 806 786 753 q 688 896 734 859 q 575 952 641 932 q 431 972 510 972 m 570 257 l 294 257 l 294 0 l 570 0 l 570 257 z "},"¿":{"ha":848,"x_min":64,"x_max":799,"o":"m 539 390 l 301 390 l 301 361 q 283 325 301 342 q 239 288 266 307 q 182 245 213 269 q 125 193 152 222 q 81 127 99 163 q 64 43 64 90 q 90 -74 64 -22 q 162 -163 115 -126 q 274 -220 209 -200 q 419 -240 340 -240 q 571 -220 501 -240 q 691 -161 640 -199 q 770 -69 742 -123 q 799 53 799 -15 q 797 79 799 66 q 794 106 795 92 l 539 106 q 541 87 541 96 q 541 68 541 77 q 537 25 541 46 q 523 -12 533 4 q 496 -39 513 -28 q 450 -49 478 -49 q 411 -41 429 -49 q 382 -19 394 -33 q 364 12 370 -6 q 358 49 358 29 q 372 101 358 77 q 405 147 385 125 q 449 189 425 169 q 492 230 472 210 q 526 273 512 251 q 539 321 539 296 l 539 390 m 555 732 l 281 732 l 281 475 l 555 475 l 555 732 z "},"\"":{"ha":694,"x_min":82,"x_max":612,"o":"m 612 956 l 386 956 l 386 751 l 452 553 l 546 553 l 612 751 l 612 956 m 309 956 l 82 956 l 82 751 l 147 553 l 243 553 l 309 751 l 309 956 z "},"'":{"ha":386,"x_min":79,"x_max":306,"o":"m 306 956 l 79 956 l 79 751 l 144 553 l 239 553 l 306 751 l 306 956 z "},"″":{"ha":728,"x_min":82,"x_max":647,"o":"m 644 1007 l 397 1007 l 375 710 l 538 710 l 647 1002 l 644 1007 m 351 1007 l 104 1007 l 82 710 l 244 710 l 354 1002 l 351 1007 z "},";":{"ha":463,"x_min":83,"x_max":379,"o":"m 379 277 l 85 277 l 85 0 l 197 0 l 83 -254 l 233 -254 l 379 16 l 379 277 m 379 733 l 85 733 l 85 456 l 379 456 l 379 733 z "},"/":{"ha":386,"x_min":-3,"x_max":387,"o":"m 387 1022 l 220 1022 l -3 -66 l 167 -66 l 387 1022 z "},"_":{"ha":694,"x_min":0,"x_max":694,"o":"m 694 -89 l 0 -89 l 0 -175 l 694 -175 l 694 -89 z "},"‗":{"ha":694,"x_min":-1,"x_max":696,"o":"m 694 -221 l -1 -221 l -1 -307 l 694 -307 l 694 -221 m 696 -89 l 1 -89 l 1 -175 l 696 -175 l 696 -89 z "},"{":{"ha":541,"x_min":41,"x_max":485,"o":"m 485 1023 l 358 1023 q 288 1014 323 1023 q 225 986 253 1005 q 180 938 197 967 q 163 868 163 908 l 163 536 q 152 500 163 515 q 123 476 140 486 q 84 461 105 466 q 41 457 62 457 l 41 347 q 87 343 65 347 q 126 330 109 339 q 153 306 142 321 q 163 271 163 292 l 163 -66 q 180 -136 163 -106 q 225 -185 197 -165 q 288 -213 253 -204 q 358 -222 323 -222 l 485 -222 l 485 -86 q 451 -84 469 -86 q 418 -77 433 -83 q 391 -59 402 -71 q 379 -28 380 -47 l 366 253 q 329 358 362 321 q 225 396 295 396 l 225 408 q 329 446 295 408 q 366 551 362 484 l 379 831 q 391 861 380 850 q 418 878 402 872 q 452 886 434 884 q 485 888 470 888 l 485 1023 z "},"}":{"ha":541,"x_min":56,"x_max":498,"o":"m 56 1023 l 56 888 q 88 886 70 888 q 122 878 106 884 q 149 861 138 872 q 161 831 160 850 l 175 551 q 212 446 178 484 q 315 408 245 408 l 315 396 q 212 358 245 396 q 175 253 178 321 l 161 -28 q 149 -59 160 -47 q 122 -77 138 -71 q 89 -84 106 -83 q 56 -86 71 -86 l 56 -222 l 182 -222 q 252 -213 217 -222 q 315 -185 288 -204 q 360 -136 343 -165 q 378 -66 378 -106 l 378 271 q 388 306 378 292 q 415 330 398 321 q 453 343 431 339 q 498 347 475 347 l 498 457 q 456 461 477 457 q 417 476 435 466 q 389 500 400 486 q 378 536 378 515 l 378 868 q 360 938 378 908 q 315 986 343 967 q 252 1014 288 1005 q 182 1023 217 1023 l 56 1023 z "},"[":{"ha":541,"x_min":92,"x_max":471,"o":"m 471 1023 l 92 1023 l 92 -222 l 471 -222 l 471 -79 l 313 -79 l 313 880 l 471 880 l 471 1023 z "},"]":{"ha":541,"x_min":92,"x_max":471,"o":"m 471 1023 l 92 1023 l 92 880 l 250 880 l 250 -79 l 92 -79 l 92 -222 l 471 -222 l 471 1023 z "},"(":{"ha":541,"x_min":77,"x_max":493,"o":"m 326 1023 q 220 886 267 959 q 142 733 174 812 q 93 570 110 654 q 77 400 77 486 q 93 231 77 315 q 142 68 110 147 q 220 -85 174 -12 q 326 -222 267 -159 l 493 -222 q 418 -81 452 -159 q 359 79 384 -3 q 322 244 335 161 q 309 400 309 326 q 322 556 309 473 q 359 721 335 639 q 418 881 384 804 q 493 1023 452 959 l 326 1023 z "},")":{"ha":541,"x_min":47,"x_max":464,"o":"m 47 1023 q 122 881 88 959 q 180 721 156 804 q 218 556 205 639 q 232 400 232 473 q 218 244 232 326 q 180 79 205 161 q 122 -81 156 -3 q 47 -222 88 -159 l 214 -222 q 320 -85 273 -159 q 399 68 367 -12 q 447 231 431 147 q 464 400 464 315 q 447 570 464 486 q 399 733 431 654 q 320 886 367 812 q 214 1023 273 959 l 47 1023 z "},"—":{"ha":1389,"x_min":0,"x_max":1392,"o":"m 1392 464 l 0 464 l 0 272 l 1392 272 l 1392 464 z "},"–":{"ha":694,"x_min":0,"x_max":694,"o":"m 694 464 l 0 464 l 0 272 l 694 272 l 694 464 z "},"-":{"ha":463,"x_min":54,"x_max":408,"o":"m 408 492 l 54 492 l 54 272 l 408 272 l 408 492 z "},"­":{"ha":463,"x_min":54,"x_max":408,"o":"m 408 492 l 54 492 l 54 272 l 408 272 l 408 492 z "},"«":{"ha":926,"x_min":83,"x_max":842,"o":"m 842 733 l 643 733 l 411 450 l 643 165 l 842 165 l 650 450 l 842 733 m 514 733 l 315 733 l 83 450 l 315 165 l 514 165 l 322 450 l 514 733 z "},"»":{"ha":926,"x_min":85,"x_max":843,"o":"m 277 450 l 85 165 l 283 165 l 515 450 l 283 733 l 85 733 l 277 450 m 604 450 l 412 165 l 611 165 l 843 450 l 611 733 l 412 733 l 604 450 z "},"‹":{"ha":463,"x_min":16,"x_max":446,"o":"m 446 733 l 248 733 l 16 450 l 248 165 l 446 165 l 254 450 l 446 733 z "},"›":{"ha":463,"x_min":17,"x_max":447,"o":"m 208 450 l 17 165 l 215 165 l 447 450 l 215 733 l 17 733 l 208 450 z "},"„":{"ha":694,"x_min":61,"x_max":637,"o":"m 319 243 l 61 243 l 61 0 l 160 0 l 61 -253 l 193 -253 l 319 14 l 319 243 m 637 243 l 379 243 l 379 0 l 478 0 l 379 -253 l 511 -253 l 637 14 l 637 243 z "},"“":{"ha":694,"x_min":57,"x_max":633,"o":"m 315 956 l 183 956 l 57 689 l 57 460 l 315 460 l 315 703 l 217 703 l 315 956 m 633 956 l 501 956 l 375 689 l 375 460 l 633 460 l 633 703 l 535 703 l 633 956 z "},"”":{"ha":694,"x_min":61,"x_max":637,"o":"m 319 956 l 61 956 l 61 713 l 160 713 l 61 460 l 193 460 l 319 726 l 319 956 m 637 956 l 379 956 l 379 713 l 478 713 l 379 460 l 511 460 l 637 726 l 637 956 z "},"‘":{"ha":386,"x_min":61,"x_max":319,"o":"m 319 956 l 187 956 l 61 689 l 61 460 l 319 460 l 319 703 l 221 703 l 319 956 z "},"‛":{"ha":386,"x_min":61,"x_max":319,"o":"m 319 956 l 61 956 l 61 726 l 187 460 l 319 460 l 221 713 l 319 713 l 319 956 z "},"’":{"ha":386,"x_min":66,"x_max":325,"o":"m 325 956 l 66 956 l 66 713 l 165 713 l 66 460 l 199 460 l 325 726 l 325 956 z "},"‚":{"ha":386,"x_min":61,"x_max":319,"o":"m 319 243 l 61 243 l 61 0 l 160 0 l 61 -253 l 193 -253 l 319 14 l 319 243 z "},"Á":{"ha":1080,"x_min":14,"x_max":1068,"o":"m 1068 0 l 720 956 l 363 956 l 14 0 l 328 0 l 368 135 l 703 135 l 743 0 l 1068 0 m 533 689 l 539 689 l 639 349 l 432 349 l 533 689 m 806 1224 l 803 1230 l 535 1230 l 407 1044 l 584 1044 l 806 1224 z "}," ":{"ha":463,"x_min":0,"x_max":0,"o":""},"€":{"ha":926,"x_min":32,"x_max":872,"o":"m 659 972 q 563 966 612 972 q 466 943 513 959 q 373 902 418 928 q 290 840 328 877 q 222 753 252 803 q 175 640 193 704 l 32 640 l 32 511 l 157 511 l 157 444 l 32 444 l 32 315 l 175 315 q 223 201 193 251 q 292 115 253 152 q 375 53 330 78 q 468 12 420 28 q 563 -10 515 -3 q 654 -17 611 -17 q 773 -6 718 -17 q 872 18 828 5 l 872 214 q 824 195 850 203 q 770 182 801 187 q 701 176 739 176 q 552 213 611 176 q 461 315 492 250 l 750 315 l 750 444 l 431 444 q 429 462 429 453 q 429 481 429 471 l 429 511 l 750 511 l 750 640 l 460 640 q 550 742 490 705 q 701 779 610 779 q 770 774 739 779 q 824 762 801 768 q 872 745 850 754 l 872 946 q 781 964 836 956 q 659 972 726 972 z "},"¢":{"ha":926,"x_min":50,"x_max":867,"o":"m 545 1050 l 387 1050 l 397 860 q 253 824 317 852 q 144 749 189 797 q 75 634 99 702 q 50 479 50 567 q 75 323 50 391 q 144 209 99 256 q 253 134 189 161 q 397 98 317 106 l 387 -93 l 545 -93 l 533 98 q 665 127 604 105 q 771 186 726 149 q 841 280 816 224 q 867 411 867 336 l 610 411 q 573 313 610 343 q 468 283 536 283 q 359 325 392 283 q 326 439 326 366 l 326 518 q 334 584 326 555 q 358 633 342 612 q 400 664 374 653 q 463 675 426 675 q 563 645 528 675 q 599 550 599 615 l 867 550 q 841 680 867 625 q 771 772 816 734 q 665 831 726 810 q 533 859 604 852 l 545 1050 z "},"¤":{"ha":917,"x_min":96,"x_max":821,"o":"m 726 838 l 646 757 q 612 780 632 769 q 567 799 591 791 q 514 811 542 806 q 457 815 486 815 q 401 811 429 815 q 348 798 374 806 q 300 779 322 790 q 262 754 278 768 l 183 833 l 96 746 l 176 665 q 148 628 160 650 q 129 581 136 606 q 117 527 121 555 q 113 471 113 499 q 129 362 113 412 q 176 277 146 311 l 96 196 l 180 111 l 260 191 q 346 143 294 160 q 457 126 398 126 q 515 131 487 126 q 570 144 544 135 q 617 165 595 153 q 654 193 639 178 l 734 113 l 818 196 l 741 273 q 786 362 770 309 q 802 471 802 414 q 798 529 802 500 q 786 583 793 557 q 768 630 779 608 q 743 665 757 651 l 821 743 l 726 838 m 457 663 q 530 647 497 663 q 586 605 562 631 q 622 544 609 579 q 635 471 635 509 q 622 397 635 432 q 586 337 609 363 q 530 295 562 311 q 457 279 497 279 q 387 294 419 279 q 330 335 354 309 q 293 396 307 361 q 279 471 279 431 q 293 545 279 510 q 330 606 306 581 q 386 647 353 632 q 457 663 418 663 z "},"$":{"ha":926,"x_min":96,"x_max":852,"o":"m 551 1050 l 395 1050 l 404 859 q 291 838 344 853 q 200 793 239 823 q 138 720 161 764 q 115 614 115 676 q 136 523 115 559 q 189 461 156 486 q 265 421 222 436 q 352 397 308 407 q 439 382 396 388 q 515 368 481 376 q 568 348 548 360 q 589 315 589 336 q 576 285 589 296 q 546 269 564 274 q 508 262 528 264 q 473 261 488 261 q 438 264 458 261 q 398 277 417 268 q 367 303 380 286 q 353 346 353 319 l 353 351 l 96 351 q 121 246 96 291 q 190 171 147 201 q 288 122 233 140 q 404 98 344 104 l 395 -93 l 551 -93 l 541 97 q 662 118 605 102 q 761 164 719 134 q 828 241 804 195 q 852 355 852 288 q 832 450 852 412 q 779 513 812 488 q 703 552 745 538 q 616 575 660 566 q 529 589 572 584 q 453 602 486 595 q 399 619 420 608 q 379 650 379 630 q 391 677 379 667 q 420 691 404 687 q 454 696 437 696 q 479 697 471 697 q 511 694 494 697 q 542 684 528 692 q 567 662 557 676 q 578 627 577 648 l 835 627 q 810 726 835 684 q 745 796 786 768 q 651 840 705 824 q 541 860 598 855 l 551 1050 z "},"₣":{"ha":1158,"x_min":103,"x_max":1150,"o":"m 1150 616 q 1128 625 1141 621 q 1103 631 1118 628 q 1068 633 1088 633 q 1005 626 1036 633 q 947 602 974 618 q 900 561 921 585 q 867 504 880 536 l 848 615 l 623 615 l 623 562 l 410 562 l 410 726 l 850 726 l 850 956 l 103 956 l 103 0 l 410 0 l 410 343 l 623 343 l 623 0 l 899 0 l 899 208 q 907 282 899 250 q 935 338 916 315 q 985 373 954 361 q 1061 385 1017 385 l 1150 385 l 1150 616 z "},"₤":{"ha":926,"x_min":43,"x_max":886,"o":"m 529 972 q 369 950 436 972 q 259 889 302 928 q 194 797 215 850 q 174 685 174 745 l 174 590 l 43 590 l 43 475 l 174 475 l 174 414 l 43 414 l 43 298 l 174 298 l 174 204 l 85 204 l 85 0 l 811 0 l 811 204 l 410 204 l 422 298 l 610 298 l 610 414 l 439 414 l 447 473 l 610 473 l 610 590 l 447 590 l 447 686 q 454 717 447 703 q 472 743 460 732 q 498 760 483 753 q 529 766 513 766 q 561 760 546 766 q 586 743 575 753 q 603 717 597 732 q 610 686 610 703 l 610 653 l 886 653 l 886 686 q 864 798 886 745 q 796 889 841 850 q 684 950 751 928 q 529 972 617 972 z "},"₧":{"ha":2392,"x_min":83,"x_max":2367,"o":"m 83 956 l 83 0 l 389 0 l 389 309 l 618 309 q 743 332 686 309 q 839 398 799 356 q 902 498 880 441 q 924 624 924 556 l 924 642 q 902 767 924 709 q 839 866 880 824 q 743 932 799 908 q 618 956 686 956 l 83 956 m 516 729 q 590 704 566 729 q 613 636 613 679 l 613 625 q 589 557 613 583 q 516 532 565 532 l 389 532 l 389 729 l 516 729 m 1365 956 l 1160 956 l 1100 733 l 986 733 l 986 546 l 1089 546 l 1089 179 q 1108 85 1089 123 q 1160 25 1126 47 q 1240 -7 1194 2 q 1343 -17 1287 -17 q 1385 -15 1362 -17 q 1433 -10 1409 -14 q 1480 -2 1457 -7 q 1521 8 1503 3 l 1521 171 l 1443 171 q 1404 177 1419 171 q 1381 195 1390 183 q 1369 225 1372 208 q 1365 267 1365 243 l 1365 546 l 1521 546 l 1521 733 l 1365 733 l 1365 956 m 1997 750 q 1858 738 1925 750 q 1741 698 1792 726 q 1659 622 1690 669 q 1629 501 1629 574 q 1649 410 1629 447 q 1703 348 1670 373 q 1779 309 1736 323 q 1866 285 1822 294 q 1953 269 1910 275 q 2029 255 1996 263 q 2083 235 2062 248 q 2103 203 2103 223 q 2090 172 2103 183 q 2060 156 2078 161 q 2022 150 2042 151 q 1988 149 2002 149 q 1951 152 1972 149 q 1912 164 1931 155 q 1880 190 1893 174 q 1866 233 1867 207 l 1866 239 l 1610 239 q 1643 122 1610 170 q 1730 42 1676 73 q 1851 -3 1784 12 q 1988 -17 1919 -17 q 2132 -5 2063 -17 q 2253 37 2201 7 q 2336 117 2305 67 q 2367 243 2367 168 q 2346 337 2367 299 q 2293 400 2326 375 q 2217 440 2260 425 q 2130 463 2174 454 q 2043 477 2085 471 q 1967 489 2000 482 q 1913 507 1933 496 q 1893 538 1893 518 q 1905 565 1893 555 q 1934 579 1917 574 q 1967 584 1950 583 q 1993 585 1984 585 q 2024 582 2007 585 q 2056 571 2041 579 q 2081 550 2070 564 q 2091 514 2091 536 l 2348 514 q 2318 624 2348 579 q 2238 697 2287 669 q 2125 738 2188 725 q 1997 750 2062 750 z "},"£":{"ha":926,"x_min":43,"x_max":886,"o":"m 529 972 q 369 950 436 972 q 259 889 302 928 q 194 797 215 850 q 174 685 174 745 l 174 559 l 43 559 l 43 383 l 174 383 l 174 204 l 85 204 l 85 0 l 811 0 l 811 204 l 419 204 l 447 383 l 582 383 l 582 559 l 449 559 l 449 686 q 455 717 449 703 q 473 743 462 732 q 498 760 484 753 q 529 766 513 766 q 561 760 546 766 q 586 743 575 753 q 603 717 597 732 q 610 686 610 703 l 610 647 l 886 647 l 886 686 q 864 798 886 745 q 796 889 841 850 q 684 950 751 928 q 529 972 617 972 z "},"¥":{"ha":926,"x_min":3,"x_max":924,"o":"m 924 956 l 623 956 l 475 637 l 469 637 l 322 956 l 3 956 l 179 637 l 45 637 l 45 509 l 250 509 l 288 441 l 45 441 l 45 313 l 326 313 l 326 0 l 606 0 l 606 313 l 886 313 l 886 441 l 643 441 l 679 509 l 886 509 l 886 637 l 750 637 l 924 956 z "},"≈":{"ha":917,"x_min":54,"x_max":863,"o":"m 863 690 q 797 635 833 659 q 723 596 766 614 q 629 579 680 579 q 539 594 582 579 q 456 626 497 608 q 374 659 416 644 q 288 673 333 673 q 194 656 236 673 q 120 618 151 639 q 54 562 83 593 l 54 382 q 120 437 83 413 q 194 476 151 458 q 288 493 236 493 q 348 486 319 493 q 405 469 377 479 q 460 446 433 458 q 514 423 487 433 q 570 406 542 413 q 629 399 599 399 q 723 416 680 399 q 797 454 766 433 q 863 510 833 479 l 863 690 m 863 366 q 797 310 833 334 q 723 272 766 289 q 629 254 680 254 q 539 269 582 254 q 456 301 497 283 q 374 334 416 319 q 288 349 333 349 q 194 331 236 349 q 120 293 151 314 q 54 237 83 269 l 54 57 q 120 113 83 88 q 194 151 151 134 q 288 168 236 168 q 348 161 319 168 q 405 144 377 154 q 460 121 433 134 q 514 98 487 109 q 570 81 542 88 q 629 74 599 74 q 723 91 680 74 q 797 129 766 108 q 863 184 833 153 l 863 366 z "},"~":{"ha":917,"x_min":54,"x_max":863,"o":"m 863 568 q 797 513 833 537 q 723 474 766 492 q 629 457 680 457 q 539 472 582 457 q 456 504 497 486 q 374 537 416 522 q 288 551 333 551 q 194 534 236 551 q 120 496 151 517 q 54 440 83 471 l 54 260 q 120 315 83 291 q 194 354 151 336 q 288 371 236 371 q 348 364 319 371 q 405 347 377 357 q 460 324 433 336 q 514 301 487 311 q 570 284 542 291 q 629 277 599 277 q 723 294 680 277 q 797 332 766 311 q 863 387 833 356 l 863 568 z "},"÷":{"ha":917,"x_min":92,"x_max":825,"o":"m 825 456 l 92 456 l 92 272 l 825 272 l 825 456 m 551 203 l 370 203 l 370 21 l 551 21 l 551 203 m 551 705 l 370 705 l 370 524 l 551 524 l 551 705 z "},"=":{"ha":917,"x_min":92,"x_max":825,"o":"m 825 615 l 92 615 l 92 432 l 825 432 l 825 615 m 825 301 l 92 301 l 92 118 l 825 118 l 825 301 z "},"≡":{"ha":833,"x_min":86,"x_max":746,"o":"m 746 703 l 86 703 l 86 547 l 746 547 l 746 703 m 746 186 l 86 186 l 86 31 l 746 31 l 746 186 m 746 444 l 86 444 l 86 289 l 746 289 l 746 444 z "},">":{"ha":917,"x_min":94,"x_max":823,"o":"m 94 743 l 94 545 l 593 361 l 94 179 l 94 -18 l 823 262 l 823 461 l 94 743 z "},"≥":{"ha":917,"x_min":92,"x_max":825,"o":"m 92 937 l 92 739 l 608 581 l 92 424 l 92 227 l 825 482 l 825 681 l 92 937 m 825 183 l 92 183 l 92 0 l 825 0 l 825 183 z "},"∞":{"ha":810,"x_min":12,"x_max":798,"o":"m 604 742 q 537 729 566 742 q 485 696 508 715 q 444 655 462 677 q 412 616 427 633 q 324 710 372 678 q 212 742 276 742 q 133 726 170 742 q 70 680 96 709 q 27 609 43 650 q 12 517 12 568 q 28 425 12 466 q 70 356 43 385 q 131 312 96 328 q 201 297 165 297 q 262 307 234 297 q 314 333 290 316 q 359 375 338 351 q 403 428 381 399 q 457 359 430 385 q 511 319 485 333 q 561 301 537 305 q 604 297 585 297 q 676 312 641 297 q 738 357 711 328 q 781 429 765 387 q 798 526 798 471 q 782 617 798 577 q 740 685 766 657 q 678 727 713 713 q 604 742 643 742 m 215 628 q 256 620 238 628 q 288 597 273 612 q 315 564 302 583 q 342 521 328 544 l 346 513 q 320 476 334 494 q 291 444 307 458 q 257 421 275 430 q 218 412 239 412 q 184 421 200 412 q 157 444 169 429 q 139 477 145 458 q 132 518 132 496 q 139 566 132 545 q 157 600 146 586 q 183 621 168 614 q 215 628 199 628 m 593 628 q 628 620 612 628 q 654 596 644 611 q 671 561 665 581 q 677 517 677 541 q 672 481 677 500 q 657 448 667 463 q 632 422 647 433 q 599 412 618 412 q 569 416 583 412 q 538 432 554 420 q 505 465 523 444 q 465 521 488 486 l 469 526 q 497 564 484 546 q 526 597 511 583 q 557 620 541 611 q 593 628 574 628 z "},"∫":{"ha":376,"x_min":-1,"x_max":378,"o":"m 378 1254 l 271 1254 q 200 1245 235 1254 q 138 1217 165 1236 q 93 1168 110 1198 q 75 1099 75 1139 q 77 989 75 1058 q 81 837 78 921 q 86 660 83 753 q 93 475 90 567 q 111 16 100 261 q 99 -16 111 -5 q 69 -33 87 -28 q 32 -40 52 -39 q -1 -41 13 -41 l -1 -136 l 106 -136 q 176 -127 141 -136 q 239 -99 211 -118 q 284 -50 267 -79 q 301 20 301 -20 q 299 129 301 60 q 295 281 298 197 q 290 458 293 365 q 283 643 286 551 q 265 1103 275 857 q 277 1135 265 1124 q 307 1152 290 1147 q 344 1159 325 1158 q 378 1160 363 1160 l 378 1254 z "},"∩":{"ha":998,"x_min":96,"x_max":900,"o":"m 96 1 l 291 1 l 291 623 q 301 682 291 650 q 336 739 312 713 q 400 783 360 765 q 498 800 439 800 q 608 782 567 800 q 670 737 649 764 q 698 679 692 710 q 705 623 705 648 l 705 0 l 900 0 l 900 617 q 880 751 900 689 q 814 859 861 813 q 690 930 767 904 q 498 956 612 956 q 306 930 383 956 q 182 859 229 904 q 115 751 135 813 q 96 617 96 689 l 96 1 z "},"<":{"ha":917,"x_min":93,"x_max":822,"o":"m 822 743 l 93 461 l 93 262 l 822 -18 l 822 179 l 323 361 l 822 545 l 822 743 z "},"≤":{"ha":917,"x_min":92,"x_max":825,"o":"m 825 937 l 92 681 l 92 482 l 825 227 l 825 424 l 309 581 l 825 739 l 825 937 m 825 183 l 92 183 l 92 0 l 825 0 l 825 183 z "},"¬":{"ha":917,"x_min":69,"x_max":839,"o":"m 839 681 l 69 681 l 69 465 l 625 465 l 625 214 l 839 214 l 839 681 z "},"−":{"ha":917,"x_min":92,"x_max":825,"o":"m 825 458 l 92 458 l 92 275 l 825 275 l 825 458 z "},"×":{"ha":917,"x_min":94,"x_max":822,"o":"m 692 730 l 458 496 l 225 730 l 94 600 l 329 367 l 94 134 l 225 3 l 458 237 l 692 3 l 822 134 l 587 367 l 822 600 l 692 730 z "},"≠":{"ha":917,"x_min":92,"x_max":825,"o":"m 774 733 l 616 733 l 541 615 l 92 615 l 92 432 l 422 432 l 338 301 l 92 301 l 92 118 l 220 118 l 143 0 l 300 0 l 376 118 l 825 118 l 825 301 l 494 301 l 579 432 l 825 432 l 825 615 l 697 615 l 774 733 z "},"∟":{"ha":1360,"x_min":245,"x_max":1114,"o":"m 416 868 l 245 868 l 245 0 l 1114 0 l 1114 156 l 416 156 l 416 868 z "},"∂":{"ha":694,"x_min":12,"x_max":668,"o":"m 296 972 q 179 958 229 972 q 96 926 130 944 l 96 749 q 122 762 106 754 q 158 775 138 769 q 204 787 179 782 q 260 791 230 791 q 348 770 309 791 q 412 712 386 748 q 452 630 438 676 q 465 534 465 583 q 465 527 465 532 q 465 517 465 522 q 464 505 464 511 q 440 536 456 518 q 401 571 425 554 q 348 599 378 587 q 278 611 317 611 q 170 587 219 611 q 86 519 121 562 q 32 416 51 475 q 12 286 12 356 q 31 177 12 231 q 86 79 49 122 q 181 8 124 35 q 314 -18 237 -18 q 466 20 399 -18 q 576 125 532 58 q 645 286 621 193 q 668 490 668 379 q 639 691 668 602 q 560 843 610 781 q 441 939 509 906 q 296 972 374 972 m 335 453 q 377 442 358 453 q 411 415 397 431 q 434 381 425 399 q 446 350 443 363 q 431 280 442 316 q 403 215 420 245 q 363 167 386 186 q 313 149 340 149 q 275 159 292 149 q 246 187 258 169 q 227 229 233 205 q 220 282 220 254 q 228 348 220 317 q 251 402 236 379 q 288 439 267 426 q 335 453 309 453 z "},"%":{"ha":1389,"x_min":64,"x_max":1312,"o":"m 1054 954 l 903 954 l 321 0 l 475 0 l 1054 954 m 319 972 q 203 955 252 972 q 124 904 155 937 q 78 825 93 871 q 64 722 64 779 q 78 622 64 667 q 124 543 93 576 q 203 493 155 511 q 319 475 252 475 q 435 493 387 475 q 514 543 484 511 q 559 622 545 576 q 574 722 574 667 q 559 825 574 779 q 514 904 545 871 q 435 955 484 937 q 319 972 387 972 m 319 867 q 358 858 342 867 q 383 832 374 848 q 397 794 393 816 q 401 746 401 772 l 401 701 q 397 653 401 675 q 383 615 393 631 q 358 590 374 599 q 319 581 342 581 q 281 590 297 581 q 255 615 265 599 q 241 653 245 631 q 236 701 236 675 l 236 746 q 241 794 236 772 q 255 832 245 816 q 281 858 265 848 q 319 867 297 867 m 1059 481 q 942 463 991 481 q 863 412 894 445 q 818 333 832 379 q 803 231 803 287 q 818 130 803 176 q 863 52 832 84 q 942 1 894 19 q 1059 -17 991 -17 q 1175 1 1126 -17 q 1253 52 1223 19 q 1298 130 1284 84 q 1312 231 1312 176 q 1298 333 1312 287 q 1253 412 1284 379 q 1175 463 1223 445 q 1059 481 1126 481 m 1059 375 q 1097 366 1082 375 q 1122 340 1113 357 q 1136 302 1132 324 q 1140 254 1140 280 l 1140 210 q 1136 162 1140 184 q 1122 123 1132 140 q 1097 98 1113 107 q 1059 89 1082 89 q 1020 98 1036 89 q 995 123 1004 107 q 980 162 985 140 q 975 210 975 184 l 975 254 q 980 302 975 280 q 995 340 985 324 q 1020 366 1004 357 q 1059 375 1036 375 z "},"‰":{"ha":1389,"x_min":0,"x_max":1389,"o":"m 700 956 l 579 956 l 232 0 l 351 0 l 700 956 m 204 878 q 255 850 241 878 q 269 758 269 822 l 269 689 q 255 597 269 625 q 204 570 241 570 q 153 597 168 570 q 138 689 138 625 l 138 758 q 153 850 138 822 q 204 878 168 878 m 204 972 q 106 955 145 972 q 43 904 66 937 q 10 825 20 871 q 0 724 0 779 q 10 622 0 668 q 43 544 20 576 q 106 493 66 511 q 204 475 145 475 q 303 493 264 475 q 366 544 343 511 q 399 622 389 576 q 408 724 408 668 q 399 825 408 779 q 366 904 389 871 q 303 955 343 937 q 204 972 264 972 m 725 386 q 776 358 762 386 q 790 267 790 330 l 790 197 q 776 106 790 134 q 725 78 762 78 q 673 106 688 78 q 659 197 659 134 l 659 267 q 673 358 659 330 q 725 386 688 386 m 725 481 q 627 463 666 481 q 564 412 587 445 q 531 333 541 379 q 521 232 521 288 q 531 131 521 176 q 564 52 541 85 q 627 1 587 19 q 725 -17 666 -17 q 824 1 785 -17 q 887 52 864 19 q 920 131 910 85 q 929 232 929 176 q 920 333 929 288 q 887 412 910 379 q 824 463 864 445 q 725 481 785 481 m 1185 386 q 1236 358 1221 386 q 1250 267 1250 330 l 1250 197 q 1236 106 1250 134 q 1185 78 1221 78 q 1133 106 1148 78 q 1118 197 1118 134 l 1118 267 q 1133 358 1118 330 q 1185 386 1148 386 m 1185 481 q 1086 463 1125 481 q 1023 412 1046 445 q 990 333 1000 379 q 981 232 981 288 q 990 131 981 176 q 1023 52 1000 85 q 1086 1 1046 19 q 1185 -17 1125 -17 q 1284 1 1244 -17 q 1347 52 1323 19 q 1379 131 1370 85 q 1389 232 1389 176 q 1379 333 1389 288 q 1347 412 1370 379 q 1284 463 1323 445 q 1185 481 1244 481 z "},"+":{"ha":917,"x_min":92,"x_max":825,"o":"m 550 733 l 367 733 l 367 458 l 92 458 l 92 275 l 367 275 l 367 0 l 550 0 l 550 275 l 825 275 l 825 458 l 550 458 l 550 733 z "},"±":{"ha":917,"x_min":92,"x_max":825,"o":"m 550 933 l 367 933 l 367 681 l 92 681 l 92 497 l 367 497 l 367 244 l 550 244 l 550 497 l 825 497 l 825 681 l 550 681 l 550 933 m 825 183 l 92 183 l 92 0 l 825 0 l 825 183 z "},"∏":{"ha":1143,"x_min":28,"x_max":1115,"o":"m 1115 1007 l 28 1007 l 28 804 l 191 804 l 191 -192 l 431 -192 l 431 804 l 712 804 l 712 -192 l 952 -192 l 952 804 l 1115 804 l 1115 1007 z "},"√":{"ha":762,"x_min":-46,"x_max":832,"o":"m 832 1169 l 685 1169 l 476 163 q 463 91 468 125 q 454 31 458 56 l 446 31 q 430 90 438 58 q 410 154 421 123 l 249 589 l -46 468 l -7 350 l 109 396 l 350 -203 l 539 -203 l 832 1169 z "},"∑":{"ha":990,"x_min":40,"x_max":950,"o":"m 914 1008 l 58 1008 l 58 854 l 372 407 l 40 -74 l 40 -192 l 950 -192 l 950 14 l 371 14 l 371 21 l 664 441 l 418 798 l 418 803 l 914 803 l 914 1008 z "},"∙":{"ha":463,"x_min":98,"x_max":364,"o":"m 364 581 l 98 581 l 98 326 l 364 326 l 364 581 z "},"&":{"ha":1235,"x_min":104,"x_max":1234,"o":"m 579 972 q 384 950 468 972 q 244 891 300 928 q 160 803 189 853 q 132 699 132 753 q 143 634 132 665 q 173 577 154 603 q 216 532 191 551 q 271 501 241 512 l 271 496 q 149 411 193 471 q 104 267 104 351 q 133 154 104 206 q 220 64 161 102 q 370 5 279 26 q 587 -17 461 -17 q 796 6 709 -17 q 938 71 882 28 q 1018 173 993 113 q 1044 308 1044 233 l 1044 401 l 1234 401 l 1234 572 l 794 572 l 794 302 q 785 254 794 277 q 751 215 775 232 q 687 189 727 199 q 586 179 647 179 q 493 188 531 179 q 431 214 455 197 q 397 252 408 230 q 386 301 386 275 q 393 346 386 327 q 414 377 401 365 q 445 395 427 389 q 484 401 463 401 l 659 401 l 659 572 l 514 572 q 477 577 494 572 q 445 593 459 583 q 423 620 431 604 q 415 660 415 637 q 426 703 415 682 q 458 740 436 724 q 515 766 481 756 q 597 777 550 777 q 685 768 648 777 q 746 747 722 760 q 782 715 770 733 q 794 676 794 696 l 1040 676 l 1040 711 q 1009 812 1040 765 q 919 896 978 860 q 774 952 860 931 q 579 972 688 972 z "},"↔":{"ha":1389,"x_min":58,"x_max":1332,"o":"m 1059 632 l 960 632 l 1020 439 l 370 439 l 431 632 l 332 632 l 58 366 l 58 336 l 332 69 l 431 69 l 370 262 l 1020 262 l 960 69 l 1059 69 l 1332 336 l 1332 366 l 1059 632 z "},"↓":{"ha":694,"x_min":64,"x_max":627,"o":"m 627 -13 l 627 86 l 434 26 l 434 987 l 258 987 l 258 26 l 64 86 l 64 -13 l 332 -286 l 361 -286 l 627 -13 z "},"←":{"ha":1389,"x_min":58,"x_max":1332,"o":"m 1332 262 l 1332 439 l 370 439 l 431 632 l 332 632 l 58 366 l 58 336 l 332 69 l 431 69 l 370 262 l 1332 262 z "},"→":{"ha":1389,"x_min":58,"x_max":1332,"o":"m 58 262 l 1020 262 l 960 69 l 1059 69 l 1332 336 l 1332 366 l 1059 632 l 960 632 l 1020 439 l 58 439 l 58 262 z "},"↑":{"ha":694,"x_min":64,"x_max":627,"o":"m 258 -286 l 434 -286 l 434 675 l 627 615 l 627 714 l 361 987 l 332 987 l 64 714 l 64 615 l 258 675 l 258 -286 z "},"↕":{"ha":694,"x_min":64,"x_max":627,"o":"m 627 -13 l 627 86 l 434 26 l 434 675 l 627 615 l 627 714 l 361 987 l 332 987 l 64 714 l 64 615 l 258 675 l 258 26 l 64 86 l 64 -13 l 332 -286 l 361 -286 l 627 -13 z "},"@":{"ha":1028,"x_min":28,"x_max":1000,"o":"m 529 972 q 393 958 458 972 q 273 914 328 944 q 172 836 217 884 q 94 722 126 789 q 45 567 62 654 q 28 370 28 479 q 60 110 28 219 q 151 -69 92 1 q 295 -173 210 -140 q 486 -207 380 -207 q 533 -204 506 -207 q 587 -197 559 -201 q 642 -185 615 -192 q 688 -170 668 -178 l 688 -78 q 645 -96 671 -87 q 592 -110 620 -104 q 535 -119 564 -115 q 486 -122 507 -122 q 211 1 300 -122 q 122 368 122 124 q 226 759 122 631 q 528 888 330 888 q 681 863 611 888 q 800 785 750 838 q 878 649 850 732 q 905 450 905 566 q 897 324 905 371 q 878 253 889 277 q 855 221 867 228 q 836 214 844 214 q 808 222 821 214 q 796 256 796 231 l 796 476 q 773 563 796 528 q 712 619 751 597 q 624 649 674 640 q 519 659 574 659 q 398 646 451 659 q 310 610 346 633 q 257 555 275 587 q 239 485 239 524 q 239 478 239 481 q 240 471 239 475 l 447 471 q 453 497 447 487 q 470 514 460 508 q 492 523 480 520 q 517 525 505 525 q 564 508 545 525 q 583 457 583 490 l 583 429 q 430 422 496 429 q 317 392 363 414 q 248 331 271 370 q 224 229 224 292 q 238 155 224 185 q 279 105 253 124 q 341 79 304 87 q 421 71 377 71 q 482 77 454 71 q 532 93 509 83 q 573 117 555 103 q 607 144 591 130 q 629 115 616 129 q 661 92 642 102 q 703 76 679 82 q 758 71 727 71 q 815 78 786 71 q 870 104 844 86 q 921 151 897 122 q 962 222 945 180 q 990 320 980 264 q 1000 449 1000 376 q 965 687 1000 588 q 866 850 929 787 q 716 943 803 913 q 529 972 630 972 m 583 281 q 576 249 583 263 q 556 224 569 235 q 527 207 544 213 q 492 201 511 201 q 471 203 481 201 q 452 212 460 205 q 438 228 444 218 q 433 256 433 239 q 469 307 433 287 q 583 328 505 328 l 583 281 z "},"|":{"ha":386,"x_min":107,"x_max":279,"o":"m 279 1008 l 107 1008 l 107 -293 l 279 -293 l 279 1008 z "},"¦":{"ha":386,"x_min":109,"x_max":281,"o":"m 281 1008 l 109 1008 l 109 467 l 281 467 l 281 1008 m 281 250 l 109 250 l 109 -292 l 281 -292 l 281 250 z "},"©":{"ha":1111,"x_min":61,"x_max":1053,"o":"m 555 972 q 355 934 446 972 q 199 829 264 896 q 97 673 134 763 q 61 479 61 583 q 97 285 61 376 q 199 127 134 195 q 355 22 264 60 q 555 -17 446 -17 q 756 22 665 -17 q 913 127 848 60 q 1016 285 979 195 q 1053 479 1053 376 q 1036 612 1053 549 q 988 730 1019 675 q 913 829 958 785 q 814 906 869 874 q 693 955 759 938 q 555 972 628 972 m 562 775 q 339 700 414 775 q 264 478 264 625 q 339 255 264 330 q 562 180 414 180 q 679 196 628 180 q 766 242 730 212 q 820 319 802 273 q 839 424 839 364 l 668 424 q 641 346 668 373 q 559 318 614 318 q 511 328 532 318 q 478 355 491 338 q 459 397 465 373 q 453 452 453 422 l 453 504 q 459 558 453 534 q 477 600 465 583 q 511 628 490 618 q 561 637 531 637 q 636 608 610 637 q 663 529 663 578 l 839 529 q 819 635 839 589 q 763 712 800 681 q 676 759 727 743 q 562 775 625 775 m 555 884 q 716 855 644 884 q 840 773 789 826 q 918 646 890 720 q 946 479 946 571 q 918 313 946 388 q 840 185 890 238 q 716 103 789 132 q 555 74 644 74 q 395 103 467 74 q 273 185 323 132 q 195 313 222 238 q 168 479 168 388 q 195 646 168 571 q 273 773 222 720 q 395 855 323 826 q 555 884 467 884 z "},"†":{"ha":926,"x_min":96,"x_max":839,"o":"m 570 956 l 366 956 l 393 675 l 96 704 l 96 500 l 393 529 l 366 -257 l 570 -257 l 542 529 l 839 500 l 839 704 l 542 675 l 570 956 z "},"‡":{"ha":926,"x_min":96,"x_max":839,"o":"m 570 956 l 366 956 l 393 675 l 96 704 l 96 500 l 393 529 l 366 342 l 393 151 l 96 180 l 96 -24 l 393 5 l 366 -277 l 570 -277 l 542 5 l 839 -24 l 839 180 l 542 151 l 570 342 l 542 529 l 839 500 l 839 704 l 542 675 l 570 956 z "},"°":{"ha":555,"x_min":69,"x_max":486,"o":"m 278 972 q 197 956 235 972 q 130 911 159 939 q 85 844 102 882 q 69 764 69 806 q 86 682 70 720 q 131 616 102 644 q 197 572 159 588 q 278 555 235 555 q 359 572 321 555 q 425 616 397 588 q 470 682 453 644 q 486 764 486 720 q 470 844 486 806 q 425 911 453 882 q 359 956 397 939 q 278 972 321 972 m 275 848 q 310 842 294 848 q 337 823 326 835 q 356 795 349 811 q 363 762 363 780 q 356 729 363 745 q 337 702 349 713 q 310 683 326 690 q 277 676 294 676 q 243 683 259 676 q 216 702 227 690 q 197 729 204 713 q 191 762 191 745 q 197 795 191 780 q 216 823 204 811 q 243 842 228 835 q 275 848 258 848 z "},"℮":{"ha":833,"x_min":61,"x_max":779,"o":"m 419 750 q 270 721 336 750 q 157 642 203 692 q 86 520 111 591 q 61 367 61 450 q 86 213 61 283 q 157 92 111 142 q 270 12 203 41 q 419 -17 336 -17 q 522 -4 474 -17 q 609 32 570 8 q 680 89 649 56 q 733 164 711 122 l 686 195 q 581 82 650 123 q 419 41 513 41 q 303 60 355 41 q 212 115 251 79 l 212 346 l 779 346 l 779 353 q 754 512 779 439 q 683 637 729 585 q 569 720 636 690 q 419 750 503 750 m 419 692 q 536 672 484 692 q 628 615 588 652 l 628 404 l 212 404 l 212 616 q 303 672 251 652 q 419 692 355 692 z "},"¶":{"ha":1181,"x_min":151,"x_max":1034,"o":"m 1034 956 l 452 956 q 334 932 389 956 q 239 867 279 908 q 175 772 198 827 q 151 654 151 717 q 174 539 151 593 q 235 445 196 486 q 326 380 273 405 q 439 354 378 356 l 439 -224 l 616 -224 l 616 787 l 764 787 l 764 -224 l 942 -224 l 942 787 l 1034 787 l 1034 956 z "},"®":{"ha":1111,"x_min":61,"x_max":1053,"o":"m 555 972 q 355 934 446 972 q 199 829 264 896 q 97 673 134 763 q 61 479 61 583 q 97 285 61 376 q 199 127 134 195 q 355 22 264 60 q 555 -17 446 -17 q 756 22 665 -17 q 913 127 848 60 q 1016 285 979 195 q 1053 479 1053 376 q 1036 612 1053 549 q 988 730 1019 675 q 913 829 958 785 q 814 906 869 874 q 693 955 759 938 q 555 972 628 972 m 555 884 q 716 855 644 884 q 840 773 789 826 q 918 646 890 720 q 946 479 946 571 q 918 313 946 388 q 840 185 890 238 q 716 103 789 132 q 555 74 644 74 q 395 103 467 74 q 273 185 323 132 q 195 313 222 238 q 168 479 168 388 q 195 646 168 571 q 273 773 222 720 q 395 855 323 826 q 555 884 467 884 m 322 765 l 322 192 l 507 192 l 507 395 l 533 395 q 575 385 560 395 q 598 358 591 374 q 607 322 605 342 q 608 285 608 303 q 642 204 608 227 q 737 182 675 182 q 789 185 762 182 q 839 199 816 189 l 839 233 q 815 249 823 237 q 802 276 806 260 q 797 307 798 291 q 796 336 796 323 q 774 421 796 385 q 703 471 752 457 l 703 478 q 733 494 717 484 q 764 523 749 505 q 787 564 778 540 q 796 621 796 588 q 784 680 796 653 q 749 726 771 707 q 698 755 727 745 q 636 765 669 765 l 322 765 m 555 635 q 593 619 577 635 q 608 579 608 603 q 593 538 608 554 q 555 522 577 522 l 507 522 l 507 635 l 555 635 z "},"§":{"ha":926,"x_min":75,"x_max":851,"o":"m 458 972 q 378 967 420 972 q 296 951 336 962 q 219 922 256 940 q 156 878 183 904 q 112 815 128 851 q 96 734 96 780 q 125 638 96 680 q 200 566 154 597 q 162 536 184 555 q 121 490 140 517 q 89 430 102 464 q 75 354 75 395 q 96 264 75 303 q 151 195 117 225 q 229 143 185 165 q 318 102 273 121 q 407 68 363 84 q 485 36 451 52 q 540 1 519 20 q 561 -41 561 -18 q 551 -65 561 -56 q 526 -81 541 -75 q 492 -89 511 -87 q 456 -92 473 -92 q 422 -88 439 -92 q 391 -78 405 -85 q 367 -59 376 -71 q 358 -29 358 -47 l 107 -29 l 107 -43 q 123 -116 107 -84 q 167 -172 140 -148 q 231 -211 195 -195 q 307 -237 267 -227 q 389 -251 347 -247 q 468 -256 430 -256 q 549 -251 507 -256 q 631 -234 591 -245 q 707 -205 671 -223 q 771 -161 744 -187 q 814 -99 798 -134 q 831 -18 831 -64 q 801 78 831 37 q 725 151 772 119 q 763 181 741 162 q 804 226 785 199 q 838 287 824 252 q 851 363 851 321 q 830 453 851 414 q 775 522 809 492 q 697 574 741 551 q 608 614 654 596 q 519 649 563 633 q 441 681 475 665 q 387 716 408 697 q 366 758 366 734 q 375 782 366 772 q 400 798 385 791 q 434 806 416 804 q 471 808 453 808 q 504 805 487 808 q 536 794 522 802 q 559 775 550 787 q 568 746 568 763 l 819 746 l 819 760 q 803 833 819 801 q 759 888 787 865 q 695 928 732 912 q 619 954 659 944 q 538 968 579 964 q 458 972 496 972 m 350 488 q 448 446 400 466 q 534 404 496 426 q 596 356 572 382 q 619 298 619 331 q 606 258 619 275 q 576 229 592 241 q 478 271 526 250 q 392 313 430 291 q 331 360 354 334 q 307 418 307 385 q 321 457 307 439 q 350 488 334 475 z "},"™":{"ha":1320,"x_min":25,"x_max":1270,"o":"m 1270 956 l 1028 956 l 947 636 l 940 636 l 859 956 l 608 956 l 608 403 l 771 403 l 771 575 q 768 646 771 610 q 762 711 766 682 q 754 777 759 745 l 760 777 l 863 403 l 1002 403 l 1104 778 l 1109 778 q 1102 711 1105 746 q 1097 646 1099 682 q 1095 575 1095 610 l 1095 403 l 1270 403 l 1270 956 m 566 956 l 25 956 l 25 814 l 207 814 l 207 403 l 385 403 l 385 814 l 566 814 l 566 956 z "},"":{"ha":463,"x_min":140,"x_max":321,"o":"m 321 -82 l 140 -82 l 140 -243 l 210 -243 l 153 -370 l 245 -370 l 321 -233 l 321 -82 z "},"^":{"ha":917,"x_min":77,"x_max":839,"o":"m 557 956 l 358 956 l 77 468 l 277 468 l 460 762 l 642 468 l 839 468 l 557 956 z "},"ˉ":{"ha":694,"x_min":0,"x_max":694,"o":"m 694 1169 l 0 1169 l 0 1083 l 694 1083 l 694 1169 z "},"´":{"ha":463,"x_min":41,"x_max":440,"o":"m 437 1007 l 170 1007 l 41 822 l 218 822 l 440 1002 l 437 1007 z "},"˘":{"ha":463,"x_min":-25,"x_max":488,"o":"m 355 1007 q 343 984 353 996 q 317 961 333 972 q 278 944 300 951 q 231 937 256 937 q 183 944 205 937 q 146 961 162 951 q 120 984 130 972 q 109 1007 111 996 l -25 1007 q -8 937 -25 972 q 43 872 9 901 q 123 825 76 844 q 231 807 170 807 q 337 825 290 807 q 418 872 385 844 q 470 937 452 901 q 488 1007 488 972 l 355 1007 z "},"ˇ":{"ha":463,"x_min":-49,"x_max":515,"o":"m 515 1007 l 335 1007 l 232 900 l 129 1007 l -49 1007 l 144 806 l 322 806 l 515 1007 z "},"¸":{"ha":463,"x_min":65,"x_max":404,"o":"m 290 54 l 204 54 l 178 -119 l 231 -119 q 272 -131 261 -119 q 283 -164 283 -143 q 268 -197 283 -188 q 228 -207 253 -207 q 172 -205 200 -207 q 119 -201 143 -203 q 65 -196 92 -199 l 65 -271 q 100 -280 80 -276 q 144 -287 121 -284 q 192 -292 167 -290 q 240 -293 216 -293 q 293 -288 264 -293 q 346 -268 321 -282 q 388 -229 371 -254 q 404 -164 404 -203 q 394 -109 404 -132 q 365 -73 383 -87 q 324 -51 347 -58 q 275 -40 300 -43 l 290 54 z "},"ˆ":{"ha":463,"x_min":-49,"x_max":515,"o":"m 322 1007 l 144 1007 l -49 806 l 129 806 l 232 913 l 335 806 l 515 806 l 322 1007 z "},"¨":{"ha":463,"x_min":-28,"x_max":489,"o":"m 489 1007 l 278 1007 l 278 814 l 489 814 l 489 1007 m 183 1007 l -28 1007 l -28 814 l 183 814 l 183 1007 z "},"˙":{"ha":463,"x_min":126,"x_max":338,"o":"m 338 1007 l 126 1007 l 126 814 l 338 814 l 338 1007 z "},"`":{"ha":463,"x_min":32,"x_max":431,"o":"m 302 1007 l 35 1007 l 32 1002 l 254 822 l 431 822 l 302 1007 z "},"˝":{"ha":463,"x_min":-18,"x_max":631,"o":"m 335 1007 l 87 1007 l -18 821 l 144 821 l 338 1002 l 335 1007 m 628 1007 l 380 1007 l 275 821 l 437 821 l 631 1002 l 628 1007 z "},"¯":{"ha":463,"x_min":12,"x_max":452,"o":"m 452 979 l 12 979 l 12 840 l 452 840 l 452 979 z "},"˛":{"ha":463,"x_min":100,"x_max":408,"o":"m 294 17 l 170 17 q 145 -14 157 2 q 123 -48 133 -30 q 106 -88 113 -66 q 100 -135 100 -109 q 115 -208 100 -178 q 154 -257 130 -238 q 210 -284 178 -275 q 275 -293 241 -293 q 408 -272 345 -293 l 408 -167 l 350 -167 q 310 -161 326 -167 q 285 -145 294 -155 q 271 -122 275 -135 q 267 -96 267 -109 q 269 -64 267 -80 q 276 -34 272 -48 q 286 -8 281 -20 q 294 11 290 3 l 294 17 z "},"˚":{"ha":463,"x_min":81,"x_max":383,"o":"m 232 1103 q 173 1091 201 1103 q 125 1058 146 1079 q 93 1010 104 1038 q 81 951 81 983 q 93 893 81 920 q 126 845 105 865 q 174 813 146 825 q 232 802 201 802 q 291 813 263 802 q 339 846 318 825 q 371 893 359 866 q 383 951 383 921 q 371 1011 383 983 q 338 1059 359 1038 q 290 1091 317 1079 q 232 1103 262 1103 m 232 1007 q 272 992 256 1007 q 288 953 288 977 q 272 912 288 928 q 232 896 257 896 q 192 911 208 896 q 176 950 176 926 q 192 991 176 975 q 232 1007 207 1007 z "},"˜":{"ha":463,"x_min":-78,"x_max":539,"o":"m 427 1007 q 401 967 419 983 q 357 951 383 951 q 300 960 329 951 q 242 979 272 969 q 181 998 212 989 q 117 1007 150 1007 q 37 990 73 1007 q -24 945 1 973 q -64 881 -50 917 q -78 808 -78 846 l 35 808 q 60 848 42 832 q 104 864 78 864 q 161 855 132 864 q 219 836 189 846 q 280 817 249 826 q 345 808 311 808 q 424 825 388 808 q 486 870 460 842 q 525 933 511 898 q 539 1007 539 969 l 427 1007 z "},"A":{"ha":1080,"x_min":14,"x_max":1068,"o":"m 720 956 l 363 956 l 14 0 l 328 0 l 368 135 l 703 135 l 743 0 l 1068 0 l 720 956 m 539 689 l 639 349 l 432 349 l 533 689 l 539 689 z "},"Ǽ":{"ha":1389,"x_min":-21,"x_max":1336,"o":"m 1053 1223 l 1050 1229 l 782 1229 l 654 1044 l 831 1044 l 1053 1223 m 696 0 l 1336 0 l 1336 229 l 935 229 l 901 375 l 1249 375 l 1249 595 l 850 595 l 819 726 l 1326 726 l 1326 956 l 383 956 l -21 0 l 293 0 l 340 135 l 665 135 l 696 0 m 538 689 l 543 689 l 618 349 l 416 349 l 538 689 z "},"Æ":{"ha":1389,"x_min":-21,"x_max":1336,"o":"m 696 0 l 1336 0 l 1336 229 l 935 229 l 901 375 l 1249 375 l 1249 595 l 850 595 l 819 726 l 1326 726 l 1326 956 l 383 956 l -21 0 l 293 0 l 340 135 l 665 135 l 696 0 m 538 689 l 543 689 l 618 349 l 416 349 l 538 689 z "},"―":{"ha":1042,"x_min":0,"x_max":1043,"o":"m 1043 464 l 0 464 l 0 272 l 1043 272 l 1043 464 z "},"℅":{"ha":1389,"x_min":64,"x_max":1324,"o":"m 1046 972 l 913 972 l 343 -17 l 475 -17 l 1046 972 m 336 971 q 224 956 274 971 q 138 908 174 940 q 83 829 102 877 q 64 718 64 782 q 83 607 64 654 q 138 528 102 559 q 224 481 174 496 q 336 465 274 465 q 440 477 391 465 q 525 514 489 489 q 582 579 561 539 q 603 673 603 618 l 433 673 q 409 609 433 629 q 340 589 385 589 q 267 616 289 589 q 245 692 245 644 l 245 745 q 267 820 245 793 q 336 847 288 847 q 403 827 379 847 q 427 765 427 808 l 603 765 q 582 860 603 821 q 525 923 561 899 q 440 960 489 948 q 336 971 391 971 m 1050 489 q 938 473 988 489 q 852 426 888 458 q 797 347 817 395 q 778 236 778 300 q 797 125 778 172 q 852 46 817 77 q 938 -1 888 14 q 1050 -17 988 -17 q 1162 -1 1112 -17 q 1249 46 1213 14 q 1304 125 1284 77 q 1324 236 1324 172 q 1304 347 1324 300 q 1249 426 1284 395 q 1162 473 1213 458 q 1050 489 1112 489 m 1050 366 q 1120 338 1098 366 q 1141 261 1141 310 l 1141 210 q 1120 134 1141 161 q 1050 107 1098 107 q 981 134 1002 107 q 960 210 960 161 l 960 261 q 981 338 960 310 q 1050 366 1002 366 z "}}}
